<svg width="188" height="169" viewBox="0 0 188 169" fill="none" xmlns="http://www.w3.org/2000/svg">
<path d="M147.474 108.365V125.215L167.636 137.156L186.672 130.523C186.672 130.523 187.799 127.007 184.947 121.236C182.096 115.466 174.432 101.203 173.787 99.9474C173.142 98.6847 171.75 96.4988 171.75 96.4988L147.481 108.372L147.474 108.365Z" fill="white"/>
<path d="M49.0326 56.9619C49.2974 56.894 58.4484 57.4914 58.4484 57.4914L59.7111 23.8606L48.632 23.9285L49.0326 56.9619Z" fill="white"/>
<path d="M172.85 97.0757V98.8136C170.875 100.477 168.804 102.065 166.924 103.837C163.869 106.709 160.984 109.75 157.936 112.628C155.526 114.903 152.98 117.034 150.387 119.315C147.237 117.435 144.1 115.554 140.869 113.626C140.428 114.129 140.027 114.536 139.695 114.984C137.047 118.609 133.693 121.406 129.695 123.443C126.226 125.221 122.777 127.041 119.288 128.785C118.833 129.009 118.154 129.057 117.665 128.908C114.78 128.025 111.861 127.183 109.051 126.09C99.9336 122.54 92.0588 116.905 84.3198 111.067C80.6811 108.331 77.1375 105.466 73.4784 102.771C71.5573 101.353 70.3217 99.6893 69.799 97.6392C70.8851 97.035 71.6251 96.0778 71.8559 94.754C72.1207 93.2877 71.6115 91.8892 70.7901 90.6605C70.4167 90.1106 70.0298 89.5879 69.6293 89.1059C69.6293 87.1236 69.6021 85.1345 69.5614 83.1455C69.4663 78.088 69.1473 73.044 69.1405 67.9933C69.1405 65.0538 69.5478 62.1144 69.7854 58.9712C69.2559 58.9441 68.6313 58.8694 68.0068 58.8898C64.9723 58.9984 61.9513 59.1817 58.9168 59.236C57.1993 59.2632 56.3779 59.0595 55.9842 58.2109C55.8077 57.8172 55.7194 57.2809 55.6786 56.5545C55.6786 56.4187 55.6651 56.2694 55.6583 56.12C55.4818 50.5534 55.9094 45.0206 56.4254 39.4879C56.6358 37.268 56.7105 35.0278 56.9753 32.8147C57.2943 30.14 57.6881 27.4721 58.0886 24.8109C58.1565 24.3357 58.2311 23.8673 58.3058 23.3921C58.3058 23.365 58.3194 23.331 58.3262 23.3039C58.4212 22.7744 58.6114 22.2448 58.8693 21.7696C59.0051 21.5185 59.4328 21.2741 59.7111 21.2876C62.2229 21.437 64.7211 21.661 67.2329 21.8443C71.2042 22.1227 75.0466 23.0798 78.8821 24.0914C83.831 25.388 88.8546 26.3044 93.8918 27.2209C98.5012 28.0695 103.036 29.3525 107.048 31.9797C108.983 33.2424 110.884 34.5458 112.825 35.7949C117.136 38.5715 121.474 41.3005 125.771 44.0974C126.728 44.7152 127.672 45.4212 128.459 46.2494C131.63 49.6097 134.725 53.0448 137.868 56.4323C138.948 57.5999 140.068 58.7268 141.195 59.847C147.569 66.1672 153.197 73.1255 158.92 80.0159C159.843 81.1293 160.739 82.2834 161.819 83.227C165.131 86.1189 167.514 89.7372 169.985 93.2945C170.888 94.5979 171.9 95.8198 172.864 97.0757H172.85Z" fill="#E76100"/>
<path d="M71.856 94.7475C71.6251 96.0712 70.8852 97.0352 69.799 97.6326C69.6361 97.0284 69.541 96.3835 69.5138 95.6979C69.4935 95.3517 69.4935 94.9918 69.5138 94.6185C69.5546 93.7767 69.5749 92.9281 69.5953 92.0795C69.6225 91.0816 69.6361 90.0905 69.6361 89.0925C70.0434 89.5813 70.4303 90.0973 70.7969 90.6471C71.6183 91.8759 72.1275 93.2675 71.8628 94.7407L71.856 94.7475Z" fill="#0060D6"/>
<path d="M17.995 87.1442C17.995 87.1442 18.6671 96.1934 19.5564 102.514C20.4457 108.834 21.0432 122.099 22.3059 127.74C23.5685 133.381 30.4657 165.437 33.3848 167.386C36.3039 169.334 60.0505 164.82 63.8928 164.222C67.742 163.625 102.561 156.266 106.939 155.73C111.318 155.2 132.41 152.743 133.401 151.616C134.393 150.489 136.986 147.434 136.321 142.926C135.655 138.419 131.148 120.279 131.012 111.386C130.876 102.493 126.45 88.1693 126.436 84.5577C126.423 80.9462 126.002 76.7033 124.644 76.0652C123.286 75.4338 17.9882 87.1442 17.9882 87.1442H17.995Z" fill="white"/>
<path d="M137.305 143.476C137.033 142.227 136.721 140.985 136.511 139.729C135.777 135.323 135.133 130.904 134.338 126.505C133.89 124.02 133.028 121.61 132.675 119.125C132.064 114.699 131.711 110.239 131.222 105.799C130.917 103.002 130.693 100.192 130.211 97.4289C129.199 91.6857 128.066 85.9561 126.905 80.2333C126.294 77.1988 125.683 74.1507 123.422 71.7407C122.071 70.3016 120.449 69.8128 118.684 70.6953C118.236 70.9125 117.767 71.1501 117.292 71.2248C113.952 71.7068 110.66 72.6504 107.211 71.9987C106.308 71.829 105.337 71.9716 104.4 72.0327C101.38 72.2431 98.3586 72.5011 95.3377 72.6912C93.5998 72.8066 91.8687 72.7862 90.1376 72.8948C86.6075 73.112 83.0843 73.3972 79.561 73.628C76.7573 73.8181 73.9332 73.8792 71.1295 74.1575C66.7576 74.5988 62.3994 75.1893 58.0343 75.7121C52.8071 76.3366 47.573 76.9069 42.3593 77.6061C36.4329 78.4004 30.52 79.2829 24.6071 80.1518C22.8964 80.4098 21.1857 80.6881 19.4953 81.0615C17.1261 81.5774 16.0467 83.0031 16.2571 85.4198C16.3454 86.4109 16.8342 87.3545 17.0039 88.3389C17.771 92.8805 18.6806 97.4085 19.1966 101.984C19.8483 107.788 20.1538 113.626 20.6561 119.444C20.8191 121.386 20.9888 123.341 21.3418 125.249C22.0207 128.785 22.8013 132.309 23.5956 135.818C25.2995 143.34 26.9424 150.882 28.8229 158.357C29.5425 161.201 30.8255 163.917 31.9116 166.666C32.3257 167.711 33.0725 168.519 34.2877 168.648C35.5775 168.791 36.8877 169.089 38.1572 168.974C42.4001 168.601 46.6565 168.288 50.8315 167.548C57.9935 166.279 65.0944 164.636 72.2428 163.258C76.5604 162.423 80.9255 161.873 85.2498 161.045C94.3737 159.293 103.47 157.366 112.696 156.137C119.39 155.241 126.124 154.467 132.655 152.6C133.381 152.389 134.209 151.996 134.671 151.432C135.872 149.918 137.142 148.371 136.952 146.205C136.925 145.893 137.162 145.56 137.285 145.227V143.49L137.305 143.476ZM135.126 147.318C134.63 149.097 133.551 150.407 131.609 151.073C128.575 152.111 125.5 152.681 122.329 153.014C119.179 153.347 116.057 153.951 112.927 154.406C111.427 154.623 109.933 154.894 108.426 154.976C102.405 155.302 96.6682 157.121 90.8029 158.268C85.6367 159.266 80.4706 160.264 75.2909 161.194C70.0433 162.138 64.7821 162.966 59.5345 163.917C54.7146 164.799 49.9354 165.906 45.1019 166.659C42.0539 167.134 38.9311 167.107 35.8423 167.358C34.1791 167.494 33.2626 166.679 32.801 165.206C31.8031 162.043 30.7508 158.886 29.8751 155.696C28.9722 152.43 28.1711 149.138 27.4448 145.825C26.1685 139.98 24.8447 134.142 23.8061 128.249C23.1068 124.278 22.8624 120.225 22.4008 116.213C21.6744 109.845 20.9549 103.471 20.1742 97.103C19.9026 94.8899 19.4682 92.6972 19.0812 90.3483C25.7341 89.4115 32.1968 88.3321 38.707 87.6329C45.0137 86.954 51.3135 86.2412 57.6745 86.0715C61.8427 85.9561 65.9973 85.2365 70.1384 84.6527C75.9901 83.8177 81.7944 82.7179 87.6529 82.0051C92.0859 81.462 96.5664 81.367 101.02 81.014C107.068 80.5388 113.104 80.0364 119.037 78.6516C120.503 78.3121 122.017 78.0881 123.524 77.9455C124.875 77.8098 124.99 77.9795 125.167 79.3033C125.533 82.0866 125.785 84.8903 126.294 87.6532C126.864 90.7692 127.794 93.8241 128.351 96.9469C129.002 100.633 129.512 104.346 129.932 108.067C130.577 113.871 130.958 119.709 131.725 125.486C132.125 128.473 133.218 131.352 133.843 134.311C134.488 137.339 135.037 140.394 135.445 143.456C135.608 144.712 135.486 146.09 135.146 147.312L135.126 147.318Z" fill="#29A6FF"/>
<path d="M173.57 71.4216H172.266C171.94 71.5574 171.621 71.7542 171.282 71.8085C164.296 73.0508 157.257 73.5872 150.169 73.6211C148.941 73.6211 147.719 73.7161 146.49 73.7433C145.268 73.7704 144.046 73.7976 142.824 73.784C141.385 73.7636 139.932 73.5736 138.5 73.689C134.121 74.0488 129.749 74.49 125.377 74.9652C124.488 75.0603 123.11 74.9788 122.988 76.0243C122.838 77.3345 124.291 77.3345 125.208 77.5585C127.428 78.0812 129.675 78.5021 132.295 79.0384C129.675 79.8802 127.434 80.6745 125.153 81.3262C115.507 84.0688 105.833 86.7231 96.1999 89.4997C86.0917 92.4188 76.0581 95.6162 65.7054 97.6324C63.4448 98.0737 61.1843 98.5489 58.9508 99.0987C58.3806 99.2413 57.4709 99.6487 57.4234 100.029C57.2672 101.169 56.3508 101.726 55.8959 102.595C55.3325 103.674 54.8233 104.774 54.3821 105.901C54.1241 106.546 54.1648 107.313 53.8864 107.944C51.0352 114.502 48.1297 121.04 45.2853 127.591C41.8639 135.465 37.9807 143.15 35.8287 151.52C35.4554 152.973 35.4894 153.428 36.7317 154.277C37.9265 155.084 39.1755 155.824 40.4314 156.53C41.4972 157.135 41.9453 156.999 42.5699 155.974C42.8618 155.485 43.0926 154.942 43.3234 154.419C45.6315 149.117 48.0008 143.849 50.2274 138.52C53.357 130.985 56.4186 123.429 59.426 115.839C60.7362 112.561 61.8292 109.193 63.0104 105.853C63.248 105.181 63.5195 104.74 64.3613 104.502C66.5744 103.864 68.6856 102.914 70.8851 102.222C81.4822 98.8883 92.0724 95.5008 102.717 92.3101C114.95 88.6511 127.523 86.2072 139.504 81.6995C140.944 81.1565 142.179 81.3194 143.272 82.4327C145.288 84.4897 147.325 86.5398 149.355 88.5968C150.821 90.0903 151.323 90.1446 152.702 88.6307C156.524 84.4286 160.929 80.9324 165.6 77.7622C167.928 76.1804 170.345 74.7276 172.742 73.2409C173.448 72.7997 174.16 72.4195 173.583 71.4148L173.57 71.4216ZM168.376 74.0488H168.295C168.349 74.0148 168.451 73.8926 168.451 73.8926C168.431 73.9469 168.404 73.9945 168.376 74.0488Z" fill="black"/>
<path d="M51.2932 57.2945C51.2932 57.2945 49.2363 56.7649 46.9824 56.8939C44.7286 57.0229 35.4418 57.4913 32.19 58.883C28.9383 60.2747 28.2798 60.4715 28.2798 60.4715C28.2798 60.4715 29.2777 73.0712 32.3937 78.7804C35.5097 84.4829 38.8971 91.448 39.6235 91.7806C40.3499 92.1133 42.7395 91.7127 43.3708 91.0542C44.0022 90.389 49.9558 82.0729 57.7966 83.6886C65.6375 85.3043 71.2585 90.6945 71.1295 93.3624C71.0005 96.0303 70.2198 97.6392 68.1561 97.1301C66.0923 96.6209 62.7727 92.9075 61.7816 92.4459C60.7836 91.9843 59.1951 91.5838 59.1951 91.5838C59.1951 91.5838 62.8406 95.3175 62.0463 97.6324C61.2521 99.9473 60.9195 102.928 60.9195 102.928C60.9195 102.928 60.9194 107.639 60.1252 109.159C59.3309 110.687 58.2922 113.273 55.6243 113.273C52.9564 113.273 50.2409 112.275 50.2409 112.275C50.2409 112.275 47.5187 115.195 44.2058 115.595C40.8862 115.996 33.5342 118.059 28.2866 112.676C23.039 107.293 14.302 94.2313 11.2404 86.5738C8.1787 78.9162 4.54679 73.9266 3.01257 67.7014C1.48513 61.4763 0.860531 50.7638 2.28614 46.8061C3.71175 42.8483 12.4487 32.8758 24.4374 28.7619C36.4329 24.648 45.6654 23.8538 49.4467 23.8538H55.217L51.3068 57.2809L51.2932 57.2945Z" fill="white"/>
<path d="M71.8559 94.7474C71.6251 96.0712 70.8852 97.0351 69.799 97.6325C69.4867 97.809 69.1473 97.9516 68.7807 98.067C67.1718 98.5762 65.9702 97.8634 64.9519 96.7093C63.92 95.5349 63.1393 94.116 61.6323 93.4372C61.8631 93.9395 62.0871 94.4419 62.3179 94.951C62.9832 96.4581 63.2208 98.0127 62.5351 99.5741C62.0328 100.728 61.9038 101.855 62.0396 103.118C62.2093 104.686 62.2839 106.322 60.6818 107.422C60.4171 107.605 60.3831 108.189 60.3288 108.603C59.6839 113.402 54.3888 115.235 51.1439 113.321C50.4514 112.914 49.9898 112.968 49.4331 113.47C48.8425 114 48.1433 114.407 47.5663 114.95C46.2968 116.145 44.749 116.627 43.0586 116.77C40.1599 117.014 37.234 116.933 34.4574 116.179C30.7576 115.174 27.5263 113.131 25.1774 110.09C21.2061 104.944 17.3977 99.6691 14.1323 94.0346C13.372 92.7244 12.6389 91.3938 11.9532 90.0361C9.54327 85.2773 7.15361 80.4913 4.75723 75.7189C2.88357 71.9852 1.97394 68.0002 1.66846 63.866C1.37655 59.9082 1.07785 55.9504 0.81988 51.9927C0.616222 48.9174 1.62089 46.1409 3.22979 43.5952C5.25958 40.3841 7.8325 37.6755 10.901 35.4217C18.3616 29.9229 26.6573 26.4743 35.7744 24.7771C42.6242 23.5009 49.4942 22.9374 56.4322 23.1886C57.0703 23.209 57.7017 23.2497 58.333 23.304C58.333 23.3312 58.3194 23.3651 58.3126 23.3923C58.2447 23.8675 58.1701 24.3359 58.0954 24.8111C54.9251 24.8518 51.7549 24.7568 48.6049 24.9468C41.0356 25.4085 33.5071 26.1688 26.2908 28.7417C20.5137 30.8054 15.2728 33.8264 10.5208 37.6687C7.8664 39.8139 5.6058 42.3596 3.99011 45.4077C3.09401 47.0913 2.53055 48.8563 2.54413 50.7911C2.57129 56.4935 2.61881 62.2163 3.99011 67.7898C4.63503 70.4374 5.5651 73.0577 6.65128 75.5627C8.14477 79.0046 9.8555 82.3514 11.573 85.6846C13.0597 88.5697 14.6822 91.387 16.2504 94.2382C18.2259 97.8633 20.6087 101.217 23.2698 104.38C25.5983 107.143 27.8657 109.934 30.7237 112.208C33.0318 114.034 35.5097 115.12 38.4559 115.079C39.7593 115.059 41.056 115.039 42.3594 115.093C44.4299 115.181 46.2017 114.462 47.6884 113.097C48.9172 111.977 50.0034 110.714 51.1982 109.56C52.0128 108.773 52.9089 108.067 53.7711 107.333C54.2463 106.926 54.7282 106.532 55.2645 106.084C56.1946 106.553 56.0384 107.354 55.7533 108.087C55.5021 108.725 55.2917 109.492 54.2056 108.99C53.934 108.861 53.2008 109.418 52.8613 109.818C52.3793 110.388 52.0671 111.108 51.6733 111.78C54.8436 113.375 58.0411 111.821 58.5774 108.63C58.8286 107.096 58.6589 105.616 58.0886 104.184C56.5612 100.382 53.1329 100.592 50.8655 102.371C50.2545 102.853 49.8472 103.586 49.2634 104.116C49.0122 104.346 48.5438 104.36 48.1773 104.469C48.1773 104.089 48.0075 103.613 48.1773 103.349C49.5757 101.183 51.4222 99.5605 54.1512 99.642C56.7173 99.7234 58.3737 101.298 59.4802 103.511C59.6975 103.932 59.8808 104.374 60.2406 105.175C60.7566 102.839 60.0776 101.108 59.0593 99.5605C57.1382 96.6414 53.2008 95.1751 49.9219 98.1077C49.4603 98.5218 48.924 99.2618 48.3062 98.6305C47.6613 97.9788 48.2112 97.2931 48.7611 96.784C51.1574 94.5641 55.1627 93.892 58.0207 96.4309C58.9847 97.2863 59.9419 98.1621 60.8448 98.9699C61.5983 96.6686 61.2725 95.1818 59.3717 93.668C56.3372 91.258 54.7894 91.1969 51.653 92.8602C50.9674 93.22 50.1323 93.9735 49.5757 93.0774C49.0054 92.1541 50.0509 91.7196 50.7298 91.3463C52.5967 90.3076 54.5382 89.6016 56.7241 90.2329C57.0635 90.3348 57.4505 90.3348 57.8035 90.294C60.1048 90.0089 61.8699 90.9254 63.343 92.6225C64.1916 93.6069 65.1013 94.5369 66.011 95.467C66.9682 96.4581 67.9593 96.6821 68.8961 96.1662C69.1269 96.0372 69.3441 95.8811 69.5206 95.7113C70.1655 95.08 70.4439 94.1703 70.0637 93.2131C69.9212 92.8466 69.7718 92.4664 69.5953 92.0998C69.2015 91.1901 68.7128 90.3144 68.0407 89.7034C65.0402 86.9948 61.6255 85.0057 57.3758 85.1211C53.9475 85.2162 50.8384 86.1869 48.1569 88.3864C46.7041 89.5812 45.1699 90.681 43.8053 91.9641C42.3933 93.281 40.7776 93.1656 39.128 92.9212C38.7885 92.8737 38.3541 92.4732 38.2251 92.1405C36.752 88.2235 34.7629 84.5509 32.7671 80.8918C29.8072 75.4609 28.4971 69.5888 27.7367 63.5401C27.5127 61.7547 27.4109 59.9489 27.2819 58.15C27.2479 57.7223 27.1936 57.2403 27.343 56.8669C27.4719 56.5411 27.8793 56.3374 28.1644 56.0726C28.4156 56.3713 28.8636 56.6565 28.8908 56.9755C28.9587 57.7359 28.8296 58.5166 28.7685 59.5213C30.0788 59.0936 31.1649 58.7338 32.2511 58.3876C37.6616 56.6497 43.1808 55.6993 48.8764 56.0591C51.1438 56.2016 53.4112 56.3849 55.6786 56.5682C55.7194 57.2946 55.8077 57.8309 55.9842 58.2246C51.7005 58.0889 47.4237 57.9327 43.1401 57.9056C38.6189 57.8716 34.3013 59.1004 30.0652 60.6007C29.2234 60.8926 28.9315 61.4017 29.0469 62.2231C29.2845 63.8592 29.4067 65.5292 29.78 67.1381C31.3346 73.7706 33.4527 80.1926 37.2272 85.9697C38.0962 87.2935 38.7342 88.7666 39.6303 90.0768C40.6079 91.516 41.2393 91.5431 42.6377 90.4162C44.2127 89.1468 45.7334 87.8094 47.3355 86.5807C50.3428 84.2794 53.7235 82.6772 57.5523 83.037C62.4061 83.4986 66.554 85.4198 69.6293 89.106C70.0366 89.5948 70.4235 90.1107 70.7901 90.6606C71.6115 91.8894 72.1207 93.281 71.8559 94.7542V94.7474Z" fill="black"/>
<path d="M166.903 132.512C166.903 132.512 152.973 114.672 150.258 113.606C147.535 112.547 142.627 111.149 137.984 111.379C133.34 111.617 132.078 110.551 130.292 112.011C128.5 113.47 128.038 114.998 128.038 114.998C128.038 114.998 124.787 115.263 123.992 114.93C123.198 114.597 119.682 107.171 118.222 106.77C116.763 106.369 115.303 107.367 115.371 109.092C115.439 110.816 115.371 112.554 115.371 112.554C115.371 112.554 112.588 110.755 110.795 112.079C109.003 113.402 108.738 114.461 109.139 115.358C109.539 116.254 110.137 117.469 110.137 117.469C110.137 117.469 109.281 118.888 108.983 119.594C108.677 120.3 110.802 122.642 110.802 122.642C110.802 122.642 107.754 123.945 108.148 125.208C108.548 126.471 110.87 129.716 113.782 129.587C116.701 129.451 132.424 126.538 134.012 127.462C135.601 128.392 136.932 129.919 138.126 133.565C139.321 137.21 144.358 155.981 164.127 158.105C183.895 160.23 186.482 129.648 186.278 129.648C186.074 129.648 166.91 132.499 166.91 132.499L166.903 132.512Z" fill="white"/>
<path d="M109.689 122.845C107.415 119.974 107.388 119.295 109.492 117.421C109.275 116.953 109.01 116.464 108.806 115.948C107.666 113.083 109.37 110.843 112.459 111.162C113.165 111.237 113.864 111.42 114.76 111.59C114.794 110.884 114.794 110.266 114.869 109.648C114.957 108.942 114.998 108.189 115.269 107.544C115.928 105.928 117.38 105.372 118.765 106.41C119.824 107.205 120.652 108.365 121.42 109.472C122.234 110.653 122.9 111.95 123.538 113.24C124.21 114.591 125.309 114.828 126.62 114.577C126.918 114.516 127.332 114.312 127.441 114.061C128.758 111.047 131.528 110.497 134.27 110.341C138.893 110.083 143.496 110.449 147.983 111.8C150.305 112.5 152.186 113.81 153.55 115.724C157.42 121.162 162.09 125.894 166.51 130.856C166.937 131.338 167.365 131.847 167.677 132.404C167.806 132.628 167.677 133.069 167.535 133.334C167.474 133.443 166.978 133.449 166.801 133.327C166.157 132.879 165.464 132.431 164.955 131.847C162.925 129.505 160.923 127.129 158.967 124.726C156.734 121.983 154.623 119.132 152.321 116.451C150.509 114.339 147.99 113.409 145.288 112.968C144.793 112.887 144.29 112.812 143.788 112.771C140.625 112.54 137.461 112.181 134.291 112.16C132.919 112.153 131.474 112.69 130.197 113.274C129.05 113.796 128.975 114.72 129.966 115.493C130.72 116.084 131.698 116.552 132.641 116.715C135.051 117.143 137.495 117.367 139.925 117.686C140.618 117.774 141.609 117.686 141.622 118.623C141.629 119.641 140.631 119.431 139.946 119.465C139.443 119.492 138.914 119.533 138.432 119.431C136.504 119.017 134.746 119.587 132.96 120.198C128.724 121.637 124.481 123.083 120.008 123.531C117.862 123.748 115.683 123.64 113.524 123.762C112.452 123.823 111.359 123.952 110.341 124.271C109.22 124.617 108.956 125.547 109.648 126.498C110.537 127.72 111.732 128.541 113.314 128.46C115.9 128.331 118.5 128.242 121.067 127.896C124.563 127.428 128.005 126.593 131.507 126.199C132.831 126.05 134.338 126.484 135.581 127.061C136.28 127.38 136.694 128.48 137.067 129.301C139.267 134.087 140.95 139.091 143.632 143.666C147.013 149.443 151.778 153.598 157.922 156.069C165.756 159.219 174.201 156.198 178.729 149.946C181.662 145.893 183.725 141.528 184.411 136.538C184.771 133.904 185.273 131.291 185.606 128.65C185.993 125.595 185.063 122.764 183.719 120.096C180.698 114.102 177.589 108.155 174.473 102.208C173.807 100.939 172.904 99.7846 172.192 98.5355C172.022 98.2436 172.164 97.7751 172.158 97.3882C172.538 97.49 173.094 97.4628 173.278 97.7072C174.092 98.8002 174.968 99.9067 175.518 101.135C177.059 104.584 179.184 107.68 181.112 110.898C182.293 112.866 183.271 114.984 184.119 117.116C185.389 120.327 186.95 123.49 187.133 127.007C187.242 129.077 187.276 131.209 186.896 133.232C186.264 136.626 185.443 140 184.398 143.286C183.155 147.196 180.847 150.577 177.962 153.449C172.232 159.137 164.1 160.536 156.72 157.427C149.117 154.222 143.686 148.778 140.455 141.154C138.907 137.495 137.23 133.891 135.737 130.218C135.126 128.718 134.182 128.175 132.621 128.113C129.552 127.984 126.626 128.853 123.626 129.206C120.625 129.566 117.638 130.014 114.631 130.259C112.764 130.415 111.06 129.688 109.648 128.466C107.421 126.538 106.831 124.875 109.702 122.805L109.689 122.845ZM131.942 118.799C130.727 118.148 129.81 117.835 129.131 117.252C127.502 115.84 125.547 116.294 123.823 116.485C122.818 116.593 121.868 116.858 120.944 116.444C119.173 115.656 117.475 114.692 115.704 113.905C114.468 113.355 113.185 112.832 111.868 112.574C110.87 112.377 110.022 113.403 109.94 114.495C109.865 115.466 110.666 116.783 111.488 116.763C113.219 116.715 114.719 117.428 116.287 117.958C117.889 118.501 119.512 118.738 121.175 118.195C121.929 117.951 122.696 117.74 123.476 117.618C123.741 117.578 124.054 117.849 124.345 117.978C124.21 118.27 124.149 118.664 123.918 118.84C123.585 119.091 123.144 119.227 122.737 119.349C120.238 120.103 117.767 120.103 115.31 119.139C114.441 118.799 113.552 118.453 112.642 118.25C111.495 117.992 109.607 118.793 109.417 119.512C109.214 120.273 110.415 121.82 111.576 122.241C111.909 122.357 112.282 122.384 112.635 122.384C116.036 122.404 119.431 122.234 122.737 121.379C125.696 120.612 128.629 119.723 131.935 118.786L131.942 118.799ZM123.144 115.364C121.929 113.212 120.829 111.203 119.661 109.228C119.342 108.684 118.887 108.175 118.392 107.782C117.625 107.171 117.088 107.313 116.62 108.114C115.894 109.35 116.186 112.344 117.299 113.179C118.962 114.441 120.863 115.235 123.144 115.358V115.364Z" fill="black"/>
<path d="M127.523 100.558C127.231 100.267 126.626 100.022 126.253 100.117C125.14 100.416 124.081 100.871 123.008 101.305C121.745 101.814 120.496 102.371 118.915 103.043C118.724 101.808 118.582 100.898 118.446 99.9814C118.27 98.8477 118.188 97.6869 117.889 96.5871C117.767 96.1526 117.211 95.6842 116.749 95.5348C116.084 95.3176 115.71 95.9082 115.527 96.4785C115.276 97.2252 115.093 97.9991 114.889 98.7662C114.57 99.9814 114.264 101.203 113.952 102.419C112.71 102.106 111.467 101.794 110.225 101.468C109.322 101.237 108.433 100.925 107.516 100.782C107.157 100.721 106.498 100.925 106.403 101.169C106.254 101.57 106.308 102.208 106.552 102.547C106.967 103.111 107.564 103.573 108.155 103.973C109.377 104.815 110.639 105.596 112.017 106.492C111.576 107.293 111.216 107.985 110.829 108.664C110.184 109.791 109.492 110.891 108.928 112.052C108.793 112.337 108.962 112.893 109.186 113.172C109.309 113.335 109.872 113.301 110.144 113.172C110.66 112.921 111.121 112.567 111.576 112.214C112.608 111.42 113.599 110.585 114.651 109.818C115.968 108.861 116.267 108.786 117.509 109.777C118.745 110.755 119.797 111.95 120.958 113.022C121.623 113.633 122.35 114.706 123.307 114.054C124.23 113.409 123.619 112.316 123.212 111.495C122.662 110.402 122.037 109.343 121.392 108.304C120.958 107.612 121.094 107.171 121.745 106.682C123.076 105.697 124.379 104.666 125.635 103.593C126.287 103.03 126.871 102.371 127.38 101.679C127.584 101.4 127.699 100.721 127.523 100.565V100.558ZM111.447 103.844C111.447 103.844 111.393 103.79 111.366 103.769C111.23 103.729 111.108 103.681 110.979 103.634C111.04 103.613 111.114 103.566 111.142 103.586C111.223 103.64 111.298 103.702 111.366 103.769C111.4 103.79 111.44 103.797 111.474 103.81C111.495 103.831 111.522 103.851 111.542 103.871C111.508 103.858 111.481 103.851 111.447 103.844ZM111.902 109.913C111.902 109.913 111.854 109.934 111.834 109.94C111.8 109.995 111.766 110.042 111.732 110.09C111.732 110.056 111.732 110.001 111.752 109.988C111.773 109.974 111.807 109.954 111.834 109.94C111.848 109.92 111.854 109.9 111.875 109.879C111.895 109.866 111.915 109.852 111.936 109.845C111.922 109.866 111.915 109.886 111.902 109.906V109.913Z" fill="#FFCF33"/>
<path d="M107.7 6.28491C106.627 6.87552 105.541 7.43898 104.428 7.94812C102.432 8.84422 102.608 8.58625 102.71 10.8333C102.758 11.9127 102.887 12.9853 102.948 14.0647C102.975 14.4855 103.009 14.9472 102.887 15.3409C102.513 16.5289 101.414 16.8616 100.579 15.9451C99.6213 14.8929 98.8474 13.6573 97.9377 12.4218C97.1163 12.9717 96.227 13.5759 95.3309 14.1597C94.91 14.438 94.4891 14.7639 94.0207 14.9065C93.6609 15.0219 93.0839 15.0354 92.8599 14.825C92.6155 14.5942 92.5408 14.0239 92.6291 13.6506C92.7377 13.1821 93.0635 12.7545 93.3418 12.3404C93.9257 11.4511 94.5434 10.5889 95.2087 9.61812C93.8985 8.76954 92.6969 7.99563 91.5021 7.20815C91.0813 6.92981 90.6061 6.69901 90.2735 6.32564C89.9748 5.99299 89.5606 5.26662 89.6896 5.12406C90.0018 4.7439 90.5721 4.43161 91.0745 4.39088C91.6922 4.32978 92.344 4.58097 92.9821 4.67601C95.1228 4.98828 96.5778 4.1465 97.3471 2.15064C97.5779 1.54646 97.8223 0.935469 98.1889 0.419534C98.637 -0.19823 99.3294 -0.109975 99.5738 0.528154C99.8929 1.36994 100.035 2.32036 100.083 3.23683C100.219 5.87081 100.259 5.91833 102.866 5.14442C104.176 4.75747 105.494 4.3841 106.804 4.00394C107.537 3.78671 108.318 3.71202 108.657 4.56059C108.99 5.40917 108.358 5.91833 107.7 6.27134V6.28491Z" fill="#FFCF33"/>
<path d="M98.7185 36.2023C98.7185 36.2023 95.908 33.6769 93.016 34.2811C90.1308 34.8853 86.5804 40.1125 88.9022 44.2943C91.2239 48.4761 93.8103 48.802 93.8103 48.802C93.8103 48.802 90.8233 60.1525 101.176 67.8101C111.529 75.4677 122.404 71.1229 123.992 70.2404C125.581 69.3647 130.089 66.5746 130.089 66.5746C130.089 66.5746 136.321 70.0707 139.98 68.5636C143.632 67.0566 143.842 60.2068 143.842 60.2068L116.586 38.429L107.272 43.0249L101.631 42.1627L98.7117 36.1955L98.7185 36.2023Z" fill="white"/>
<path d="M173.644 43.249C173.095 39.3387 170.712 36.9491 167.263 35.4285C166.584 35.1298 165.865 34.9058 165.07 34.6138C167.236 32.3736 169.32 30.1877 168.614 26.9495C167.915 23.7588 165.226 22.5573 162.165 21.7019C162.735 21.1656 163.061 20.8873 163.36 20.575C166 17.8527 165.376 14.8182 161.792 13.4537C159.062 12.4151 156.218 12.0078 153.292 12.4151C151.025 12.7341 148.757 13.0668 146.415 13.4062C146.524 13.1686 146.592 12.9853 146.694 12.8224C148.214 10.2291 147.359 8.47089 144.365 8.28081C143.007 8.19255 141.602 8.24007 140.272 8.50482C133.415 9.8897 126.952 12.2725 121.223 16.4C119.756 17.4522 118.277 18.4977 116.742 19.4413C113.497 21.4507 110.205 23.3923 106.939 25.3745C106.58 25.5918 106.03 25.8158 105.948 26.1281C105.697 27.1192 104.788 27.3568 104.19 27.9406C102.602 29.502 101.027 31.0838 99.4856 32.6927C98.9968 33.2018 98.6235 33.8331 98.1618 34.4577C97.5577 34.2133 97.0417 33.9757 96.4986 33.7992C92.6223 32.5094 89.0108 34.4916 87.9517 38.4426C86.8384 42.5837 87.7413 46.0187 91.3664 48.5237C92.1811 49.0872 92.4594 49.7389 92.3915 50.7164C92.2965 52.0809 92.2353 53.4726 92.3508 54.8303C92.4322 55.774 92.5544 56.7447 92.7988 57.6612C93.3826 59.8132 94.4213 61.8226 95.6364 63.6827C96.2678 64.6534 97.0009 65.5428 97.6798 66.4796C98.2636 67.2807 98.9357 67.6269 99.791 68.1089C100.069 68.265 100.341 68.4483 100.606 68.6248C101.875 69.4734 103.097 70.3559 104.475 70.994C105.887 71.6525 107.374 72.1549 108.888 72.535C114.577 73.9471 120.062 72.9627 125.337 70.5595C125.859 70.3219 126.314 69.9486 126.803 69.6363C127.767 69.0117 128.751 68.4211 129.681 67.7423C130.252 67.3282 130.645 67.4368 131.229 67.7626C132.478 68.4687 133.761 69.1679 135.119 69.6295C138.982 70.9465 144.053 68.9099 144.277 64.9929C144.331 64.09 144.915 63.7913 145.702 63.6895C148.35 63.35 150.991 62.9835 153.638 62.6576C156.666 62.2842 159.626 61.7479 162.151 59.8403C164.969 57.7087 165.389 56.1405 163.787 52.9635C164.215 52.8616 164.609 52.7462 165.016 52.6851C167.121 52.3525 169.069 51.6329 170.739 50.282C172.972 48.4762 174.059 46.1816 173.651 43.249H173.644ZM120.035 37.6755C119.238 38.4041 118.645 38.196 118.256 37.051C118.874 37.2682 119.363 37.4379 120.035 37.6755ZM116.817 31.9595C116.817 31.9595 116.885 32.1903 116.939 32.3736C116.749 32.4347 116.559 32.5229 116.369 32.5229C116.321 32.5229 116.274 32.231 116.226 32.0817C116.423 32.0342 116.62 31.9731 116.817 31.9595ZM111.814 38.5716C111.868 38.4087 112.058 38.2865 112.336 37.9878C112.717 38.5173 113.049 38.9586 113.341 39.427C113.362 39.4541 113.076 39.7867 112.92 39.7935C112.377 39.8275 111.671 39.0332 111.814 38.5716ZM104.72 43.0317C104.862 43.215 104.971 43.3508 105.079 43.4865C104.923 43.5952 104.767 43.7717 104.604 43.7852C104.489 43.792 104.36 43.568 104.238 43.4526C104.38 43.3304 104.523 43.2082 104.726 43.0317H104.72ZM93.7696 44.5592C93.4098 45.3942 93.1315 46.2631 92.8056 47.1524C88.9836 44.2605 88.8411 40.452 89.9408 37.981C90.9184 35.7815 92.9821 34.8243 95.2699 35.4828C96.4172 35.8154 96.8245 36.3585 96.6276 37.5533C96.4579 38.5987 96.2135 39.6578 95.1002 40.3502C94.7132 39.8003 94.3941 39.2301 93.9529 38.7752C93.756 38.5716 93.2604 38.4494 93.0092 38.5512C92.7581 38.6531 92.4458 39.1418 92.5069 39.3659C92.7716 40.3231 93.0093 41.3481 93.5524 42.156C94.1226 43.0046 94.1293 43.7038 93.7628 44.5592H93.7696ZM125.228 69.0864C120.462 71.5371 115.391 72.3653 110.117 71.4285C108.671 71.1705 107.231 70.4713 105.955 69.6974C103.213 68.041 100.266 66.4864 98.2433 63.9542C97.707 63.2889 97.2114 62.5897 96.7091 61.8973C96.2135 61.2184 95.5278 60.5395 95.1545 59.7996C94.4349 58.3808 94.2652 56.6429 94.1498 55.0815C93.9868 52.9024 94.2312 50.7029 94.6996 48.5712C94.9304 47.5258 95.3989 46.8876 96.614 47.037C97.2522 47.1185 97.9717 47.1796 98.5556 46.9759C100.701 46.2224 101.977 47.5054 103.185 48.8767C103.919 49.7185 104.496 50.7028 105.195 51.7008C105.607 50.7911 104.869 48.9582 102.982 46.202C107.713 44.437 112.547 42.9027 116.226 39.2165C116.05 40.7643 115.948 42.3325 115.67 43.8599C115.154 46.6161 115.602 49.318 115.941 52.0334C116.063 53.011 116.24 53.9818 116.416 55.1426C115.466 55.1426 114.685 55.1222 113.905 55.1494C113.477 55.163 112.988 55.1562 112.656 55.3666C112.343 55.5567 112.194 56.0251 111.977 56.3645C112.303 56.575 112.608 56.8941 112.961 56.9687C114.292 57.2539 115.656 57.3828 116.959 57.7426C117.516 57.892 118.12 58.3604 118.439 58.8492C120.476 61.9855 123.049 64.5584 126.165 66.6154C126.457 66.8122 126.728 67.043 127.237 67.43C126.518 68.0342 125.961 68.7063 125.242 69.0796L125.228 69.0864ZM129.837 65.4749L129.349 65.2441C129.708 64.5448 130.068 63.8388 130.428 63.1396C130.557 63.2007 130.693 63.2686 130.822 63.3297C130.496 64.0425 130.163 64.7553 129.837 65.4681V65.4749ZM132.492 30.8122C132.567 30.9005 132.634 30.9887 132.743 31.1177C132.634 31.2603 132.512 31.4096 132.397 31.559C132.281 31.4436 132.166 31.3349 132.051 31.2195C132.2 31.0838 132.342 30.948 132.492 30.8122ZM139.016 67.4232C136.321 68.2039 133.931 67.559 131.487 66.1673C131.928 65.0608 132.512 64.7349 133.564 64.8299C135.119 64.9657 136.701 64.8843 138.269 64.8096C138.595 64.796 138.894 64.3955 139.213 64.1715C138.853 63.9135 138.507 63.4587 138.133 63.4383C136.714 63.35 135.289 63.4044 133.822 63.4044C135.017 60.3223 136.361 59.9082 138.717 60.0168C139.423 60.0508 140.265 60.4445 140.774 60.9401C143.021 63.1396 142.016 66.5611 139.016 67.43V67.4232ZM144.256 39.0604C144.08 38.9925 143.958 38.9518 143.836 38.9042C143.971 38.7481 144.087 38.5648 144.25 38.4494C144.304 38.4087 144.474 38.5376 144.596 38.5852C144.48 38.7481 144.358 38.911 144.25 39.0604H144.256ZM148.594 36.9152C148.493 36.9287 148.37 36.8337 148.214 36.7726C148.425 36.664 148.601 36.5622 148.791 36.4875C148.812 36.4807 148.9 36.6436 148.961 36.7319C148.839 36.7998 148.723 36.9016 148.601 36.9152H148.594ZM155.315 37.7366C155.24 37.7502 154.996 37.4311 155.016 37.2886C155.139 36.44 155.315 35.605 155.478 34.7632C155.573 34.7564 155.661 34.7428 155.756 34.736C155.838 35.6253 155.946 36.5147 155.974 37.4107C155.974 37.5262 155.56 37.6959 155.315 37.7434V37.7366ZM160.312 26.7526C160.196 26.7323 160.04 26.7526 159.965 26.6915C159.483 26.2367 159.639 25.8701 160.461 25.3813C160.393 25.9855 160.352 26.3725 160.312 26.7526ZM162.104 16.0538C162.212 15.9995 162.375 15.8705 162.423 15.9044C162.586 16.013 162.701 16.176 162.844 16.3321C162.694 16.4 162.518 16.5358 162.47 16.495C162.321 16.3796 162.219 16.2031 162.097 16.0538H162.104ZM162.565 51.0491C162.47 51.0151 162.382 50.988 162.287 50.9608L162.66 49.7864C162.762 49.8203 162.864 49.8543 162.973 49.8882C162.837 50.2752 162.701 50.6621 162.565 51.0491ZM164.473 25.7954C164.229 25.5035 164.147 25.4492 164.154 25.4017C164.188 25.0215 164.235 24.6414 164.283 24.2612C164.473 24.3427 164.84 24.4513 164.833 24.492C164.765 24.879 164.636 25.2523 164.473 25.7886V25.7954ZM168.784 49.6167C169.076 48.5644 169.252 47.9331 169.422 47.3018C169.721 47.4715 170.019 47.6412 170.596 47.9603C169.965 48.5373 169.551 48.9174 168.784 49.6167Z" fill="black"/>
<path d="M108.134 67.8103C106.41 67.6405 104.998 67.335 104.02 66.147C103.762 65.828 103.83 65.2374 103.749 64.7757C104.197 64.7554 104.733 64.5585 105.073 64.735C106.356 65.4139 107.584 66.1131 109.132 65.7805C109.343 65.7329 109.797 65.9569 109.818 66.0995C109.865 66.4118 109.818 66.9142 109.614 67.0635C109.112 67.4301 108.501 67.6338 108.134 67.8103Z" fill="black"/>
<path d="M117.353 65.054C117.095 65.1966 116.715 65.5767 116.328 65.5903C115.249 65.6175 114.21 64.8436 114.23 64.1851C114.251 63.4519 114.875 62.9292 115.683 62.9563C116.572 62.9903 117.441 63.9339 117.353 65.054Z" fill="black"/>
<path d="M99.6213 54.9797C98.5012 55.0205 97.7069 54.2466 97.8767 53.4455C97.9989 52.8888 98.3519 52.21 98.8067 51.9316C99.2887 51.6465 100.721 53.1468 100.524 53.7714C100.355 54.2941 99.8385 54.7014 99.6213 54.9797Z" fill="black"/>
</svg>
