<svg width="164" height="169" viewBox="0 0 164 169" fill="none" xmlns="http://www.w3.org/2000/svg">
<g clip-path="url(#clip0_404_3298)">
<path d="M68.359 143.087C68.3242 142.727 68.1966 142.368 68.1096 142.008C67.0364 137.332 65.8878 132.668 64.9132 127.97C64.1069 124.06 63.4862 120.104 62.8539 116.159C62.3492 112.997 61.9083 109.83 61.5138 106.657C61.2644 104.702 61.1774 102.724 60.9743 100.769C60.7539 98.6631 59.8896 97.8916 57.8244 98.0772C55.2488 98.3034 52.6905 98.6399 50.1149 98.9299C47.3014 99.249 44.488 99.5622 41.6745 99.8929C39.1685 100.183 36.6624 100.479 34.1622 100.815C31.3603 101.198 28.5643 101.668 25.7624 102.051C23.1403 102.411 20.5009 102.631 17.8905 103.054C14.0618 103.669 10.2564 104.412 6.43932 105.102C5.1747 105.334 3.88108 105.485 2.64547 105.856C1.056 106.326 0.551319 107.08 0.510712 108.699C0.458503 110.915 0.394693 113.125 0.4353 115.341C0.510712 119.657 0.713747 123.973 0.748553 128.289C0.777557 132.535 0.667339 136.787 0.626732 141.033C0.174255 143.273 1.15462 145.257 1.71732 147.328C2.04797 148.546 2.8079 149.091 4.07832 149.294C7.11223 149.776 10.0997 149.445 13.093 148.992C15.7093 148.592 18.3139 148.128 20.9302 147.705C25.687 146.927 30.496 146.817 35.2934 146.666C42.0167 146.457 48.7459 146.347 55.4692 146.179C56.5714 146.15 57.6852 146.098 58.7874 145.993C61.4732 145.75 64.1649 145.552 66.8391 145.181C68.1154 145.001 68.4634 144.34 68.3532 143.081L68.359 143.087ZM62.2912 121.56C62.6218 122.731 62.732 123.967 62.9525 125.174C63.1671 126.34 63.0047 126.693 61.9141 126.856C59.06 127.274 56.2001 127.627 53.3403 128.016C51.1533 128.312 48.9721 128.637 46.7851 128.938C46.1354 129.025 45.4857 129.078 44.691 129.159C44.4416 126.055 44.1979 123.132 43.9427 120.022C49.6856 118.92 55.4576 118.224 61.2412 117.627C62.2216 118.845 61.9315 120.289 62.2912 121.56ZM61.276 116.037C55.4634 116.919 49.8191 117.772 43.9659 118.665C43.5888 115.457 43.2175 112.261 42.8405 109.012C43.0957 108.902 43.3104 108.786 43.5366 108.728C46.9186 107.84 50.2831 106.866 53.6941 106.117C55.7129 105.682 57.807 105.618 60.0462 105.363C60.4697 109.047 60.8641 112.481 61.2702 116.037H61.276ZM29.9391 110.665C32.741 110.236 35.5428 109.795 38.3447 109.36C38.6522 109.308 38.9538 109.244 39.2613 109.221C41.4134 109.029 41.396 109.047 41.6049 111.158C41.8079 113.241 42.1328 115.306 42.3068 117.394C42.4286 118.903 42.359 118.943 40.7869 119.152C37.0105 119.663 33.2225 120.133 29.446 120.631C27.1198 120.939 24.8052 121.252 22.4906 121.606C20.1064 121.966 19.9324 121.826 19.7758 119.494C19.6191 117.168 19.3987 114.842 19.1899 112.313C22.8851 111.75 26.4121 111.211 29.9391 110.665ZM21.197 122.929C22.363 122.818 23.5232 122.673 24.6834 122.546C27.7985 122.192 30.9079 121.861 34.023 121.496C36.8133 121.165 39.6093 120.805 42.6316 120.428C42.7941 123.137 42.9797 125.765 43.1015 128.405C43.1537 129.478 42.9681 129.646 41.8601 129.826C35.6241 130.847 29.3822 131.856 23.1461 132.871C22.6125 132.959 22.0904 133.063 21.4407 133.179C21.0288 130.093 20.6401 127.117 20.2282 124.141C20.118 123.358 20.4313 122.998 21.2028 122.929H21.197ZM2.02477 117.545C2.04217 116.89 2.2104 116.205 2.44824 115.59C2.57006 115.271 2.98193 114.9 3.31259 114.836C6.51473 114.285 9.72267 113.792 12.9364 113.293C14.5665 113.038 16.2024 112.8 17.8673 112.551C18.0993 114.825 18.3313 117.058 18.5518 119.291C18.6098 119.906 18.6214 120.521 18.6562 121.136C18.691 121.722 18.4706 122.047 17.8382 122.105C15.2046 122.337 12.5768 122.633 9.94311 122.842C7.85476 123.004 5.7664 123.079 3.67805 123.172C3.19657 123.195 2.72089 123.137 2.00737 123.108C2.00737 121.113 1.97256 119.326 2.02477 117.539V117.545ZM18.9056 123.311C19.2769 126.705 19.6307 129.983 20.002 133.347C14.1488 134.374 8.35944 134.855 2.44824 135.441C2.28001 131.816 2.12339 128.399 1.96096 124.837C7.78514 124.315 13.2845 123.816 18.9056 123.311ZM21.6611 146.138C16.9333 146.492 12.2461 147.055 7.58211 147.931C4.05511 148.592 3.29518 148.018 2.32642 144.589C1.68831 142.333 1.94355 140.071 2.14079 137.802C2.2162 136.95 2.65127 136.636 3.57943 136.555C8.66109 136.114 13.7312 135.575 18.807 135.064C19.1667 135.029 19.5205 134.919 20.0368 134.815C21.0694 138.522 20.5009 142.408 22.6879 145.755C22.2934 145.906 21.9859 146.115 21.6611 146.138ZM45.886 144.885C38.629 145.17 31.3777 145.442 24.1207 145.726C23.9815 145.129 24.0279 144.526 23.7436 144.247C22.7865 143.278 22.7459 142.008 22.508 140.825C22.1658 139.137 21.9743 137.425 21.7365 135.726C21.6031 134.768 21.7887 134.6 22.7981 134.432C28.3728 133.492 33.9476 132.535 39.5223 131.589C40.7289 131.386 41.9413 131.207 43.2523 131.004C43.4438 132.518 43.6642 133.898 43.7802 135.291C43.9949 137.762 44.4416 140.163 45.5611 142.408C45.944 143.174 46.2805 143.98 45.886 144.891V144.885ZM47.8699 144.775C46.1818 140.274 44.749 135.772 44.9462 130.754C46.3095 130.522 47.8641 130.226 49.4188 130C53.0618 129.472 56.7164 128.996 60.3536 128.451C61.3688 128.3 62.355 127.975 63.3934 127.72C64.3447 132.709 65.5455 137.773 66.027 142.977C60.0462 144.833 53.9494 144.781 47.8641 144.775H47.8699Z" fill="black"/>
<path d="M159.672 1.97806C158.118 6.98431 156.621 12.008 155.124 17.0316C154.527 19.0387 153.976 21.0633 153.401 23.0704C153.297 23.4243 153.216 23.7956 153.042 24.1204C152.589 24.9674 151.87 25.0428 151.307 24.2712C150.878 23.6795 150.565 22.9892 150.188 22.3569C148.923 20.2395 147.287 18.5283 145.019 17.4609C144.468 17.1998 144.056 17.1418 143.488 17.4783C131.839 24.3466 120.162 31.157 108.525 38.0312C94.7013 46.1989 81.098 54.7206 67.6281 63.4685C64.3157 65.6206 61.0324 67.825 57.691 69.9308C56.554 70.6501 55.3126 71.2534 54.0422 71.6885C50.8922 72.7732 47.7249 73.8174 44.517 74.7108C40.99 75.6911 37.6602 77.1298 34.3652 78.6728C31.7954 79.8736 29.185 80.999 26.5571 82.0548C22.4442 83.6965 22.16 83.9169 21.6727 88.2271C20.1818 101.459 16.9275 114.268 12.5652 126.821C10.8713 131.717 8.96854 136.538 7.25725 141.422C6.47992 143.626 5.90562 145.9 5.29072 148.157C4.97167 149.311 4.89045 149.439 3.67805 149.485C2.99933 149.514 2.32062 149.543 1.6419 149.52C0.626731 149.48 0.284473 149.097 0.504911 148.116C0.771756 146.916 1.15462 145.738 1.47948 144.549C4.02611 135.093 6.64815 125.649 9.08456 116.165C10.6682 110.021 11.8806 103.791 13.4469 97.6479C14.6013 93.1115 16.0921 88.6563 17.3742 84.149C17.8673 82.4087 18.952 81.3355 20.5067 80.4886C30.0609 75.2851 40.0212 70.9575 50.0859 66.862C50.8168 66.5662 51.5187 66.1427 52.1453 65.6554C61.4674 58.4332 71.0971 51.6229 80.9007 45.0678C91.6267 37.8977 102.324 30.6813 113.131 23.6331C117.569 20.7384 122.25 18.2092 126.827 15.5176C127.245 15.2739 127.668 15.0361 128.359 14.6416C125.156 14.2355 122.244 13.8701 119.338 13.4872C118.671 13.4002 117.981 13.3132 117.348 13.1043C116.264 12.7389 116.089 11.6831 117 10.987C117.488 10.6157 118.056 10.3141 118.625 10.1168C122.169 8.86383 125.673 7.45419 129.298 6.47382C136.201 4.6117 143.163 2.98163 150.112 1.30515C152.027 0.846868 153.976 0.522013 155.913 0.191357C156.76 0.0463321 157.636 -0.0290807 158.495 0.00572521C159.933 0.069536 160.113 0.545217 159.666 1.97226L159.672 1.97806Z" fill="#068611"/>
<path d="M106.912 119.181C108.044 120.98 102.944 110.776 111.617 103.321C120.289 95.8671 123.805 94.4691 126.467 94.2893C129.13 94.1094 139.444 97.1143 139.444 97.1143C139.444 97.1143 134.397 104.197 134.513 108.339C134.629 112.481 136.213 122.964 136.213 122.964C136.213 122.964 145.849 121.09 144.491 129.71C143.134 138.325 135.424 134.188 135.424 134.188L128.335 136.515L106.918 119.187L106.912 119.181Z" fill="white"/>
<path d="M61.6299 60.9567C59.4023 60.9567 59.0774 63.9616 60.4407 68.498C61.7981 73.0343 62.3086 76.3177 61.6299 78.9281C60.9511 81.5328 58.3755 88.7318 59.9998 91.6265C61.6299 94.5154 70.865 105.537 71.7178 106.773C72.5705 108.008 96.7722 137.535 97.1087 137.367C97.4509 137.199 113.844 122.232 113.949 121.896C114.059 121.56 85.8257 89.3061 84.4103 88.2851C82.9949 87.2642 75.9641 78.9339 76.4746 77.5707C76.9851 76.2133 81.9739 62.9464 81.2894 59.3788C80.6107 55.8054 80.3264 53.9955 79.3054 54.332C78.2845 54.6742 77.0373 57.0526 77.0373 57.0526C77.0373 57.0526 75.9061 53.6301 74.1484 54.2914C72.3907 54.9527 71.5437 56.4841 71.5437 56.4841C71.5437 56.4841 69.1073 54.6684 68.0863 55.4052C67.0654 56.1419 66.3867 57.5051 66.6709 59.7675C66.9552 62.0357 67.1234 66.398 67.1234 66.398L66.2184 70.0236C66.2184 70.0236 62.4188 60.9567 61.6299 60.9567Z" fill="white"/>
<path d="M119.866 30.9715C118.735 32.6364 119.628 35.2816 120.765 37.2655C121.896 39.2495 125.243 48.9429 125.301 50.9849C125.359 53.0268 125.098 91.6265 125.255 91.7948C125.412 91.963 138.905 95.635 138.905 95.7858C138.905 95.9367 146.898 102.962 146.898 102.962C146.898 102.962 142.82 78.0232 142.82 73.3186C142.82 68.614 141.968 52.2321 142.2 51.3851C142.432 50.5382 144.068 47.191 145.036 46.9068C145.999 46.6225 155.304 44.7372 154.898 43.2231C154.492 41.7033 150.762 41.071 149.23 41.3552C147.699 41.6395 146.568 41.5815 146.568 41.5815C146.568 41.5815 154.602 36.1808 154.086 34.3244C153.57 32.4681 150.588 32.0563 150.588 32.0563C150.588 32.0563 152.856 29.3936 151.441 28.5989C150.025 27.8041 147.983 27.7461 147.983 27.7461C147.983 27.7461 148.099 25.7622 146.736 25.5359C145.373 25.3097 141.805 25.9884 140.332 28.0304C138.858 30.0723 129.281 37.4976 129.281 37.4976C129.281 37.4976 127.819 37.805 127.807 36.5346C127.796 35.2642 123.956 31.0353 122.592 30.9251C121.235 30.809 120.214 30.49 119.883 30.9831L119.866 30.9715Z" fill="white"/>
<path d="M59.0136 87.1481C60.1158 83.8763 60.9917 80.5349 61.0846 77.0834C61.1658 74.3105 60.6727 71.5492 59.8548 68.8866C59.2398 66.891 59.2224 64.8723 59.3385 62.8361C59.4139 61.5541 60.2318 60.6318 61.305 60.4519C62.4942 60.2547 63.3411 60.8232 63.9154 61.8094C64.2229 62.3373 64.4491 62.9174 64.6464 63.4975C65.0582 64.7157 65.4179 65.9455 66.085 67.1405C66.085 65.609 66.0502 64.0776 66.0966 62.5519C66.1488 60.887 66.3286 59.2279 66.3518 57.563C66.3867 55.0628 68.7361 53.6532 70.894 55.0918C71.0855 55.2195 71.2769 55.3471 71.4567 55.4631C73.5509 53.0267 74.479 53.0731 76.6428 55.7299C76.811 55.4631 76.9502 55.2078 77.1243 54.9816C78.3773 53.3573 79.8739 53.3921 81.0225 55.1034C82.1247 56.7451 82.1595 58.6188 81.9275 60.4693C81.185 66.3573 79.8333 72.1061 77.8784 77.7157C77.716 78.1739 77.7392 78.8469 77.9654 79.2645C78.6035 80.4537 79.2764 81.6661 80.1524 82.6813C81.7245 84.5028 83.4821 86.1619 85.118 87.9254C86.3768 89.2828 87.6995 90.6054 88.761 92.1137C91.8008 96.4354 95.641 100.032 99.1332 103.948C101.106 106.158 103.089 108.356 105.073 110.555C105.474 110.996 105.88 111.431 106.309 111.895C106.483 111.704 106.616 111.622 106.634 111.524C107.562 106.506 110.561 102.834 114.332 99.6724C115.051 99.0691 115.585 98.4484 115.927 97.5144C117.099 94.2949 119.674 92.5546 122.801 91.5568C125.029 90.8433 125.029 90.8955 124.942 88.6215C124.803 85.0481 124.658 81.4747 124.571 77.8955C124.454 73.0227 124.286 68.144 124.327 63.2712C124.356 59.3904 124.681 55.5153 124.832 51.6344C124.855 51.1008 124.721 50.5323 124.547 50.016C123.143 45.8045 121.722 41.5987 120.284 37.3988C120.063 36.7607 119.709 36.1748 119.425 35.5541C119.193 35.0494 118.903 34.5622 118.758 34.0285C118.085 31.5514 119.976 29.5791 122.511 30.1128C124.518 30.5363 125.905 31.8357 126.966 33.489C127.564 34.4171 128.034 35.4381 128.538 36.4243C128.857 37.045 129.298 37.219 129.884 36.8303C130.395 36.4881 130.894 36.1168 131.352 35.7108C134.647 32.8161 137.924 29.904 141.219 27.0093C141.776 26.522 142.345 26.0405 142.96 25.6344C143.522 25.2632 144.12 24.9209 144.752 24.6889C146.98 23.8651 148.093 24.4859 148.645 26.8527C149.323 27.0209 150.043 27.1543 150.733 27.3747C152.833 28.0361 153.256 28.9642 152.415 30.9771C152.322 31.1976 152.235 31.418 152.119 31.7081C152.508 31.8763 152.844 32.0155 153.175 32.1664C154.991 32.9959 155.478 34.1851 154.347 35.8442C153.529 37.0392 152.375 38.0195 151.278 38.9941C150.605 39.5916 149.758 39.9919 149.027 40.775C149.724 40.775 150.431 40.688 151.11 40.7924C152.195 40.9606 153.326 41.0999 154.324 41.5175C155.791 42.1324 155.989 43.6059 154.736 44.6037C153.836 45.3172 152.769 45.9437 151.678 46.2685C150.159 46.721 148.552 46.9298 146.968 47.0865C146.162 47.1677 145.622 47.3765 145.112 48.0378C143.749 49.8071 142.559 51.501 143.192 53.9896C143.598 55.5791 143.534 57.2962 143.621 58.9553C143.766 61.7281 143.865 64.501 143.975 67.2739C144.102 70.3484 144.114 73.4345 144.387 76.4975C144.659 79.5604 145.199 82.5943 145.611 85.6456C146.063 88.9986 146.521 92.3515 146.939 95.7045C147.229 98.0191 147.455 100.345 147.728 102.66C147.74 102.747 147.89 102.811 148.053 102.962C148.326 102.492 148.511 101.941 148.888 101.616C149.196 101.349 149.764 101.204 150.159 101.279C150.356 101.32 150.565 101.981 150.542 102.347C150.507 102.875 150.257 103.385 150.077 103.977C150.953 103.901 151.737 103.739 152.502 103.791C153.401 103.849 153.691 104.568 153.088 105.189C152.63 105.665 152.044 106.053 151.452 106.355C151.278 106.442 150.808 106.187 150.617 105.966C150.269 105.566 150.315 105.526 149.492 105.984C150.367 107.666 151.22 109.372 152.137 111.042C153.616 113.746 155.107 116.443 156.65 119.106C158.007 121.455 159.359 123.816 160.879 126.061C162.114 127.883 163.06 129.774 163.466 131.937C163.727 133.318 163.478 134.646 163.031 135.934C162.677 136.967 161.917 137.541 160.803 137.582C160.444 137.593 160.09 137.582 159.614 137.582C159.945 139.27 160.218 140.825 160.548 142.362C161.227 145.506 161.18 148.633 160.194 151.69C159.823 152.844 159.284 154.016 158.547 154.962C156.975 156.974 154.927 156.98 153.169 155.147C152.961 154.933 152.786 154.683 152.67 154.544C151.47 155.466 150.304 156.342 149.161 157.253C148.94 157.427 148.801 157.723 148.656 157.984C148.389 158.471 148.198 158.999 147.89 159.463C146.98 160.844 146.533 160.913 145.077 159.985C144.973 160.037 144.833 160.066 144.775 160.153C143.453 162.039 142.432 162.091 141.115 160.246C140.691 159.655 140.332 158.97 140.135 158.274C139.386 155.605 138.62 152.937 138.035 150.228C137.251 146.614 135.558 143.551 132.976 140.935C131.932 139.879 130.911 138.806 129.907 137.715C128.736 136.445 128.77 135.905 130.238 134.937C131.358 134.2 132.582 133.614 133.811 132.935C133.336 132.343 132.814 131.81 132.454 131.189C132.286 130.893 132.263 130.302 132.454 130.052C132.82 129.571 133.208 129.988 133.521 130.284C134.015 130.754 134.438 131.323 135.001 131.676C136.19 132.431 137.396 133.202 138.69 133.724C140.407 134.409 141.608 133.991 142.786 132.587C144.404 130.644 144.949 126.264 141.654 124.071C139.839 122.859 137.646 123.021 135.877 124.593C135.25 125.15 134.705 125.794 133.951 126.583C133.376 124.634 135.006 124.1 135.592 123.097C134.525 119.529 133.579 115.991 133.423 112.243C133.318 109.783 131.828 108.037 129.484 107.127C128.875 106.889 128.272 106.657 127.587 106.39C129.194 104.922 131.224 105.647 133.748 108.501C134.467 106.57 135.041 104.65 135.894 102.857C136.758 101.036 137.901 99.3417 138.928 97.5782C135.679 95.1128 128.051 94.3181 123.225 96.5282C123.55 97.671 123.921 98.7732 124.17 99.8986C124.286 100.426 124.222 101.012 124.124 101.552C124.077 101.79 123.741 101.97 123.538 102.178C123.3 101.941 122.935 101.743 122.853 101.459C122.726 100.995 122.813 100.479 122.772 99.9856C122.732 99.4983 122.714 98.9879 122.558 98.5354C122.117 97.2766 121.537 97.0445 120.33 97.6536C115.347 100.189 111.362 103.75 108.943 108.884C108.682 109.441 108.508 110.033 108.287 110.613C107.585 112.452 107.806 114.053 109.244 115.526C111.362 117.684 113.386 119.935 115.451 122.145C115.707 122.418 116.06 122.633 116.205 122.952C116.356 123.282 116.31 123.706 116.356 124.089C115.956 124.071 115.434 124.199 115.185 124.002C114.57 123.503 114.077 122.853 113.537 122.261C110.109 118.456 106.692 114.639 103.258 110.833C100.45 107.718 97.5785 104.65 94.8231 101.494C91.5745 97.7755 88.442 93.9584 85.205 90.2284C82.8614 87.5251 80.4192 84.9089 78.0466 82.2288C77.5593 81.6777 77.1417 81.0512 76.7588 80.4247C76.0453 79.2645 75.9293 78.1217 76.3992 76.7411C77.687 72.9472 78.8298 69.107 79.9145 65.2494C80.5643 62.9232 80.7615 60.4983 80.5411 58.0909C80.4656 57.273 80.106 56.4377 79.6941 55.7125C79.3519 55.1092 78.6673 55.1382 78.3657 55.7705C77.977 56.5827 77.6696 57.4876 77.5826 58.381C77.4781 59.4774 77.6116 60.6028 77.6986 61.7108C77.9364 64.7215 77.1765 67.5813 76.4282 70.4412C76.3585 70.7023 75.9525 70.8763 75.703 71.0909C75.5696 70.7777 75.2796 70.4412 75.3318 70.1628C75.5812 68.7067 75.9235 67.2623 76.2135 65.812C76.7936 62.8941 76.2947 60.0459 75.6508 57.2092C75.5986 56.9713 75.4826 56.7451 75.3724 56.5247C74.8677 55.5153 74.3224 55.1266 73.7423 55.3413C73.0172 55.6081 72.2747 56.7799 72.4545 57.5746C73.3072 61.2177 72.4081 64.8201 72.2224 68.4399C72.1876 69.1128 72.118 69.8031 71.9556 70.4528C71.8048 71.0677 71.5089 71.6478 71.2769 72.2395C71.1261 72.2221 70.9694 72.2047 70.8186 72.1931C70.749 71.758 70.5518 71.294 70.6272 70.8821C71.2189 67.709 71.2363 64.4952 71.2943 61.2873C71.3059 60.4867 71.3233 59.6746 71.2363 58.8799C71.1783 58.3404 71.0274 57.7835 70.7838 57.302C70.4125 56.5653 69.873 55.9214 68.9159 56.0664C68.0515 56.1998 67.9819 56.9713 67.8659 57.6269C67.7383 58.352 67.6745 59.0887 67.6339 59.8196C67.4946 62.4649 67.3844 65.1101 67.2394 67.7612C67.2104 68.2485 67.0886 68.7299 66.9668 69.2056C66.6999 70.2788 66.3577 71.3172 66.7173 72.4658C66.8855 73.0111 66.9319 73.916 66.1488 73.9914C65.2961 74.0726 65.4237 73.1793 65.3831 72.5992C65.151 69.4319 64.3563 66.4037 63.1207 63.4916C62.8423 62.8419 62.645 61.9254 61.6995 62.0298C60.6959 62.1458 60.7597 63.2074 60.7539 63.8107C60.7365 65.2087 60.8873 66.6358 61.1948 67.999C61.8851 71.0735 62.6682 74.1423 62.3376 77.3154C62.0881 79.7634 61.5834 82.1824 61.1716 84.6072C61.0265 85.4542 60.6901 86.2895 60.6727 87.1365C60.6495 88.227 60.7017 89.364 60.9917 90.4024C62.0417 94.173 64.0779 97.3926 66.9319 100.044C70.6272 103.478 73.371 107.655 76.3701 111.646C78.5165 114.5 80.8949 117.209 83.4415 119.709C85.8838 122.111 87.9199 124.802 90.0257 127.459C92.8623 131.038 95.6526 134.652 98.4603 138.249C98.8025 138.684 99.1738 139.102 99.4987 139.554C100.201 140.529 100.189 140.534 99.2318 141.782C98.2631 141.358 97.8628 140.413 97.3523 139.606C95.2349 136.265 92.9784 133.028 90.3795 130.041C89.4456 128.967 88.5348 127.871 87.5196 126.879C83.0065 122.453 79.2996 117.36 75.384 112.429C71.3523 107.353 67.2104 102.37 63.1149 97.3462C62.4594 96.5398 61.7459 95.7799 61.1078 94.9678C59.8954 93.4247 59.4661 91.5626 59.0368 89.7063V87.1132L59.0136 87.1481ZM140.935 147.925L141.039 147.861L140.964 147.954C140.923 147.977 140.871 147.989 140.836 148.018C140.813 148.035 140.807 148.07 140.796 148.099C140.842 148.041 140.889 147.983 140.935 147.925ZM137.228 143.853C137.257 143.806 137.286 143.76 137.315 143.708C137.292 143.766 137.275 143.818 137.251 143.876C137.217 143.911 137.188 143.951 137.153 143.986C137.176 143.94 137.199 143.893 137.222 143.847L137.228 143.853ZM158.361 140.511C158.39 140.476 158.425 140.442 158.454 140.407C158.431 140.447 158.408 140.488 158.384 140.534L158.309 140.592L158.361 140.511ZM157.624 130.505C157.746 130.383 157.874 130.255 157.996 130.133C158.118 130.012 158.239 129.884 158.367 129.762C158.489 129.64 158.616 129.518 158.738 129.397L159.11 129.031C159.545 128.695 160.049 128.399 159.811 127.651C159.585 128.12 159.365 128.59 159.139 129.06C159.017 129.182 158.889 129.304 158.767 129.426C158.645 129.547 158.518 129.669 158.396 129.791C158.274 129.913 158.147 130.041 158.025 130.162C157.897 130.284 157.775 130.406 157.648 130.528L157.572 130.592L157.63 130.505H157.624ZM126.427 90.7041C127.187 90.7389 127.738 90.8085 128.283 90.7911C130.546 90.7099 132.721 91.1913 134.774 92.0499C138.644 93.6626 141.765 96.4064 144.955 99.0343C145.28 99.3011 145.582 99.5912 146.052 100.015C145.425 95.3738 144.851 90.9883 144.242 86.6028C143.673 82.5189 143.064 78.4408 142.478 74.3627C142.327 73.3243 142.107 72.2917 142.043 71.2534C141.805 67.5001 141.649 63.7527 141.933 59.9821C142.124 57.4122 141.84 54.8076 141.701 52.2203C141.649 51.2342 141.875 50.393 142.443 49.6215C143.209 48.5773 143.998 47.5448 144.77 46.5064C145.123 46.0307 145.512 45.8857 146.162 45.8567C148.262 45.7755 150.344 45.4506 152.235 44.447C152.85 44.1222 153.384 43.6523 154.231 43.049C152.531 42.2311 151.145 41.8888 149.642 42.086C148.36 42.2601 147.09 42.5385 145.802 42.6371C145.21 42.6835 144.311 43.3274 144.021 42.3877C143.766 41.5697 144.717 41.3667 145.274 41.0419C147.183 39.9107 149.161 38.8781 150.988 37.6251C151.922 36.9812 152.682 36.0182 153.326 35.061C153.842 34.2953 153.425 33.5818 152.508 33.4484C151.365 33.2859 150.344 33.3149 149.288 34.1619C147.177 35.8616 144.886 37.335 142.646 38.8665C142.269 39.1217 141.718 39.4814 141.353 38.8839C141.051 38.385 141.33 37.9383 141.794 37.6309C142.101 37.4278 142.42 37.2364 142.722 37.0218C144.636 35.6643 146.585 34.3533 148.442 32.9263C149.358 32.2186 150.147 31.3252 150.907 30.4435C151.127 30.1882 151.226 29.5733 151.069 29.2891C150.652 28.5175 148.389 28.3261 147.687 28.941C145.129 31.1628 142.577 33.402 140.007 35.6179C139.589 35.9776 139.131 36.3025 138.655 36.5693C138.499 36.6563 138.139 36.5867 138.011 36.4533C137.884 36.3199 137.826 35.9428 137.924 35.8094C138.313 35.2641 138.725 34.713 139.224 34.2779C140.952 32.7813 142.739 31.3658 144.462 29.8634C145.292 29.1382 146.069 28.3319 146.777 27.485C146.997 27.2239 147.096 26.58 146.927 26.348C146.742 26.0869 146.115 25.9071 145.796 26.0173C144.886 26.3422 143.928 26.7018 143.174 27.2877C141.469 28.6161 139.879 30.078 138.243 31.4934C136.236 33.2337 134.264 35.0088 132.228 36.7143C131.387 37.4162 130.366 37.8977 129.525 38.5996C128.562 39.406 128.428 39.464 127.836 38.385C127.268 37.3582 126.792 36.285 126.253 35.2467C125.522 33.8544 124.553 32.6652 123.138 31.9227C122.128 31.3948 120.968 31.4876 120.376 32.1315C119.663 32.9089 120.179 33.6746 120.539 34.3417C122.151 37.364 122.877 40.688 123.892 43.9133C124.449 45.6768 125.093 47.4113 125.626 49.1748C125.887 50.045 126.166 50.9615 126.154 51.8549C126.114 54.5639 125.882 57.273 125.818 59.9821C125.649 66.833 125.615 73.6782 126.131 80.5233C126.299 82.7335 126.154 84.9669 126.201 87.1887C126.224 88.3373 126.346 89.4859 126.433 90.6983L126.427 90.7041ZM136.323 120.469C136.602 120.022 136.834 119.639 137.106 119.204C136.182 119.162 135.921 119.583 136.323 120.469ZM142.194 112.249C141.678 112.759 140.755 112.933 140.86 113.954C141.382 113.45 142.171 113.16 142.194 112.249ZM141.596 156.905C141.451 156.858 141.33 156.783 141.272 156.812C141.179 156.864 141.092 156.98 141.08 157.085C141.074 157.148 141.202 157.23 141.266 157.305C141.37 157.178 141.475 157.05 141.591 156.905H141.596ZM142.559 120.214C142.6 120.127 142.652 120.051 142.675 119.97C142.687 119.924 142.664 119.866 142.658 119.813C142.606 119.842 142.501 119.871 142.501 119.895C142.501 119.993 142.536 120.098 142.559 120.214ZM125.243 94.3935C125.296 94.4051 125.354 94.4167 125.406 94.4341C125.371 94.3877 125.33 94.3413 125.296 94.2949C125.278 94.3297 125.261 94.3587 125.243 94.3935ZM138.075 115.816C138.035 115.805 137.988 115.787 137.942 115.776C137.936 115.834 137.924 115.892 137.919 115.944C137.965 115.933 138.017 115.933 138.058 115.915C138.075 115.904 138.069 115.851 138.075 115.816Z" fill="black"/>
<path d="M134.374 127.024C136.439 127.401 138.371 127.732 140.297 128.109C140.709 128.19 141.19 128.329 141.457 128.614C141.741 128.921 141.805 129.432 141.968 129.855C141.579 129.89 141.167 130.023 140.813 129.936C138.853 129.455 136.909 128.921 134.954 128.411C134.774 128.364 134.566 128.399 134.409 128.318C134.009 128.109 133.632 127.859 133.243 127.627C133.626 127.419 134.015 127.21 134.368 127.018L134.374 127.024Z" fill="black"/>
<path d="M120.62 113.368C120.249 113.531 119.901 113.838 119.634 113.78C117.546 113.31 115.666 112.429 114.227 110.77C114.106 110.63 113.943 110.456 113.949 110.306C113.955 110.091 114.065 109.842 114.204 109.679C114.274 109.598 114.61 109.598 114.68 109.679C116.176 111.477 118.352 112.081 120.376 112.957C120.423 112.974 120.44 113.055 120.62 113.368Z" fill="black"/>
<path d="M129.53 112.261C129.554 112.922 129.223 113.305 128.579 113.38C127.883 113.461 127.164 112.91 127.135 112.284C127.1 111.622 127.425 111.257 128.098 111.199C128.91 111.135 129.49 111.559 129.53 112.255V112.261Z" fill="black"/>
<path d="M119.756 102.26C119.129 102.695 118.665 103.054 118.155 103.321C118.097 103.35 117.609 102.857 117.586 102.579C117.54 101.97 118.23 101.343 118.793 101.465C119.083 101.529 119.309 101.877 119.756 102.254V102.26Z" fill="black"/>
<path d="M97.1783 137.64C96.546 139.85 99.2724 141.55 99.2724 141.55C99.2724 141.55 109.192 136.845 112.818 133.162C116.443 129.478 118.004 126.415 117.65 125.568C117.296 124.721 114.39 122.053 114.28 122.337C114.164 122.621 97.5147 136.451 97.1783 137.64Z" fill="white"/>
<path d="M143.557 165.74C143.041 162.851 141.886 160.211 140.657 157.584C139.978 156.139 139.334 154.648 138.951 153.105C137.373 146.742 134.589 141.051 129.873 136.427C125.998 132.628 122.192 128.747 117.899 125.4C115.405 123.451 115.196 123.393 112.986 125.551C110.608 127.877 108.305 130.307 105.816 132.518C103.235 134.809 100.485 136.915 97.7816 139.061C97.1319 139.577 96.7606 140.169 96.9404 140.958C97.2363 142.292 97.741 143.557 98.82 144.462C101.581 146.765 103.989 149.387 106.164 152.241C106.947 153.279 107.115 154.341 106.779 155.542C105.7 159.307 105.735 163.222 105.317 167.068C105.201 168.112 105.555 168.304 106.64 168.037C107.469 167.828 108.328 167.544 109.163 167.585C111.988 167.73 114.802 168.072 117.633 168.211C123.544 168.513 129.461 168.733 135.378 168.988C135.378 168.948 135.378 168.907 135.378 168.867C136.236 168.867 137.101 168.867 137.959 168.867C139.131 168.855 140.314 168.93 141.469 168.785C144.027 168.466 144.027 168.35 143.557 165.734V165.74ZM98.762 140.569C104.708 136.016 110.318 131.218 115.243 125.44C116.2 126.224 116.913 126.798 117.714 127.448C117.302 127.871 116.971 128.207 116.652 128.555C114.239 131.114 111.82 133.66 109.436 136.248C108.247 137.535 106.878 138.545 105.294 139.299C103.461 140.169 101.662 141.115 99.7771 142.06C99.4349 141.561 99.1332 141.12 98.762 140.569Z" fill="#E76100"/>
<path d="M80.222 27.2704C80.106 27.2298 79.9784 27.2298 79.8565 27.2182C77.2287 26.8412 74.6067 26.4931 71.9846 26.0812C69.5018 25.6926 67.0306 25.2343 64.3679 24.776C64.5826 23.8421 64.7392 23.1865 64.89 22.5368C65.7428 18.8822 66.6129 15.2276 67.4424 11.5672C67.5759 10.9813 67.6107 10.3316 67.5005 9.74567C67.367 9.02635 66.5839 8.85232 66.085 9.39761C65.7602 9.75147 65.5165 10.2039 65.2845 10.6332C62.9003 15.0304 60.5161 19.4217 58.1551 23.8305C57.1051 25.7854 56.7628 25.9826 54.6513 25.3735C51.9248 24.5904 49.2158 23.7492 46.5009 22.9429C46.0832 22.8211 45.6772 22.6006 45.2595 22.589C44.952 22.5716 44.4706 22.7515 44.3777 22.9719C44.2849 23.1981 44.4938 23.6448 44.7026 23.8885C44.9346 24.1611 45.2885 24.3351 45.6191 24.5092C46.936 25.1879 48.2528 25.8608 49.5812 26.5163C51.8378 27.6243 54.0944 28.7149 56.467 29.8751C56.1827 30.4726 55.9623 31.0353 55.649 31.5516C54.0944 34.1446 52.4933 36.7144 50.9445 39.3075C50.5268 40.0036 49.616 40.7693 50.4398 41.5815C51.1997 42.3298 52.093 41.6917 52.7776 41.1812C54.4598 39.9282 56.0957 38.623 57.7432 37.3177C58.2131 36.9465 58.6598 36.5404 59.3037 35.9893C59.6227 37.5034 59.8083 38.7796 60.1564 40.0152C60.7771 42.208 61.4558 44.3833 62.1926 46.5355C62.442 47.2548 62.7088 48.241 63.7298 48.1192C64.6522 48.0089 64.629 47.0518 64.7624 46.3499C64.9944 45.0795 65.1395 43.7916 65.3657 42.5212C65.9574 39.1857 66.5375 35.8443 67.1988 32.5203C67.5063 30.9889 67.7325 30.8438 69.2814 30.6582C70.749 30.4842 72.2341 30.4146 73.7017 30.2115C75.8945 29.9041 78.0814 29.527 80.2742 29.179C80.8253 29.0919 81.5214 28.9991 81.5388 28.332C81.562 27.5547 80.7789 27.4909 80.2162 27.2936L80.222 27.2704ZM52.2845 26.2611C52.3367 26.2495 52.3947 26.2437 52.4469 26.2321C52.4643 26.2669 52.4759 26.2959 52.4991 26.3307C52.4237 26.3075 52.3541 26.2843 52.2845 26.2611ZM53.8681 26.8586C53.7115 26.818 53.5491 26.7774 53.3925 26.7367C53.5607 26.7716 53.7231 26.8006 53.8914 26.8354C53.9146 26.8528 53.9436 26.8586 53.9726 26.876L53.8681 26.8586ZM53.1372 39.087C53.0154 39.2147 52.8878 39.3365 52.766 39.4699L52.6789 39.5395L52.737 39.4409C52.8646 39.3249 52.9922 39.1973 53.1198 39.0754C53.143 39.0754 53.1372 39.0754 53.1372 39.0928V39.087Z" fill="#FFCF33"/>
<path d="M103.031 73.8813C104.018 73.8813 105.01 73.8697 105.996 73.8813C106.535 73.8929 107.197 73.7885 107.313 74.56C107.452 75.465 106.674 75.5114 106.118 75.6506C105.166 75.8942 104.18 76.0103 103.223 76.2365C101.633 76.6078 101.361 76.8862 101.401 78.4989C101.454 80.4654 101.657 82.4319 101.738 84.3985C101.767 85.0946 102.098 86.0982 101.175 86.336C100.201 86.5854 99.7945 85.5935 99.5799 84.8741C98.9766 82.8148 98.4603 80.7206 97.9962 78.6207C97.7062 77.3039 97.7468 77.2633 96.488 77.6055C95.2988 77.9304 94.1212 78.3248 92.9204 78.5975C92.114 78.7773 91.0118 79.2646 90.571 78.319C90.1591 77.4489 91.2671 77.0196 91.853 76.5555C92.5723 75.9812 93.367 75.4824 94.1792 75.0415C95.0609 74.5658 95.5598 73.8987 95.7919 72.9183C96.0877 71.6595 96.488 70.4239 96.8882 69.1941C97.0565 68.672 97.2769 68.1441 97.5844 67.6916C97.9614 67.1348 98.6749 67.2334 98.8722 67.8831C99.0288 68.3878 99.0114 68.9679 98.9882 69.5132C98.9418 70.5573 98.8374 71.6015 98.7445 72.6457C98.6691 73.4926 98.9998 73.9219 99.8931 73.8987C100.943 73.8697 101.993 73.8929 103.043 73.8929C103.043 73.8871 103.043 73.8813 103.043 73.8755L103.031 73.8813ZM101.883 75.1343C100.433 74.9487 99.0752 75.3489 97.9382 74.4614C97.828 74.3744 97.5554 74.3628 97.4335 74.4382C96.0645 75.2619 94.7071 76.1089 93.3496 76.95C94.0167 77.0892 94.5504 76.9558 95.0725 76.805C95.6062 76.6484 96.1225 76.4395 96.6562 76.3003C98.1412 75.9058 98.6923 76.2307 99.0752 77.7099C99.3885 78.9281 99.6785 80.158 100.038 81.6314C100.392 79.224 99.2434 76.7238 101.883 75.1401V75.1343ZM97.0855 72.9067C97.1957 72.9473 97.3059 72.9879 97.4161 73.0227C97.4451 72.7153 97.4741 72.402 97.5031 72.0946C97.4509 72.0888 97.4045 72.083 97.3523 72.0772C97.2653 72.3556 97.1783 72.6341 97.0855 72.9067Z" fill="#29A6FF"/>
<path d="M14.7463 59.0829C13.7833 59.6108 12.9422 60.1213 12.0547 60.539C11.7762 60.6666 11.2889 60.6782 11.0627 60.5158C10.6218 60.1967 10.819 59.7442 11.1265 59.3904C12.1011 58.2766 13.0582 57.1396 14.0792 56.0664C14.7231 55.3877 14.9958 54.651 14.8971 53.7228C14.7695 52.4988 14.6477 51.2632 14.6593 50.0334C14.6651 49.2038 14.5781 47.9798 15.541 47.8116C16.591 47.626 16.6722 48.908 17.0203 49.6447C17.3277 50.3118 17.496 51.0428 17.7512 51.7389C18.3255 53.2935 18.3313 53.2935 19.8512 52.8295C21.2086 52.4176 22.566 51.9941 23.9235 51.5939C24.3933 51.4546 24.8748 51.3154 25.3563 51.2632C25.832 51.211 26.4875 51.124 26.5571 51.7679C26.5977 52.1623 26.2787 52.6438 26.0118 53.0093C25.803 53.2935 25.4433 53.485 25.1185 53.659C23.4362 54.564 21.7423 55.4515 20.0542 56.3391C19.7352 56.5073 19.4161 56.6581 18.9056 56.9076C19.4799 58.3288 20.0194 59.692 20.5705 61.0437C20.8954 61.8442 21.3072 62.6215 21.5277 63.4453C21.6089 63.7585 21.3594 64.2806 21.0926 64.5184C20.907 64.6809 20.3385 64.6461 20.1064 64.472C19.4625 64.008 18.8708 63.4511 18.3139 62.8826C17.1537 61.6876 16.0341 60.4578 14.7405 59.0771L14.7463 59.0829ZM22.3688 53.5604C21.4755 53.7576 20.5763 53.9433 19.6887 54.1579C18.0935 54.5466 17.7628 54.3957 17.1247 52.9339C16.8579 52.3248 16.5852 51.7215 16.2198 50.9035C15.6397 52.1043 15.5875 53.1949 15.8021 54.1695C16.0341 55.2253 15.7499 55.9388 15.0654 56.6407C14.7753 56.9424 14.5375 57.2904 14.1836 57.7371C16.1676 58.0329 17.0841 59.6804 18.6968 60.8696C18.3313 59.6978 18.0355 58.8451 17.7976 57.9691C17.3684 56.3739 17.5018 56.1186 18.952 55.3587C20.089 54.767 21.2144 54.1405 22.3398 53.5314C22.3688 53.5024 22.3978 53.4676 22.4268 53.4386C22.4036 53.4792 22.3862 53.514 22.363 53.5546L22.3688 53.5604Z" fill="#29A6FF"/>
</g>
<defs>
<clipPath id="clip0_404_3298">
<rect width="163.129" height="169" fill="white" transform="translate(0.435303)"/>
</clipPath>
</defs>
</svg>
