<svg width="160" height="169" viewBox="0 0 160 169" fill="none" xmlns="http://www.w3.org/2000/svg">
<path d="M111.948 138.731L105.922 127.377C105.922 127.377 97.6717 128.11 93.6265 119.262C89.5754 110.415 89.5044 110.894 89.5044 110.894C89.5044 110.894 81.9877 112.059 82.378 104.193C82.6797 98.1966 92.5324 100.077 92.5324 100.077C92.5324 100.077 95.726 90.8455 103.45 87.6223C111.174 84.3992 116.798 83.9497 116.798 83.9497C116.798 83.9497 117.17 93.7611 121.298 98.5633C125.42 103.371 129.548 106.742 129.548 106.742C129.548 106.742 127.011 112.97 127.532 112.97C128.052 112.97 139.105 107.221 139.277 114.147C139.449 121.072 132.405 122.693 131.731 122.219C131.056 121.746 128.431 120.244 128.431 120.244C128.431 120.244 124.379 128.867 124.379 129.092C124.379 129.316 111.96 138.743 111.96 138.743L111.948 138.731Z" fill="white"/>
<path d="M158.474 165.191C158.474 166.669 158.433 166.734 156.901 166.675C155.251 166.604 153.613 166.321 151.969 166.338C145.847 166.391 139.732 166.533 133.605 166.64C123.759 166.8 113.9 166.936 104.053 167.113C101.421 167.16 98.7954 167.326 96.1696 167.456C95.8206 167.474 95.4835 167.645 95.1405 167.74H88.5227C87.7479 167.639 86.9732 167.533 86.2044 167.426C83.8565 167.107 81.485 166.865 79.1549 166.433C77.5581 166.137 77.5877 166.031 78.3092 164.594C78.4689 164.28 78.4984 163.902 78.5812 163.553C79.7167 158.65 81.4554 153.96 83.6732 149.448C84.8205 147.118 86.2577 144.994 88.1383 143.208C90.705 140.76 93.2895 138.329 95.9803 136.023C98.4169 133.941 101.38 133.61 104.461 134C107.406 134.379 109.742 135.763 111.475 138.193C111.818 138.672 112.297 139.051 112.824 139.583C113.285 139.08 113.669 138.714 113.994 138.3C114.521 137.62 115.053 136.94 115.491 136.212C118.004 131.972 121.919 129.612 126.378 127.956C129.442 126.821 132.565 126.052 135.853 126.07C136.261 126.07 136.669 125.904 137.071 125.809H138.91C140.105 125.987 141.311 126.111 142.494 126.342C144.469 126.72 146.421 127.264 148.408 127.548C151.271 127.962 153.228 129.529 154.523 132.001C155.038 132.965 155.517 133.988 155.789 135.035C156.605 138.164 157.344 141.316 158.03 144.48C158.291 145.663 158.421 146.899 158.433 148.117C158.48 153.812 158.474 159.508 158.468 165.203L158.474 165.191Z" fill="#E76100"/>
<path d="M97.5358 168.225C98.1745 169.248 117.017 167.474 117.017 166.799C117.017 166.125 115.928 160.069 118.152 158.478C120.376 156.888 124.344 152.215 124.593 149.933C124.835 147.644 123.315 147.384 123.315 147.384L122.416 146.775C122.416 146.775 128.265 140.18 126.988 139.281C125.71 138.383 125.036 138.087 123.989 138.312C122.937 138.536 120.689 139.494 120.689 139.494C120.689 139.494 121.588 136.774 119.566 136.455C117.543 136.135 116.715 136.455 116.715 136.455C116.715 136.455 116.035 134.26 114.243 134.113C112.445 133.965 109.896 137.194 109.145 139.281C108.394 141.369 103.822 147.23 103.822 147.23C103.822 147.23 103.97 136.585 103.148 135.68C102.326 134.781 99.8895 133.805 99.4164 136.803C98.9492 139.802 98.6476 150.861 97.5239 152.848C96.4003 154.841 96.7492 160.046 96.8734 162.074C96.9976 164.097 97.0567 167.456 97.5358 168.225Z" fill="white"/>
<path d="M127.981 121.226C127.212 120.439 126.591 119.854 126.041 119.215C125.681 118.801 125.675 118.298 126.095 117.89C126.585 117.405 126.976 117.748 127.348 118.103C127.615 118.358 127.898 118.594 128.147 118.866C129.891 120.794 132.133 121.285 134.487 120.617C137.13 119.866 138.597 117.837 139.106 115.17C139.437 113.455 138.301 111.959 136.551 111.787C134.67 111.598 132.908 111.953 131.293 113.023C130.43 113.597 129.507 114.088 128.573 114.543C127.893 114.874 127.112 115.004 126.497 114.443C125.811 113.822 125.894 113.017 126.26 112.237C126.994 110.693 127.745 109.155 128.514 107.553C127.171 106.305 125.823 105.075 124.498 103.815C122.316 101.733 120.399 99.4208 118.939 96.7714C117.992 95.0622 116.703 94.0627 114.675 94.1396C114.391 94.1514 114.101 93.8439 113.811 93.6842C114.036 93.3708 114.196 92.874 114.491 92.7735C115.171 92.5428 115.911 92.5073 116.762 92.3654C116.691 91.8745 116.603 91.4191 116.567 90.9519C116.461 89.6213 116.372 88.2906 116.289 86.9599C116.26 86.5341 116.289 86.1024 116.242 85.6766C116.171 84.9669 115.798 84.5352 115.041 84.618C114.314 84.6949 113.586 84.7954 112.871 84.9255C109.08 85.6115 105.555 86.9126 102.533 89.3906C102.302 89.5799 102.084 89.775 101.764 90.0471C102.58 90.3901 103.32 90.6267 103.976 91.0051C104.431 91.2654 104.846 91.6794 105.129 92.1229C105.265 92.3358 105.147 92.8089 104.987 93.0692C104.922 93.1756 104.408 93.1283 104.177 93.0041C103.539 92.6611 102.983 92.1407 102.32 91.8627C100.753 91.2062 99.5642 91.4251 98.5175 92.7143C95.5664 96.3514 93.0647 100.296 91.5271 104.726C90.5335 107.576 90.841 110.545 91.9292 113.36C92.7927 115.584 93.8158 117.748 94.7502 119.943C95.525 121.77 96.8616 123.089 98.5411 124.065C101.942 126.034 105.656 127.057 109.535 127.311C111.209 127.418 112.942 127.199 114.556 126.442C116.159 125.685 117.827 125.076 119.471 124.408C119.808 124.272 120.163 124.076 120.512 124.082C120.825 124.082 121.269 124.248 121.405 124.485C121.541 124.727 121.476 125.218 121.304 125.46C121.026 125.845 120.63 126.194 120.21 126.407C117.75 127.654 115.219 128.772 112.463 129.109C111.103 129.275 109.689 129.044 108.146 128.991C108.678 131.014 110.316 132.646 110.724 134.958C111.221 134.686 111.576 134.497 111.925 134.29C112.244 134.107 112.534 133.87 112.859 133.71C114.805 132.764 116.094 133.296 117.023 135.408C119.855 135.153 120.896 135.834 121.357 138.105C122.812 137.992 124.244 137.75 125.669 137.815C127.467 137.892 128.348 139.264 127.567 140.878C126.858 142.345 125.829 143.664 124.876 145.006C124.421 145.645 123.824 146.183 123.268 146.792C125.302 147.508 125.746 148.324 125.219 150.4C124.799 152.056 123.806 153.375 122.641 154.575C121.446 155.805 120.24 157.029 119.004 158.218C117.868 159.306 117.295 160.554 117.531 162.169C117.714 163.434 117.779 164.718 117.88 165.995C117.939 166.729 117.543 167.284 116.928 167.326C116.271 167.373 115.84 167.001 115.745 166.403C115.207 163.103 115.278 159.916 117.78 157.296C119.217 155.788 120.713 154.339 122.174 152.848C123.28 151.725 123.835 150.353 124.119 148.75C122.54 148.312 121.458 148.963 120.535 149.885C119.761 150.666 119.104 151.559 118.4 152.411C117.691 153.268 117.04 154.108 117.188 155.362C117.271 156.042 117.135 156.06 116.011 156.355C115.68 154.309 116.124 152.624 117.614 151.027C120.281 148.158 122.741 145.101 125.261 142.097C125.651 141.635 125.97 141.085 126.195 140.529C126.485 139.808 126.213 139.364 125.48 139.122C123.966 138.625 121.488 139.796 120.636 141.204C118.897 144.084 117.046 146.899 115.236 149.743C115.136 149.897 115.024 150.104 114.876 150.146C114.61 150.222 114.284 150.276 114.042 150.181C113.9 150.122 113.752 149.732 113.811 149.56C113.994 149.051 114.231 148.549 114.527 148.093C115.733 146.248 117.017 144.45 118.164 142.57C118.826 141.481 119.364 140.299 119.808 139.104C120.198 138.051 119.731 137.182 118.832 136.886C117.732 136.525 116.733 136.969 116.36 138.057C115.479 140.642 114.119 142.942 112.439 145.077C111.688 146.029 111.108 147.118 110.428 148.129C110.263 148.377 110.073 148.679 109.825 148.779C109.589 148.874 109.216 148.809 108.985 148.673C108.832 148.584 108.701 148.229 108.755 148.04C108.861 147.638 109.039 147.23 109.281 146.887C110.127 145.686 111.002 144.504 111.883 143.327C113.285 141.446 114.515 139.471 115.071 137.17C115.231 136.508 115.331 135.443 114.976 135.142C114.302 134.568 113.445 135.183 112.871 135.715C112.061 136.455 111.274 137.247 110.641 138.14C108.873 140.642 107.17 143.185 105.484 145.746C105.165 146.23 105.076 146.863 104.834 147.401C104.698 147.697 104.455 147.946 104.266 148.218C103.97 147.969 103.491 147.774 103.402 147.472C103.13 146.538 102.923 145.574 102.858 144.604C102.799 143.699 103.03 142.777 103 141.86C102.959 140.281 102.888 138.69 102.687 137.123C102.61 136.49 102.261 135.78 101.427 135.733C100.54 135.68 100.091 136.265 99.9014 137.04C99.7535 137.626 99.6352 138.235 99.6175 138.838C99.582 140.186 99.5997 141.535 99.6234 142.883C99.7003 147.265 99.0379 151.547 97.9497 155.776C97.3938 157.94 97.2637 160.075 97.5831 162.305C97.8669 164.292 97.8078 166.326 98.411 168.284C98.4702 168.473 98.2218 168.81 98.0325 168.988C97.9675 169.047 97.5299 168.881 97.4471 168.722C97.1159 168.077 96.7137 167.415 96.5954 166.717C96.3588 165.333 96.282 163.925 96.1578 162.53C96.0691 161.554 95.9685 160.584 95.9389 159.608C95.9153 158.946 95.9686 158.271 96.0514 157.615C96.4417 154.581 96.8733 151.559 97.2518 148.525C97.376 147.537 97.382 146.621 96.1755 146.1C95.7083 145.899 95.4067 145.184 95.1642 144.64C94.8745 143.977 94.7384 143.25 94.5314 142.552C91.4443 143.723 90.3206 143.143 89.4572 139.914C89.2561 139.169 89.1615 138.394 88.9959 137.531C88.298 137.927 87.6889 138.335 87.0265 138.625C84.998 139.53 83.4485 138.619 83.277 136.419C83.1409 134.698 83.2711 132.995 83.8329 131.345C84.0222 130.789 84.1641 130.215 84.3711 129.494C83.2415 129.718 82.2952 129.902 81.3549 130.091C78.8474 130.582 77.3985 128.601 77.6232 126.602C77.8597 124.473 78.4984 122.509 79.6694 120.77C81.4081 118.18 83.2889 115.679 85.1104 113.141C85.4652 112.645 85.8378 112.166 86.1985 111.675C85.134 110.888 84.0163 110.255 83.1646 109.374C82.2657 108.44 81.899 107.162 81.8103 105.838C81.7275 104.525 81.9168 103.277 82.5851 102.118C84.3652 99.0128 88.3098 97.9246 92.2486 99.5746C92.5384 99.0128 92.84 98.4273 93.1416 97.8477C94.1707 95.902 95.0755 93.8735 96.2583 92.0224C99.9369 86.2621 105.283 83.24 112.078 82.6545C113.675 82.5185 115.236 82.6427 116.816 82.826C117.714 82.9325 118.643 82.7787 119.554 82.8438C122.919 83.0863 126.053 84.0029 128.685 86.1971C130.282 84.7067 130.501 84.8013 131.34 87.3325C132.02 87.2261 132.718 87.0427 133.416 87.0368C133.7 87.0368 134.061 87.3503 134.232 87.6223C134.303 87.7347 134.019 88.1605 133.807 88.3379C133.493 88.6041 133.103 88.7874 132.571 89.1067C133.262 89.7041 133.848 90.2068 134.439 90.7154C137.095 93.0041 139.36 95.5767 141.288 98.5633C144.789 103.986 147.285 109.948 150.697 115.401C152.087 117.624 153.69 119.712 155.162 121.882C156.718 124.171 158.054 126.578 158.651 129.31C159.042 131.085 158.226 132.421 156.54 133.095C154.506 133.906 152.702 133.332 150.839 132.179C150.756 132.486 150.697 132.741 150.62 132.995C149.981 135.112 148.651 135.893 146.569 135.165C145.499 134.793 144.546 134.077 143.423 133.456C143.316 133.77 143.18 134.201 143.015 134.627C142.435 136.117 141.583 136.762 140.052 136.419C138.78 136.129 137.597 135.449 136.184 134.87C136.072 135.077 135.835 135.532 135.581 135.976C135.09 136.821 134.658 137.714 134.073 138.495C132.73 140.293 131.382 140.163 130.542 138.116C130.104 137.058 129.951 135.881 129.673 134.757C129.614 134.527 129.59 134.29 129.537 133.971C129.146 134.166 128.821 134.325 128.496 134.491C127.053 135.248 125.639 135.207 124.374 134.154C123.126 133.113 122.795 131.694 123.155 130.156C123.351 129.328 123.658 128.506 124.054 127.755C124.859 126.247 125.752 124.78 126.633 123.308C127.07 122.574 127.567 121.876 128.005 121.214L127.981 121.226ZM131.867 90.7863C131.855 90.739 131.849 90.6858 131.819 90.6444C131.802 90.6207 131.754 90.6266 131.719 90.6148C131.772 90.668 131.831 90.7154 131.884 90.7686C131.884 91.5847 132.429 91.6853 133.156 91.5078C132.724 91.2654 132.298 91.0288 131.867 90.7863ZM89.7706 105.205C90.09 104.347 90.4212 103.496 90.7346 102.638C91.3438 100.988 90.847 100.101 89.0964 100.071C87.1034 100.042 85.3706 100.799 84.1523 102.431C82.9281 104.063 83.0286 105.891 83.7738 107.653C84.2351 108.759 85.1518 109.569 86.3701 109.8C87.3577 109.989 88.3867 109.995 89.5341 110.096C89.5341 109.534 89.4749 109.049 89.5459 108.582C89.7233 107.375 89.2561 106.583 88.1561 106.098C87.7125 105.903 87.2513 105.684 86.8846 105.37C86.7072 105.223 86.6125 104.785 86.7012 104.578C86.784 104.389 87.2216 104.176 87.4168 104.241C88.2152 104.507 88.9782 104.868 89.7647 105.199L89.7706 105.205ZM131.281 133.746C131.252 135.81 131.423 136.188 132.263 136.378C133.262 136.602 133.641 136.336 134.203 134.964C133.144 135.029 132.044 135.248 131.281 133.746ZM90.1196 127.377C89.9658 126.549 89.8416 125.88 89.7114 125.212C89.5873 125.212 89.469 125.2 89.3448 125.194C88.9367 125.868 88.5227 126.549 88.02 127.377H90.1136H90.1196ZM97.5239 133.024C99.5525 132.031 99.7062 131.7 99.1089 129.837C98.5884 130.889 98.139 131.782 97.5239 133.024ZM87.1744 131.167C87.4228 131.96 87.2098 132.936 88.1857 133.391C88.3986 132.382 88.0615 131.641 87.1744 131.167ZM156.345 126.927C155.635 126.403 154.354 126.491 152.501 127.193C153.891 127.099 154.949 127.022 156.345 126.927ZM125.586 128.08C126.899 127.619 127.065 126.803 127.52 125.839C126.319 126.188 126.083 126.98 125.586 128.08ZM138.278 126.537C139.046 126.342 139.579 126.211 140.253 126.04C139.618 125.551 138.96 125.717 138.278 126.537ZM141.672 114.673C141.637 114.49 141.595 114.312 141.56 114.129C141.211 114.159 140.862 114.182 140.513 114.212C140.549 114.431 140.578 114.644 140.614 114.862C140.968 114.797 141.323 114.732 141.678 114.667L141.672 114.673ZM138.307 97.2031C137.864 96.5407 137.592 96.1385 137.237 95.6063C136.917 96.5348 137.077 97.0138 138.307 97.2031ZM137.739 106.707C137.858 106.713 137.976 106.725 138.094 106.731C138.13 106.358 138.165 105.985 138.195 105.619C138.023 105.619 137.852 105.619 137.674 105.619C137.692 105.979 137.716 106.346 137.733 106.707H137.739ZM126.13 101.704C126.041 101.982 125.935 102.153 125.982 102.218C126.118 102.401 126.302 102.567 126.497 102.685C126.532 102.709 126.722 102.467 126.84 102.354C126.645 102.177 126.444 101.993 126.13 101.71V101.704ZM149.319 121.853C149.366 122.012 149.366 122.095 149.402 122.119C149.68 122.279 149.958 122.438 150.248 122.574C150.271 122.586 150.378 122.409 150.449 122.32C150.236 122.166 150.029 121.995 149.798 121.859C149.715 121.811 149.579 121.853 149.319 121.853ZM96.8734 139.341C96.7078 139.228 96.5895 139.116 96.4535 139.074C96.3707 139.045 96.2524 139.122 96.1518 139.151C96.276 139.264 96.3884 139.4 96.5304 139.477C96.5836 139.506 96.7078 139.412 96.8793 139.341H96.8734ZM143.163 110.22C143.08 110.19 142.962 110.113 142.926 110.143C142.855 110.202 142.825 110.32 142.778 110.409C142.873 110.445 142.997 110.527 143.05 110.492C143.121 110.445 143.133 110.314 143.168 110.214L143.163 110.22ZM104.863 134.923C104.786 134.876 104.715 134.81 104.638 134.787C104.609 134.775 104.508 134.864 104.514 134.893C104.532 134.976 104.585 135.053 104.627 135.136C104.704 135.065 104.786 134.994 104.863 134.923ZM126.331 97.5934C126.367 97.5106 126.414 97.4278 126.42 97.3391C126.42 97.3036 126.325 97.2208 126.308 97.2267C126.231 97.2681 126.166 97.3273 126.095 97.3864C126.172 97.4574 126.248 97.5283 126.331 97.5934ZM97.4943 144.019C97.4589 144.03 97.4056 144.03 97.3938 144.054C97.3701 144.095 97.3702 144.149 97.3583 144.202C97.4175 144.19 97.4766 144.172 97.5416 144.161C97.5239 144.113 97.5121 144.066 97.4943 144.025V144.019ZM146.504 117.346C146.474 117.258 146.445 117.163 146.415 117.074C146.38 117.11 146.309 117.151 146.315 117.181C146.327 117.275 146.368 117.364 146.398 117.453C146.433 117.417 146.469 117.382 146.51 117.346H146.504Z" fill="black"/>
<path d="M5.81489 56.8339L10.3155 50.0446C10.3155 50.0446 19.5059 54.3914 20.3812 51.8425C21.2624 49.2935 20.3812 46.307 20.3812 46.307C20.3812 46.307 22.3979 46.5199 23.2909 44.5682C24.1839 42.6166 23.9592 41.1913 23.9592 41.1913C23.9592 41.1913 26.4608 39.3935 26.934 37.2171C27.4071 35.0407 27.1054 31.9299 26.3543 30.41C25.6033 28.8901 24.7813 27.9202 24.7813 27.9202C24.7813 27.9202 29.5953 25.5132 30.3759 24.1648C31.1566 22.8164 29.891 19.9777 28.5367 19.0314C27.1823 18.0911 20.9903 17.8013 18.465 19.818C15.9338 21.8347 14.6327 25.0874 14.6327 25.0874C14.6327 25.0874 10.8892 25.117 9.1741 28.8842C7.45903 32.6514 8.21011 33.7278 8.21011 33.7278C8.21011 33.7278 6.4122 34.2896 5.80897 36.3891C5.21165 38.4886 5.21165 40.7064 5.21165 40.7064C5.21165 40.7064 0.20248 45.0887 1.6869 49.8849C3.17133 54.6812 5.80897 56.8221 5.80897 56.8221L5.81489 56.8339Z" fill="white"/>
<path d="M8.81332 56.834C9.37515 59.2588 26.9339 70.0992 26.9339 70.0992C26.9339 70.0992 53.275 38.4236 52.3761 35.5021C51.4771 32.5806 32.3216 16.6067 30.6125 17.1331C28.9033 17.6594 8.43482 55.2254 8.8074 56.8399L8.81332 56.834Z" fill="white"/>
<path d="M55.8004 33.2309C54.0321 30.7175 52.1455 28.3164 49.774 26.3411C47.1422 24.1411 44.4395 22.0297 41.8728 19.7587C40.418 18.4636 39.2707 16.8136 37.804 15.5361C36.148 14.099 34.362 12.792 32.499 11.6388C31.056 10.7458 30.0152 11.0415 28.9743 12.3899C27.8624 13.8447 26.857 15.3824 25.8398 16.9141C25.4731 17.4759 25.1538 17.7421 24.385 17.677C23.3678 17.5883 22.3033 17.7302 21.2979 17.9491C17.8914 18.6824 15.3306 20.4684 14.3193 23.9577C14.0591 24.8448 13.5919 25.1524 12.7225 25.4007C10.4634 26.0335 8.84288 27.4411 8.25739 29.8245C8.12728 30.3567 7.96172 30.8831 7.84936 31.4212C7.63645 32.4503 7.31711 33.3019 6.31172 33.9465C5.673 34.3605 5.25306 35.289 5.00467 36.0697C4.71488 36.9864 4.61433 37.9917 4.62024 38.9557C4.62024 39.766 4.41329 40.2805 3.77458 40.8246C0.462713 43.6574 -0.442152 49.4945 2.13046 53.2086C3.02939 54.5037 4.07023 55.6511 3.95195 57.4194C3.91055 58.0226 4.30686 58.7382 4.68536 59.2764C5.56655 60.5183 6.45363 61.7958 7.5359 62.8544C11.0015 66.2372 14.7096 69.3421 18.8435 71.9028C20.943 73.2098 23.0839 74.369 25.9463 74.2566C27.9452 74.4341 29.5894 73.5233 30.9732 71.6604C33.0905 68.8157 35.391 66.1012 37.7153 63.4221C42.7658 57.585 47.7868 51.7182 51.6546 44.994C53.1804 42.3386 54.5643 39.6063 55.9541 36.8858C56.5751 35.6734 56.6461 34.4374 55.7944 33.2368L55.8004 33.2309ZM45.4449 24.9217C45.4922 24.9809 45.5454 25.04 45.5986 25.0991C45.5395 25.0518 45.4804 24.9986 45.4213 24.9454C45.3799 24.9099 45.3384 24.8744 45.2911 24.8448C45.3384 24.8685 45.3916 24.8981 45.4449 24.9217ZM44.9895 27.932C42.4701 26.2879 40.4475 24.5846 38.8744 22.2249C41.0507 22.3432 44.3567 25.3653 44.9895 27.932ZM43.6825 29.032C43.647 29.0201 43.6174 29.0083 43.5819 28.9906C43.5524 28.961 43.5229 28.9255 43.4992 28.89C43.5347 28.9137 43.5701 28.9373 43.6056 28.961C43.6293 28.9787 43.6529 29.0024 43.6766 29.0261L43.6825 29.032ZM38.8093 19.7706C39.0577 19.8889 39.3061 20.0131 39.5486 20.1313C39.5782 20.1609 39.6077 20.1964 39.6373 20.2319C39.5959 20.2082 39.5663 20.1846 39.5249 20.1609C39.2824 20.0426 39.0341 19.9184 38.7916 19.8002C38.7797 19.7765 38.7916 19.7765 38.8093 19.7765V19.7706ZM37.3427 22.7099C37.3841 22.7394 37.4314 22.769 37.4787 22.7986C37.4255 22.7808 37.3722 22.7572 37.319 22.7335C37.319 22.7158 37.3071 22.6921 37.3071 22.6744C37.319 22.6862 37.3308 22.698 37.3486 22.7099H37.3427ZM22.2796 19.0964C24.1248 18.9426 25.9463 19.0964 27.6495 19.9066C28.6076 20.362 29.4297 20.9534 29.5894 22.1539C29.8732 24.2948 29.4593 24.9809 27.3834 25.7024C26.6915 25.9448 25.9404 26.1104 25.3431 26.4948C24.4678 27.0626 23.7227 27.0567 22.8001 26.625C21.0791 25.8325 19.2693 25.3002 17.3473 25.2056C16.6967 25.1701 16.0521 24.9572 15.3957 24.8212C16.5016 21.2668 18.7666 19.3921 22.2855 19.0964H22.2796ZM13.8166 26.5244C17.6312 26.1577 21.2269 26.8438 24.178 29.6293C25.6151 30.9895 26.4963 32.61 26.8571 34.5202C27.2711 36.7261 26.0882 38.938 23.9118 39.9493C22.3505 37.4595 21.079 34.6503 17.9446 33.6094C15.094 32.6691 12.2494 31.8648 9.21546 32.5567C8.88428 29.511 10.83 26.8083 13.8166 26.5185V26.5244ZM6.11651 37.4122C6.18157 35.8272 7.00362 34.7508 8.48805 34.2659C10.9601 33.4616 13.4263 33.5739 15.8215 34.603C18.0629 35.567 19.8253 37.1579 21.3511 39.0326C21.7355 39.5057 22.1081 39.9907 22.5161 40.4401C23.5747 41.6052 23.5629 43.6396 22.4629 44.7456C21.635 45.5913 20.7124 45.5676 19.7306 44.6628C18.9204 43.9176 18.1456 43.1429 17.3354 42.3918C15.4784 40.6708 13.308 39.6713 10.7531 39.553C9.30416 39.4821 7.86115 39.3697 6.11651 39.2573C6.11651 38.731 6.09877 38.0686 6.11651 37.4063V37.4122ZM6.79072 50.1392C6.10469 51.3516 5.52515 52.6231 4.83321 53.9833C3.34287 52.2682 2.36706 50.3757 2.17189 48.3295C1.92942 45.7214 2.96435 43.409 5.03427 41.7176C6.30579 40.6826 7.89667 40.5289 9.40475 40.8955C12.8349 41.7117 15.9929 43.137 18.5242 45.6859C19.6774 46.8391 20.4344 48.2112 20.3812 49.9263C20.3279 51.4698 19.7898 51.8838 18.3053 51.4698C15.9456 50.8075 13.6687 49.9677 11.5042 48.7967C9.36331 47.6375 7.96169 48.0574 6.7848 50.1392H6.79072ZM19.3048 64.3151C19.2812 64.2797 19.2575 64.2442 19.228 64.2087C19.2634 64.2382 19.2989 64.2619 19.3285 64.2915C19.3403 64.3092 19.3521 64.3329 19.364 64.3506C19.3462 64.3388 19.3226 64.327 19.3048 64.3151ZM48.8454 39.766C46.3852 44.302 43.4105 48.501 40.0868 52.4338C36.4615 56.7333 32.6883 60.9145 28.9447 65.1135C27.4662 66.7694 27.2829 66.8818 25.3312 65.9178C23.3618 64.9538 21.5167 63.7355 19.6952 62.5113C16.75 60.5301 13.7101 58.6672 11.451 55.8403C11.3031 55.6511 11.1494 55.4618 10.9305 55.1839C11.658 53.9892 12.3795 52.7827 13.101 51.5881C14.3785 51.9193 15.6618 52.2741 16.957 52.5698C17.779 52.7591 18.6248 52.9424 19.4705 52.9779C20.5705 53.0252 21.3984 52.4752 21.6054 51.3575C21.7651 50.4822 21.7887 49.5596 21.7355 48.6666C21.7 48.0752 21.4339 47.5015 21.2683 46.9101C23.7995 46.1649 24.4678 45.2956 24.5269 42.5515C24.5387 41.9009 24.6275 41.4396 25.2721 41.0493C27.7796 39.5471 28.3947 37.1224 28.306 34.4137C28.2409 32.2137 27.6969 30.1793 25.9759 28.4051C26.8275 28.1094 27.549 27.8728 28.2646 27.6126C31.8308 26.3174 32.7711 23.6857 30.8786 20.3679C30.8313 20.2792 30.8668 20.1491 30.8431 19.8297C31.2335 20.1668 31.5174 20.427 31.8131 20.6636C33.0668 21.6453 34.3442 22.5857 35.5685 23.597C36.9346 24.7206 38.3421 25.8266 39.584 27.0803C41.9142 29.4341 44.2266 31.7938 46.9884 33.6508C47.2368 33.8223 47.4734 34.0175 47.71 34.2127C50.2294 36.324 50.3653 36.9331 48.8395 39.766H48.8454Z" fill="black"/>
<path d="M107.862 100.935C109.695 101.106 110.984 101.171 112.25 101.367C114.408 101.692 115.201 102.981 114.397 105.039C114.006 106.045 113.45 107.074 112.705 107.842C110.345 110.261 107.442 111.349 104.059 110.717C101.019 110.149 99.4578 108.174 99.446 105.039C99.446 104.341 99.2685 103.431 99.6293 102.987C100.073 102.443 100.966 102.141 101.717 101.988C103.923 101.538 106.158 101.219 107.868 100.935H107.862ZM105.886 109.481C107.27 109.492 109.612 108.7 110.76 107.606C111.587 106.819 112.356 105.897 112.889 104.891C113.557 103.626 113.113 102.946 111.664 102.904C109.713 102.851 107.755 102.904 105.804 102.993C104.585 103.052 103.373 103.241 102.16 103.413C101.421 103.513 101.001 103.821 101.055 104.732C101.197 107.399 103.201 109.492 105.886 109.475V109.481Z" fill="black"/>
<path d="M134.315 116.95C133.322 116.844 132.056 116.737 130.802 116.536C130.548 116.495 130.146 116.081 130.169 115.88C130.199 115.619 130.595 115.182 130.814 115.194C132.44 115.259 134.067 115.383 135.687 115.578C136.012 115.619 136.527 116.027 136.545 116.3C136.604 116.986 135.965 116.921 135.492 116.95C135.19 116.968 134.889 116.95 134.309 116.95H134.315Z" fill="black"/>
<path d="M101.575 96.2331C101.611 96.8364 101.019 97.3864 100.268 97.4573C99.446 97.5342 98.825 97.1262 98.8131 96.4934C98.8013 95.8546 99.5347 95.2159 100.298 95.21C100.948 95.2041 101.54 95.6772 101.569 96.2331H101.575Z" fill="black"/>
<path d="M116.384 97.3983C117.052 97.3628 117.59 97.9128 117.608 98.6698C117.62 99.2316 117.377 99.5864 116.774 99.6101C116.064 99.6397 115.355 99.1429 115.29 98.5692C115.225 97.9719 115.733 97.4278 116.384 97.3923V97.3983Z" fill="black"/>
<path d="M128.017 27.9616C126.893 22.361 124.581 17.2631 121.352 12.5614C119.843 10.3614 118.057 8.45115 115.816 6.9963C113.817 5.69521 111.86 4.29949 109.766 3.164C106.791 1.55538 103.686 0.260212 100.191 0.289782C99.7299 0.289782 99.2626 0.100539 98.8013 0H95.1228C94.5965 0.112367 94.076 0.277953 93.5497 0.325265C89.1319 0.697849 84.8383 1.58495 80.8049 3.51884C77.5995 5.05649 74.7076 6.99038 72.8801 10.1367C71.4726 12.5673 70.207 15.0926 68.9473 17.6061C68.072 19.3744 67.4274 21.2196 67.522 23.2481C67.5339 23.5438 67.5102 23.9519 67.3268 24.1115C66.5166 24.839 65.6709 25.5368 64.7838 26.1578C62.4774 27.7782 60.1413 29.3455 57.8348 30.9541C57.4386 31.2261 57.0719 31.581 56.7821 31.9654C56.2735 32.6396 56.516 33.3374 57.338 33.4675C57.9353 33.5622 58.5682 33.5326 59.1655 33.438C60.7327 33.1955 62.294 32.888 63.8553 32.5923C64.8607 32.403 65.8602 32.2019 66.907 32.0009C67.0489 32.3557 67.1731 32.5627 67.2204 32.7933C68.0898 36.7498 70.1301 40.1622 72.1527 43.5983C74.1162 46.9338 76.7538 49.6306 79.7937 51.9489C83.9335 55.1011 88.6055 57.2538 93.5615 58.7382C96.2642 59.5484 99.0911 59.8737 101.918 59.5425C103.858 59.3178 105.798 58.9925 107.684 58.4839C116.183 56.1834 122.676 51.4462 126.13 43.0601C127.206 40.4284 127.768 37.7079 128.129 34.9047C128.431 32.5686 128.484 30.2562 128.023 27.9616H128.017ZM126.248 37.1461C125.202 45.1005 120.979 51.1269 113.681 54.7699C110.133 56.5382 106.425 57.6737 102.379 57.3662C99.5761 57.1533 96.7551 57.1533 93.9696 56.8635C90.6341 56.5205 87.5706 55.1839 84.7141 53.5221C79.3856 50.4113 75.0742 46.1768 71.922 40.866C70.3548 38.2342 69.4026 35.3009 68.7107 32.3084C68.3322 30.682 67.8059 30.2266 66.1855 30.5697C63.7962 31.0783 61.4246 31.6519 59.0413 32.196C58.8106 32.2492 58.574 32.2611 58.0773 32.3261C60.3897 30.2207 62.7375 28.6121 65.2628 27.2933C66.1973 26.8083 66.9128 25.9981 67.9892 25.7083C68.5747 25.5486 68.7817 24.8626 68.7462 24.1707C68.6043 21.8524 69.1661 19.6701 70.2247 17.6297C71.2597 15.619 72.3242 13.6141 73.4538 11.6566C75.3995 8.28556 78.4394 6.1565 81.8636 4.5124C87.1921 1.95753 92.8696 1.04085 98.6712 1.6086C103.473 2.08172 108.24 3.2054 112.333 6.02049C117.957 9.88827 122.256 14.8087 124.551 21.4088C126.343 26.5599 126.964 31.8648 126.26 37.152L126.248 37.1461Z" fill="#29A6FF"/>
<path d="M126.248 37.1461C125.202 45.1004 120.979 51.1268 113.681 54.7699C110.133 56.5382 106.425 57.6737 102.379 57.3662C99.5761 57.1533 96.7551 57.1532 93.9696 56.8635C90.6341 56.5204 87.5706 55.1839 84.7141 53.522C79.3856 50.4112 75.0742 46.1768 71.922 40.866C70.3548 38.2342 69.4026 35.3009 68.7107 32.3084C68.3322 30.682 67.8059 30.2266 66.1854 30.5696C63.7962 31.0782 61.4246 31.6519 59.0412 32.196C58.8106 32.2492 58.574 32.261 58.0772 32.3261C60.3896 30.2207 62.7375 28.6121 65.2628 27.2933C66.1972 26.8083 66.9128 25.9981 67.9892 25.7083C68.5747 25.5486 68.7817 24.8626 68.7462 24.1707C68.6043 21.8523 69.1661 19.6701 70.2247 17.6297C71.2597 15.619 72.3242 13.6141 73.4537 11.6565C75.3995 8.28554 78.4393 6.15648 81.8636 4.51237C87.1921 1.95751 92.8695 1.04083 98.6712 1.60858C103.473 2.0817 108.24 3.20538 112.333 6.02046C117.957 9.88824 122.256 14.8087 124.551 21.4088C126.343 26.5599 126.964 31.8648 126.26 37.152L126.248 37.1461Z" fill="white"/>
<path d="M64.2516 111.385C63.6661 106.89 62.6015 102.49 61.3064 98.1553C59.4789 92.0343 56.7171 86.4396 52.045 81.9213C48.1772 78.1836 43.576 76.226 38.2534 75.7707C37.3485 75.6997 36.4141 75.5223 35.5921 75.1497C34.5571 74.6825 33.741 74.0024 33.5222 72.6599C32.8953 68.8039 32.0851 64.9834 31.4109 61.1393C31.2157 60.0216 30.9141 58.8506 31.6888 57.7742C31.8248 57.585 31.8426 57.1355 31.7125 56.964C31.5942 56.8102 31.1862 56.8162 30.92 56.8516C30.098 56.9522 29.5538 57.2715 29.7549 58.2947C29.8377 58.7382 29.7313 59.2823 29.5539 59.714C28.0458 63.3216 26.5082 66.9173 24.9942 70.4776C23.5984 70.4244 22.4216 70.1996 21.3097 70.3771C19.9377 70.59 18.5774 71.0513 17.2822 71.5717C13.8048 72.9911 11.0134 75.3626 8.5295 78.1304C5.58431 81.4126 3.3251 85.1326 2.13047 89.367C0.994971 93.4063 -0.300203 97.5047 1.09551 101.787C1.11325 101.846 1.10736 101.911 1.11327 101.97C1.7579 106.151 2.7692 110.238 4.28911 114.194C5.90955 118.417 8.42303 122.113 11.1021 125.691C13.5564 128.967 15.9575 132.321 19.2043 134.899C20.2984 135.769 21.5462 136.449 22.735 137.194C26.7151 139.684 30.9792 141.487 35.5566 142.528C38.4486 143.191 41.2933 143.339 44.2325 142.463C49.1885 140.985 53.7187 138.844 57.5391 135.331C60.2419 132.853 62.3945 130.008 63.4827 126.43C64.1096 124.372 64.3107 122.261 64.6005 120.144C65.0085 117.169 64.6005 114.283 64.222 111.385H64.2516ZM62.5128 124.668C61.2827 129.748 58.0477 133.433 53.9079 136.413C50.5132 138.856 46.7756 140.435 42.5943 140.872C42.2277 140.914 41.8551 140.926 41.5003 141.02C38.4959 141.83 35.5448 141.375 32.6647 140.494C28.6313 139.27 25.0119 137.288 21.9188 134.373C20.3575 132.906 18.601 131.647 17.0397 130.186C14.1537 127.507 11.6225 124.52 9.57622 121.155C7.46491 117.689 5.72618 114.046 4.32455 110.25C3.43153 107.825 2.88748 105.341 2.66866 102.751C2.33748 98.8886 2.53264 95.0268 3.18318 91.2595C3.98158 86.6761 6.12837 82.5895 9.23915 79.0648C11.6639 76.3207 14.479 74.1029 17.8441 72.6066C19.2694 71.9738 20.736 71.6249 22.2973 71.7077C23.0898 71.7491 23.8054 71.8378 24.456 72.4825C25.2662 73.2809 25.9877 72.9319 26.3248 71.9265C27.4662 68.52 28.6727 65.1313 29.8555 61.7366C29.9619 61.778 30.0684 61.8194 30.1749 61.8667C30.8077 65.5926 31.4818 69.3125 32.0614 73.0502C32.3512 74.9131 33.3507 76.0664 35.1485 76.4567C36.698 76.7879 38.3067 76.8707 39.8502 77.2373C45.5514 78.5857 50.5073 81.1643 53.9552 86.1143C56.2262 89.367 57.48 93.0929 58.9821 96.7123C60.8273 101.142 62.1107 105.719 62.8322 110.451C63.5596 115.2 63.6542 119.96 62.5246 124.668H62.5128Z" fill="#29A6FF"/>
<path d="M62.5128 124.668C61.2826 129.748 58.0477 133.432 53.9079 136.413C50.5132 138.856 46.7755 140.435 42.5943 140.872C42.2276 140.914 41.8551 140.926 41.5002 141.02C38.4959 141.83 35.5447 141.375 32.6646 140.494C28.6312 139.27 25.0118 137.288 21.9188 134.373C20.3575 132.906 18.601 131.646 17.0397 130.186C14.1536 127.507 11.6224 124.52 9.57618 121.155C7.46487 117.689 5.72614 114.046 4.32451 110.249C3.43149 107.825 2.88744 105.341 2.66862 102.75C2.33744 98.8886 2.5326 95.0267 3.18314 91.2595C3.98154 86.6761 6.12833 82.5895 9.23911 79.0647C11.6639 76.3206 14.479 74.1028 17.8441 72.6066C19.2693 71.9738 20.736 71.6249 22.2973 71.7077C23.0898 71.749 23.8054 71.8378 24.4559 72.4824C25.2661 73.2808 25.9877 72.9319 26.3248 71.9265C27.4662 68.52 28.6726 65.1312 29.8554 61.7366C29.9619 61.778 30.0684 61.8194 30.1748 61.8667C30.8076 65.5925 31.4818 69.3125 32.0614 73.0501C32.3512 74.9131 33.3506 76.0663 35.1485 76.4566C36.698 76.7878 38.3066 76.8706 39.8502 77.2373C45.5513 78.5857 50.5073 81.1642 53.9552 86.1142C56.2261 89.367 57.4799 93.0928 58.9821 96.7122C60.8273 101.142 62.1106 105.719 62.8321 110.451C63.5596 115.199 63.6542 119.96 62.5246 124.668H62.5128Z" fill="white"/>
<path d="M92.2308 71.8615C92.0416 70.8384 91.7459 69.8449 91.5152 68.8336C90.0072 62.2276 85.8614 57.6619 80.113 54.4743C74.8436 51.5527 69.1957 50.4291 63.1397 50.9968C58.1305 51.4699 53.553 52.8243 49.5906 56.1302C48.254 55.4146 46.8998 54.6931 45.5514 53.9716C43.3336 52.7947 41.1276 51.6001 38.8921 50.4468C38.6378 50.3167 38.0996 50.3167 37.9577 50.4823C37.798 50.6775 37.9104 51.1151 37.9341 51.4463C37.9341 51.5527 38.0523 51.6533 38.1114 51.7657C39.6314 54.6281 41.1158 57.5141 42.6831 60.3528C43.2567 61.3937 44.0433 62.3163 44.8831 63.505C43.1739 65.5217 42.4524 68.112 41.926 70.7674C41.8078 71.3648 41.7663 71.9857 41.654 72.5831C40.9147 76.51 41.4647 80.2536 43.2153 83.8316C45.2497 88.001 47.9642 91.6617 51.3411 94.8612C53.1686 96.5941 55.2327 97.8183 57.616 98.5339C58.5504 98.8177 59.5025 99.0484 60.4547 99.2672C65.4225 100.385 70.3016 100.06 75.0328 98.179C81.2485 95.7129 85.8437 91.3306 89.2916 85.7004C91.8997 81.4423 93.1416 76.8589 92.2308 71.8497V71.8615ZM89.9303 80.9928C86.2695 89.4913 80.2727 95.4704 71.1059 97.8774C66.079 99.2022 61.2709 98.5635 56.6993 96.1801C49.6971 92.5252 45.0782 86.8477 43.2271 79.1831C42.6594 76.8175 42.9669 74.1976 43.1029 71.7078C43.2567 68.9755 44.1911 66.4798 45.8766 64.2443C46.8465 62.9668 46.7282 62.8308 45.4686 61.7131C45.2438 61.512 44.9363 61.3464 44.8003 61.0921C43.4164 58.5195 42.062 55.941 40.7018 53.3624C40.6013 53.2974 40.5717 53.2915 40.548 53.2678C40.5303 53.256 40.5363 53.2028 40.5303 53.1673C40.5658 53.2087 40.5954 53.2619 40.6308 53.3033C41.305 53.5931 41.9379 53.7705 42.5115 54.0662C44.5696 55.1426 46.61 56.2603 48.6562 57.3722C49.224 57.6797 49.6616 57.8157 50.2826 57.2775C53.3815 54.5866 57.1014 53.2442 61.0993 52.6705C62.9031 52.4103 64.7542 52.2624 66.5757 52.3097C72.2177 52.4398 77.4694 53.877 81.9345 57.4786C83.1587 58.4722 84.2233 59.6905 85.1932 60.9442C87.1921 63.5109 88.8421 66.2787 89.9954 69.3599C91.462 73.275 91.5626 77.1783 89.9244 80.9869L89.9303 80.9928Z" fill="#29A6FF"/>
<path d="M89.9303 80.9928C86.2695 89.4913 80.2727 95.4704 71.1059 97.8774C66.079 99.2021 61.2709 98.5634 56.6993 96.1801C49.6971 92.5252 45.0782 86.8477 43.2271 79.1831C42.6594 76.8175 42.9669 74.1976 43.1029 71.7078C43.2567 68.9755 44.1911 66.4798 45.8766 64.2442C46.8465 62.9668 46.7282 62.8308 45.4686 61.713C45.2438 61.512 44.9363 61.3464 44.8003 61.0921C43.4164 58.5195 42.062 55.9409 40.7018 53.3624C41.305 53.599 41.9379 53.7764 42.5056 54.0721C44.5637 55.1485 46.604 56.2662 48.6503 57.3781C49.2181 57.6856 49.6557 57.8216 50.2767 57.2834C53.3756 54.5925 57.0956 53.2501 61.0935 52.6764C62.8973 52.4162 64.7483 52.2683 66.5698 52.3156C72.2118 52.4457 77.4635 53.8829 81.9286 57.4845C83.1528 58.4781 84.2174 59.6964 85.1873 60.9501C87.1862 63.5168 88.8362 66.2846 89.9895 69.3658C91.4561 73.2809 91.5567 77.1842 89.9185 80.9928H89.9303Z" fill="white"/>
<path d="M139.206 78.0297C141.045 77.3437 142.589 76.7877 144.115 76.1904C146.054 75.4334 147.971 74.6291 149.916 73.884C150.484 73.6651 151.093 73.4936 151.691 73.4581C152.797 73.3931 153.311 74.1915 152.696 75.12C151.992 76.1845 151.141 77.1603 150.289 78.1243C149.355 79.177 148.331 80.1528 147.379 81.1937C146.859 81.7614 146.409 82.4002 145.706 83.2873C147.202 83.4706 148.331 83.6185 149.467 83.7426C151.892 84.0147 154.316 84.269 156.741 84.547C157.102 84.5884 157.457 84.7066 157.812 84.8013C158.628 85.0201 159.343 85.44 159.491 86.3093C159.639 87.155 158.959 87.6696 158.332 88.0303C156.209 89.2368 154.056 90.4078 151.886 91.5374C150.803 92.1051 149.668 92.5664 148.55 93.0691C148.278 93.1933 147.971 93.3766 147.699 93.3471C147.391 93.3116 147.048 93.1164 146.853 92.8798C146.776 92.7852 146.995 92.2884 147.196 92.1583C147.965 91.6616 148.775 91.2239 149.585 90.7981C152.116 89.4556 154.654 88.119 157.197 86.404C156.369 86.1674 155.552 85.8303 154.707 85.712C152.347 85.3808 149.976 85.162 147.616 84.8486C146.835 84.748 146.037 84.5884 145.327 84.2749C144.564 83.9497 144.387 83.3168 144.836 82.6131C145.363 81.7969 145.995 81.034 146.646 80.3125C148.237 78.5501 149.863 76.8232 151.478 75.0845C151.413 74.9721 151.342 74.8598 151.277 74.7415C150.443 75.0254 149.597 75.2678 148.775 75.5931C146.327 76.5571 143.89 77.5566 141.448 78.5265C140.992 78.7039 140.525 78.8813 140.052 78.9641C138.538 79.2362 137.84 78.8517 137.473 77.3555C137.112 75.877 136.947 74.3512 136.675 72.8549C136.592 72.3877 136.462 71.9323 136.296 71.2285C135.315 73.0323 135.001 74.771 134.611 76.4802C134.546 76.7759 134.581 77.1544 134.404 77.3496C134.197 77.5802 133.812 77.7399 133.505 77.7399C133.351 77.7399 133.067 77.2964 133.079 77.0657C133.109 76.4625 133.227 75.8592 133.387 75.2738C133.889 73.3872 134.38 71.4947 134.978 69.6377C135.232 68.8452 135.622 67.9581 136.699 68.0113C137.402 68.0468 137.893 68.9339 138.023 70.1995C138.23 72.1393 138.414 74.085 138.656 76.0189C138.727 76.6044 138.946 77.1722 139.176 78.0533L139.206 78.0297Z" fill="#FFCF33"/>
<path d="M111.398 37.5836C110.836 36.7793 110.245 35.9987 109.63 35.2417C107.548 32.6691 105.39 30.1615 103.373 27.5416C102.101 25.8916 102.208 25.6668 103.444 24.0109C104.946 21.9942 106.424 19.9716 107.897 17.9372C108.287 17.3931 108.63 16.8017 108.938 16.2044C109.204 15.7017 109.352 15.063 108.808 14.714C108.471 14.5011 107.856 14.4775 107.471 14.6312C106.679 14.9329 105.904 15.335 105.212 15.8318C102.427 17.8307 99.6766 19.8829 96.9147 21.9114C95.9271 22.6388 95.7083 22.6093 94.9808 21.6453C93.9518 20.2791 92.9524 18.8834 91.9174 17.5173C91.6217 17.127 91.2964 16.7425 90.8942 16.4942C90.7464 16.3995 90.2378 16.642 90.1018 16.8608C89.9776 17.0678 90.1017 17.4522 90.1668 17.742C90.7168 20.1845 91.2787 22.627 91.8405 25.0636C91.9706 25.6491 92.1125 26.2287 92.2249 26.69C88.9958 28.4169 85.9383 30.055 82.8748 31.6991C82.7684 31.7524 82.6146 31.8056 82.5732 31.9002C82.4431 32.2137 82.242 32.5567 82.2952 32.8642C82.3189 33.0535 82.7447 33.3137 82.9812 33.3078C85.2995 33.2191 87.6238 33.083 89.9421 32.947C90.9829 32.8879 92.0238 32.8228 93.0588 32.74C93.7625 32.6868 94.0523 32.9943 94.0819 33.6863C94.1292 34.9105 94.277 36.1288 94.2948 37.353C94.3362 39.8014 94.3067 42.2557 94.3421 44.7041C94.354 45.3251 94.0879 46.2004 95.0932 46.295C96.0868 46.3896 96.0099 45.4375 96.1814 44.8638C96.5303 43.6987 96.7669 42.4923 97.0153 41.2976C97.3761 39.5648 97.7013 37.8202 98.0739 36.0874C98.5411 33.911 98.8723 33.775 100.688 34.9046C100.735 34.94 100.788 34.9755 100.842 35.0051C103.355 36.4126 105.857 37.832 108.376 39.2218C108.796 39.4584 109.275 39.6062 109.73 39.7718C110.405 40.0143 110.896 39.76 111.351 39.2455C111.848 38.6836 111.777 38.1159 111.392 37.5718L111.398 37.5836ZM108.784 37.2761C108.784 37.2761 108.766 37.2229 108.755 37.1874C108.796 37.2288 108.849 37.2643 108.891 37.3116C108.849 37.2997 108.796 37.2998 108.784 37.2761Z" fill="#29A6FF"/>
<path d="M34.4744 96.9725C33.0491 95.2161 31.5883 93.4773 30.0921 91.78C28.7792 90.2956 28.7436 90.3193 29.9146 88.7284C30.1275 88.4327 30.3582 88.1488 30.5888 87.859C31.4109 86.7886 32.2802 85.7536 33.0313 84.6418C33.2501 84.3106 33.1437 83.7665 33.191 83.3111C32.7297 83.2697 32.2566 83.1514 31.819 83.2224C31.4819 83.2756 31.1743 83.5595 30.8727 83.7665C29.8555 84.4466 28.856 85.1563 27.8388 85.8305C26.3071 86.8418 24.8049 87.8945 23.22 88.823C21.8242 89.6332 21.2506 89.5031 20.1861 88.2671C19.2339 87.1552 18.3764 85.9547 17.4775 84.8014C17.2113 84.4643 16.9924 84.074 16.6672 83.8079C16.4779 83.6482 16.0699 83.5713 15.8747 83.6778C15.6618 83.7842 15.4489 84.1805 15.4844 84.4052C15.5908 84.9966 15.8215 85.5762 16.0166 86.1558C16.4838 87.5219 16.9333 88.8881 16.9274 90.4789C16.4011 90.3902 15.993 90.3311 15.5908 90.2424C14.8102 90.0768 14.0473 89.8461 13.2607 89.7397C12.9473 89.6983 12.4564 89.8284 12.3144 90.0531C12.1843 90.2542 12.3145 90.7805 12.5096 91.0053C13.101 91.6972 13.7457 92.3655 14.4435 92.951C15.9398 94.2048 15.9634 94.1929 14.8279 95.843C14.13 96.8484 13.4026 97.836 12.7107 98.8473C12.4682 99.1962 12.208 99.5511 12.0661 99.9532C11.7053 100.994 12.3085 101.674 13.379 101.402C14.1419 101.207 14.8871 100.894 15.5968 100.545C17.507 99.5984 19.3936 98.5989 21.499 97.5166C21.6586 98.6995 21.8301 99.7581 21.9484 100.828C22.1022 102.224 22.1554 103.638 22.3683 105.022C22.4274 105.424 22.8829 105.761 23.1549 106.127C23.4861 105.814 23.9119 105.548 24.113 105.169C24.3673 104.696 24.4441 104.123 24.5801 103.59C25.0769 101.509 25.5441 99.4269 26.0646 97.351C26.2361 96.665 26.52 96.0085 26.7861 95.2397C27.2474 95.4822 27.5254 95.5946 27.7737 95.7542C29.4119 96.8306 31.0147 97.9543 32.6765 98.9892C33.3744 99.415 34.2615 100.113 34.9889 99.2613C35.6927 98.457 35.0067 97.629 34.4744 96.9725ZM29.2996 86.8063C29.4238 86.688 29.5421 86.5638 29.6663 86.4455L29.7668 86.3746L29.684 86.4751L29.3232 86.8359C29.3232 86.8359 29.2818 86.8595 29.2641 86.8714C29.2759 86.8536 29.2878 86.83 29.2996 86.8122V86.8063ZM17.1935 86.4455C17.1935 86.4455 17.2054 86.4988 17.2172 86.5284C17.2054 86.5106 17.1817 86.487 17.1699 86.4692C17.1344 86.4337 17.1048 86.4041 17.0693 86.3687C17.1107 86.3923 17.1462 86.416 17.1935 86.4396V86.4455Z" fill="#29A6FF"/>
<path d="M43.2685 124.1C42.7599 123.668 42.1862 123.296 41.6007 122.965C39.9507 122.03 38.277 121.137 36.627 120.209C35.5211 119.582 35.5448 119.517 35.9529 118.34C36.6034 116.43 37.2303 114.514 37.8335 112.592C37.9932 112.065 38.076 111.515 38.1351 110.965C38.2061 110.374 38.005 109.776 37.4018 109.652C37.0056 109.563 36.4082 109.711 36.1125 109.983C35.5388 110.516 35.0776 111.184 34.6281 111.84C33.3803 113.65 32.1383 115.472 30.9436 117.317C30.4705 118.056 29.9501 118.127 29.2641 117.683C28.2409 117.015 27.2178 116.347 26.1888 115.685C25.828 115.454 25.4732 115.135 25.0829 115.064C24.7162 114.999 24.2135 115.111 23.9414 115.342C23.764 115.489 23.7759 116.045 23.9001 116.335C24.1958 117.003 24.5742 117.636 24.9823 118.239C25.5619 119.085 26.1947 119.895 26.8038 120.723C26.2656 121.409 25.7807 121.965 25.3786 122.574C24.4382 124 23.5038 125.437 22.6345 126.903C22.3092 127.453 21.8715 128.069 22.4629 128.755C23.1076 129.494 23.9178 129.376 24.6629 129.092C25.5146 128.766 26.3307 128.329 27.1114 127.856C28.0044 127.317 28.8382 126.691 29.6958 126.105C31.0028 125.218 31.0679 125.218 31.8899 126.62C32.848 128.252 33.7528 129.92 34.7168 131.552C35.0007 132.043 35.391 132.474 35.8996 133.166C36.1303 132.522 36.3668 132.185 36.3372 131.883C36.2663 131.221 36.0416 130.576 35.9233 129.914C35.6335 128.305 35.3733 126.691 35.0658 124.869C37.2658 125.112 39.1938 125.33 41.1217 125.543C41.6658 125.602 42.2277 125.75 42.7599 125.673C43.1148 125.614 43.5228 125.283 43.6943 124.97C43.7949 124.798 43.5169 124.295 43.2803 124.094L43.2685 124.1ZM35.5448 113.668C35.6276 113.603 35.669 113.561 35.7045 113.508C35.6926 113.55 35.7044 113.597 35.6808 113.615C35.6571 113.632 35.6276 113.644 35.598 113.656C35.5388 113.715 35.5448 113.691 35.5507 113.674L35.5448 113.668ZM27.271 118.399C27.2356 118.411 27.2237 118.387 27.2119 118.369C27.2297 118.381 27.2533 118.387 27.271 118.399ZM27.1705 118.316C27.1705 118.316 27.1942 118.346 27.206 118.364C27.1646 118.34 27.1232 118.322 27.0818 118.293C27.1114 118.293 27.1527 118.293 27.1705 118.31V118.316ZM41.2104 124.307C41.1335 124.266 41.0626 124.213 40.9975 124.165C40.9738 124.165 40.9443 124.148 40.9206 124.148C40.962 124.136 40.9798 124.148 40.9975 124.165C41.1158 124.201 41.2341 124.224 41.3524 124.254C41.3051 124.272 41.2459 124.325 41.2163 124.307H41.2104Z" fill="#29A6FF"/>
<path d="M53.7068 102.94C53.074 103.058 52.459 103.33 51.909 103.637C50.7203 104.282 49.5907 104.998 48.4197 105.666C47.8578 105.991 47.3906 105.908 47.0831 105.353C46.8406 104.927 46.6218 104.489 46.3261 104.087C45.8766 103.466 45.4449 102.81 44.8653 102.283C44.061 101.538 43.1207 101.816 42.9019 102.821C42.8132 103.229 42.8545 103.667 42.9137 104.081C43.0142 104.708 43.0852 105.358 43.3336 105.944C43.7653 106.967 43.4637 107.73 42.6653 108.54C41.725 109.504 40.9502 110.592 40.14 111.645C39.8798 111.988 39.6669 112.396 39.5782 112.798C39.4185 113.543 39.8384 113.928 40.6959 113.816C41.169 113.751 41.6481 113.609 42.0739 113.419C43.2094 112.917 44.3153 112.361 45.4271 111.822C45.7938 111.645 46.1605 111.462 46.6809 111.202C47.0712 111.503 47.5148 111.763 47.846 112.1C49.0762 113.348 50.2471 114.632 51.4832 115.868C51.6783 116.057 52.1514 116.246 52.3821 116.169C52.8966 116.01 52.7724 115.607 52.5713 115.235C52.4117 114.951 52.2697 114.655 52.1514 114.36C51.56 112.81 50.9686 111.255 50.3831 109.699C49.9869 108.647 50.1643 107.783 51.2584 107.032C52.1574 106.411 52.9084 105.625 53.6832 104.885C54.0085 104.578 54.2864 104.211 54.4756 103.833C54.7477 103.289 54.3692 102.821 53.7009 102.951L53.7068 102.94ZM49.4724 106.813L49.5729 106.731L49.5019 106.831C49.5019 106.831 49.4605 106.843 49.4369 106.849C49.4487 106.837 49.4606 106.825 49.4783 106.807L49.4724 106.813ZM44.9481 104.862C45.3148 105.565 45.5572 106.027 45.7938 106.488C44.7766 106.476 44.6761 105.926 44.9481 104.862Z" fill="#29A6FF"/>
<path d="M76.0027 72.6007C74.885 75.5163 73.6075 78.3669 72.5253 81.2943C71.8511 83.1159 71.4193 85.0202 70.8752 86.8949C70.7451 87.3621 70.6505 87.8471 70.4908 88.3084C70.3016 88.8761 69.9408 88.9708 69.3435 88.7815C64.2279 87.1611 60.9278 83.5476 58.6332 78.911C57.5746 76.776 56.8471 74.4814 56.8235 72.0507C56.7998 69.5786 58.2606 68.5969 60.3719 69.8802C62.1343 70.9507 63.6778 72.3819 65.3101 73.6593C65.5408 73.8367 65.7478 74.0496 66.1145 74.3808C67.522 71.5776 68.9591 69.0759 71.1709 67.1539C71.8984 66.527 72.7382 65.9415 73.6312 65.6103C75.3404 64.9657 76.6355 65.9297 76.807 67.763C76.9608 69.4485 76.6001 71.0631 76.0087 72.6066L76.0027 72.6007Z" fill="#FFCF33"/>
</svg>
