<svg width="144" height="169" viewBox="0 0 144 169" fill="none" xmlns="http://www.w3.org/2000/svg">
<g clip-path="url(#clip0_404_3266)">
<path d="M99.6404 15.0578C99.6404 15.0578 100.952 10.9611 100.617 10.3717C100.276 9.78811 97.6242 3.91748 98.5486 3.01031C99.4729 2.10314 100.334 3.01031 100.334 3.01031C100.334 3.01031 99.6924 2.44405 101.408 1.71022C103.124 0.982173 104.909 1.71022 104.909 1.71022C104.909 1.71022 105.643 0.0749996 106.261 0.860831C106.879 1.65244 108.294 3.85392 108.404 4.87088C108.52 5.88784 108.572 7.7253 109.421 7.85242C110.27 7.97954 113.991 6.93369 114.389 7.85242C114.782 8.77115 114.332 9.77077 113.43 10.3717C112.529 10.9726 110.103 11.874 109.646 12.6079C109.19 13.3417 107.122 17.2188 107.122 17.2188L99.6404 15.0578Z" fill="white"/>
<path d="M105.984 0C107.493 1.14408 108.714 3.61136 109.646 7.40184C110.646 7.26894 111.657 7.0956 112.679 7.00892C113.581 6.93381 114.58 6.70268 115.152 7.73119C115.556 8.45924 115.163 9.63221 114.152 10.4874C113.505 11.0363 112.772 11.5679 111.98 11.8279C110.808 12.2151 110.166 12.9662 109.716 14.0467C109.311 15.0059 108.814 15.9304 108.3 16.8376C108.11 17.1727 107.746 17.4096 107.468 17.6812C106.862 17.1554 107.11 16.7105 107.324 16.2656C107.676 15.5491 108.087 14.8557 108.375 14.1161C109.017 12.4924 109.97 11.2963 111.732 10.7185C112.552 10.4469 113.234 9.70733 113.904 9.09484C114.106 8.90994 114.141 8.43035 114.072 8.12411C114.043 7.99121 113.534 7.88143 113.263 7.9161C112.535 8.00855 111.819 8.22234 111.091 8.32057C110.553 8.38991 109.999 8.39569 109.456 8.36102C108.583 8.30323 108.162 7.84676 108.173 6.92225C108.191 5.21191 107.515 3.69225 106.66 2.24771C106.423 1.84324 106.163 1.36943 105.614 1.56588C106.134 2.7273 106.66 3.8656 107.151 5.02123C107.266 5.29858 107.37 5.63372 107.318 5.91107C107.266 6.16531 107.035 6.512 106.816 6.57556C106.631 6.62756 106.232 6.3791 106.134 6.16531C105.753 5.33325 105.493 4.44341 105.106 3.60558C104.794 2.92376 104.522 2.13792 103.396 1.94724C103.823 3.87715 105.383 5.40259 104.707 7.39028C104.649 7.55785 104.326 7.63874 104.066 7.79475C102.933 6.03819 103.378 3.59402 101.183 2.09748C101.345 3.39757 102.125 4.06206 102.465 4.91722C102.806 5.76662 103.084 6.63912 103.396 7.53474C102.575 7.97966 102.032 7.91032 101.749 7.04937C101.518 6.35021 101.345 5.62216 101.038 4.95767C100.611 4.02739 100.166 3.05088 98.797 2.97576C98.6121 4.46075 99.236 5.62216 99.8311 6.82402C100.403 7.9681 100.946 9.13529 101.345 10.3487C101.87 11.9493 101.05 13.336 100.368 14.7055C100.27 14.9019 99.8831 14.9481 99.6289 15.0637C99.5364 14.8037 99.3458 14.5263 99.3747 14.2836C99.4151 13.9312 99.6231 13.596 99.7444 13.2493C100.195 11.9782 100.155 10.7243 99.6058 9.48776C99.1321 8.4188 98.6063 7.37295 98.2193 6.2751C97.9593 5.54127 97.786 4.73232 97.7744 3.95805C97.7513 2.57129 98.0748 2.28816 99.4613 2.11481C99.6404 2.0917 99.8946 2.18415 100.004 2.09748C101.316 0.976511 103.026 1.16719 104.528 0.687603C104.921 0.560483 105.25 0.242683 105.608 0.0115563H105.978L105.984 0Z" fill="black"/>
<path d="M108.716 17.7967C108.676 18.2185 108.566 18.6461 108.422 19.0448C107.595 21.2925 106.908 23.6095 105.874 25.7532C103.748 30.1331 102.009 34.6574 100.259 39.1817C99.7733 40.4413 99.2245 41.6836 98.6294 42.897C98.2828 43.5962 97.9131 44.3358 96.9772 44.486C96.7634 44.5207 96.5092 44.6998 96.3879 44.8847C96.1626 45.2257 96.0298 45.6243 95.8507 45.9941C96.2262 46.1444 96.619 46.4622 96.9656 46.416C98.1153 46.2657 99.2707 46.0519 100.386 45.7399C102.136 45.2603 102.852 45.4568 103.719 47.0573C104.747 48.9757 105.262 51.0616 105.366 52.9915C105.406 55.401 104.782 57.3714 103.609 59.1626C103.003 60.0813 102.281 60.9365 101.662 61.8437C100.773 63.1611 99.9177 64.5074 99.0569 65.8422C98.8894 66.1022 98.7681 66.3911 98.6063 66.6511C97.7629 68.0205 97.422 68.165 95.9084 67.4543C94.0193 66.5702 92.1591 65.6053 90.3162 64.6403C88.0863 63.4673 85.8968 62.225 83.661 61.0636C82.7078 60.5667 82.0897 60.116 82.367 58.8159C82.5461 57.9781 82.1763 57.0073 81.9684 56.1175C81.0209 52.0381 81.9684 48.5943 85.1804 45.8035C85.6599 45.3874 85.995 44.7576 86.2665 44.1682C88.2192 39.9271 90.1487 35.6743 92.0725 31.4216C93.4127 28.4574 94.7241 25.4759 96.0586 22.5117C96.5612 21.3907 97.1101 20.2928 97.6358 19.1776C98.1557 18.074 98.7219 17.0108 98.7276 15.705C98.7392 14.6187 99.1205 14.3471 100.282 14.3991C101.2 14.4453 102.096 14.6533 103.008 14.7862C104.343 14.9885 105.689 15.1329 107.006 15.4045C108.346 15.6876 108.849 16.433 108.734 17.7851L108.716 17.7967Z" fill="#4361EE"/>
<path d="M106.145 30.0003C106.145 30.0003 103.037 29.6594 100.559 31.3004C98.0806 32.9414 97.2834 35.0967 97.5087 36.6683C97.734 38.24 99.0338 40.3895 99.0338 40.3895C99.0338 40.3895 98.9703 41.8571 97.8726 43.0417C96.775 44.2262 95.1632 45.4107 95.1632 45.4107C95.1632 45.4107 93.7651 46.393 96.9541 46.4219C100.143 46.4508 110.831 39.0894 110.831 39.0894L106.145 30.0003Z" fill="white"/>
<path d="M96.0413 45.5608C97.6473 45.9306 99.1494 45.7052 100.628 45.2372C100.981 45.1274 101.333 45.0292 101.686 44.9194C102.107 44.7923 102.639 44.6189 102.748 45.1852C102.8 45.451 102.396 45.9884 102.09 46.1097C100.894 46.572 99.6751 46.9822 98.4272 47.2654C97.6647 47.4387 96.8328 47.3983 96.0355 47.3578C94.8628 47.2942 94.0136 46.5315 93.9904 45.6244C93.9673 44.7114 94.5566 43.9833 95.7698 43.9256C96.8559 43.8736 96.9887 43.0473 97.4336 42.4521C98.1095 41.5507 98.2655 40.7707 97.5087 39.6728C96.2146 37.7834 96.7346 34.5476 98.4272 32.4617C99.86 30.6936 101.668 29.6246 103.927 29.0237C109.513 27.5329 115.215 26.7066 120.906 25.9266C125.013 25.3661 129.202 24.8345 133.367 25.707C133.546 25.7474 133.766 25.707 133.91 25.7937C134.413 26.0883 135.187 26.3484 135.297 26.7644C135.412 27.2035 134.927 27.8449 134.598 28.3245C134.361 28.6654 133.939 28.8677 133.61 29.145C133.292 29.4166 132.991 29.7055 132.697 29.9713C133.679 30.5087 134.609 30.9536 135.476 31.5025C136.521 32.167 136.885 33.1782 136.637 34.38C136.394 35.5646 135.499 35.8766 134.436 35.9401C134.268 35.9517 134.101 36.073 133.818 36.1944C134.037 37.3153 134.915 38.5172 133.771 39.5804C132.87 40.4182 131.761 40.3835 130.525 40.1004C130.502 41.9668 129.346 42.8508 127.746 43.29C125.724 43.8447 123.714 44.3243 121.588 43.706C121.148 43.5789 120.473 43.7638 120.086 44.0469C118.162 45.4626 116.042 45.9999 113.673 45.9075C112.021 45.8439 110.363 45.9999 108.71 46.0462C108.468 46.0519 108.127 46.1039 108.006 45.971C107.122 45.0061 105.787 44.9945 104.759 44.382C104.193 44.0469 103.84 43.3593 103.182 42.585C102.344 42.4232 101.154 42.1921 99.8946 41.9494C98.8605 43.3477 98.2019 45.2372 96.0355 45.5608H96.0413ZM134.401 34.328C134.517 34.3222 134.655 34.3511 134.736 34.2991C134.863 34.2125 134.956 34.0738 135.048 33.9467C135.06 33.9293 134.973 33.808 134.967 33.808C134.829 33.8773 134.678 33.9409 134.569 34.0449C134.494 34.1142 134.47 34.2471 134.43 34.3511C134.401 34.3974 134.372 34.4436 134.343 34.4898C134.366 34.4378 134.384 34.38 134.407 34.328H134.401ZM104.718 30.5549C102.361 30.838 100.571 31.8896 99.3458 33.8253C98.2077 35.6223 98.2886 37.8354 99.5653 39.0892C100.623 40.1293 101.807 40.996 103.367 41.1174C103.638 41.1405 104.025 41.1694 104.181 41.0191C105.296 39.8982 106.579 38.9159 107.133 37.3211C107.341 36.7317 107.353 36.3157 106.891 35.8419C105.493 34.4263 104.932 32.6408 104.724 30.5491L104.718 30.5549ZM108.069 39.7364C107.948 39.7133 107.821 39.6902 107.699 39.6728C106.81 40.6378 105.914 41.6027 104.828 42.7815C105.66 43.0935 106.244 43.3593 106.856 43.5269C107.324 43.6598 107.705 43.4691 107.763 42.9202C107.879 41.857 107.971 40.7938 108.075 39.7306L108.069 39.7364ZM118.104 43.7464C119.08 43.4113 119.866 42.7873 120.79 42.013C118.965 41.441 118.907 43.1513 118.104 43.7464ZM121.744 42.1921C121.64 42.221 121.536 42.2499 121.432 42.2788C121.524 42.3192 121.611 42.3712 121.709 42.3944C121.755 42.4059 121.819 42.3712 121.871 42.3597C121.83 42.3019 121.79 42.2499 121.744 42.1921Z" fill="black"/>
<path d="M33.2503 50.8306L36.5201 60.7112L44.1978 55.2335V45.4106L36.2659 50.5994L33.5853 47.3868L33.2503 50.8306Z" fill="white"/>
<path d="M43.1522 82.5007L40.5005 86.6206H34.1226L38.9753 92.9477L47.9529 95.1492L52.5226 88.8278L43.1522 82.5007Z" fill="white"/>
<path d="M96.8212 66.7089C96.4341 66.4431 96.1049 66.1947 95.764 65.9809C95.0996 65.5591 94.4122 65.1546 93.7478 64.7386C90.3682 62.6353 86.9944 60.5147 83.5859 58.4404C83.066 58.1226 82.5692 58.2613 82.3265 58.9951C82.0434 59.856 81.6795 60.717 81.2231 61.5028C80.605 62.566 78.6523 62.7567 77.6933 62.0171C76.0468 60.7401 75.4287 58.8391 74.643 57.0536C73.3258 54.0605 71.8931 51.1368 69.9 48.5366C67.4332 45.3181 64.354 42.9318 60.2581 42.2268C58.577 41.9321 56.8323 41.753 55.128 41.8339C51.0494 42.0246 47.0632 42.7295 43.5392 44.9946C41.5808 46.2542 39.6628 47.5832 37.7275 48.8775C37.2884 49.178 36.8436 49.4611 36.2659 49.8367C35.2029 48.5713 34.2092 47.4156 33.2445 46.2311C32.5859 45.4222 32.0082 44.5381 31.3034 43.7754C31.0087 43.4576 30.4541 43.1744 30.0498 43.2091C29.3969 43.2669 29.5067 43.9487 29.5471 44.4052C29.6338 45.4453 29.7436 46.4853 29.9573 47.5023C30.899 52.1248 31.8753 56.7416 32.8459 61.3526C33.1289 62.7047 34.0302 63.1323 35.3069 62.5024C35.8557 62.2309 36.3872 61.9015 36.8898 61.5548C38.646 60.3183 40.3618 59.0066 42.1585 57.8337C43.1753 57.175 44.2787 56.3833 45.4168 56.2504C49.4261 55.7824 53.3891 56.0251 57.0287 58.1977C56.9189 58.3595 56.8381 58.5271 56.711 58.6542C51.2574 64.3514 46.8668 70.7248 44.0938 78.1728C43.1753 80.6401 41.9101 82.9745 40.8356 85.384C40.4774 86.1929 39.9805 86.4645 39.0909 86.2334C37.3058 85.7827 35.5091 85.384 33.7066 85.0315C33.0018 84.8871 32.245 84.7888 31.5518 84.8929C30.3906 85.0778 29.9458 85.8231 30.3675 86.8863C30.6795 87.6721 31.1127 88.4695 31.6904 89.0647C33.62 91.0466 35.6189 92.9592 37.6351 94.8544C39.5819 96.6919 41.8639 98.0093 44.3365 99.0031C45.9021 99.6272 46.4047 99.4076 47.4503 98.0786C50.4659 94.2651 53.0136 90.151 55.5151 85.9965C56.7456 83.9452 58.109 81.9575 59.5822 80.0796C60.8936 78.404 62.2107 76.6994 64.0652 75.2664C64.3887 75.6593 64.6429 76.0002 64.9317 76.318C66.6475 78.1671 68.2825 80.0912 70.1138 81.8246C72.4362 84.0203 74.9434 86.0023 77.8782 87.3832C82.2976 89.4634 87.5201 88.1691 90.5646 84.4999C93.7074 80.7268 95.013 76.3758 94.6144 71.499C94.5508 70.6843 94.5682 69.9447 95.1459 69.2456C95.7582 68.4944 96.2262 67.6277 96.827 66.7147L96.8212 66.7089ZM42.2336 55.8691C40.6276 57.0825 38.9522 58.2208 37.1556 59.4862C35.9135 56.2909 35.5033 53.0378 34.6772 49.4322C35.2722 49.9176 35.5264 50.0794 35.7402 50.2989C36.4565 51.0212 37.1267 50.8479 37.843 50.2816C38.8598 49.4784 39.8881 48.7099 40.9222 47.9472C41.4075 47.589 41.9274 47.2827 42.5225 46.8898C42.6091 49.5709 42.7304 52.1017 42.7651 54.6383C42.7651 55.0544 42.5456 55.6264 42.2278 55.8691H42.2336ZM48.5537 94.0281C48.4035 94.2419 47.9414 94.265 47.6121 94.3113C47.4561 94.3286 47.2712 94.1957 47.0979 94.1264C43.3081 92.6009 39.865 90.4746 36.6472 87.9784C36.3699 87.7588 36.1677 87.4641 35.642 86.8863C37.1556 87.1348 38.2821 87.2966 39.3913 87.5104C41.084 87.8455 41.0724 87.8571 41.7368 86.2334C41.9448 85.7307 42.2452 85.2742 42.5745 84.6733C44.9546 87.2215 48.2187 88.198 51.1534 90.0874C50.2349 91.5031 49.4261 92.7916 48.548 94.0339L48.5537 94.0281ZM73.84 58.7293C73.8631 58.7004 73.9613 58.7871 73.9613 58.7871L73.84 58.7293Z" fill="black"/>
<path d="M12.9727 153.11C12.9727 153.11 20.7255 133.245 20.0496 132.788C19.3737 132.332 18.8249 127.027 15.2142 124.884C11.6035 122.74 4.49196 117.43 3.02458 115.119C1.5572 112.802 0.147596 109.473 3.02458 108.849C5.90157 108.231 14.0877 115.061 15.7226 115.679C17.3575 116.297 18.4898 116.297 18.3165 115.737C18.149 115.171 17.681 112.969 16.566 112.859C15.4511 112.75 8.15463 107.382 6.85478 104.279C5.55494 101.176 5.21987 99.6505 6.23664 99.142C7.2534 98.6335 11.6555 100.893 11.6555 100.893C11.6555 100.893 9.15984 95.6404 10.7196 94.2883C12.2795 92.9362 15.6071 94.3461 17.0167 95.756C18.4263 97.1658 20.5176 98.6335 20.5176 98.6335C20.5176 98.6335 20.6331 98.0152 19.7839 95.756C18.9347 93.4967 18.149 90.4747 19.0502 89.2613C19.9514 88.0479 24.2207 89.7929 25.4454 92.5375C26.6702 95.2764 31.9215 103.152 33.2734 104.729C34.6252 106.307 37.791 110.207 39.9343 109.924C42.0776 109.641 47.8027 105.238 49.8131 103.152C51.8236 101.06 54.0477 100.217 54.6659 100.893C55.284 101.569 55.7404 103.805 54.2153 107.78C52.6901 111.756 45.1279 122.289 44.8448 123.589C44.5618 124.89 42.1354 146.737 42.0199 150.238C41.9043 153.74 42.0776 155.681 42.0776 155.681L12.9727 153.116V153.11Z" fill="white"/>
<path d="M9.12517 164.349C9.10207 163.967 8.96342 163.551 9.07318 163.21C10.5983 158.414 12.0657 153.595 13.7411 148.851C15.2951 144.448 17.0918 140.132 18.7671 135.775C18.9866 135.203 19.0791 134.585 19.2871 134.007C19.651 133.002 19.3737 132.141 18.9809 131.182C17.6579 127.946 15.6302 125.525 12.4643 123.797C9.24649 122.041 6.2193 119.862 3.68317 117.124C2.29089 115.621 1.01416 114.073 0.586654 111.987C0.15915 109.907 1.23946 108.45 3.32499 108.375C4.86747 108.318 6.20775 108.855 7.47871 109.675C9.7491 111.143 12.0195 112.611 14.3245 114.015C15.1853 114.541 16.1617 114.882 17.2477 115.384C17.2766 114.107 16.5141 113.605 15.8844 113.096C13.7873 111.392 11.5862 109.803 9.5469 108.034C8.20662 106.873 6.98766 105.55 5.88423 104.163C4.94257 102.984 4.51507 101.586 5.07544 100.014C5.66471 98.3676 6.69303 97.7898 8.33371 98.356C8.88831 98.5467 9.42558 98.8067 9.87619 98.9974C9.77221 97.8475 9.5469 96.7035 9.59312 95.5767C9.67977 93.5659 11.0085 92.6241 12.99 93.0112C14.5961 93.329 16.0115 94.0051 17.19 95.1607C18.0045 95.9639 18.8422 96.7381 19.9803 97.8186C19.2755 96.1199 18.6631 94.8602 18.2241 93.537C17.9179 92.6183 17.6926 91.6244 17.7157 90.6653C17.7619 88.4522 19.6163 87.4237 21.6152 88.3944C21.8867 88.5273 22.1698 88.6776 22.3893 88.8856C24.394 90.7924 26.468 92.6356 27.918 95.0451C28.8366 96.5706 29.7898 98.0787 30.7026 99.6157C32.6957 102.979 35.2722 105.868 38.0394 108.589C38.958 109.496 40.0845 109.86 41.2399 109.213C42.6207 108.439 43.9725 107.572 45.203 106.578C47.069 105.076 48.7906 103.4 50.6277 101.863C51.2805 101.32 52.0546 100.887 52.8403 100.557C54.8507 99.7197 56.2603 100.864 56.0177 103.036C55.7462 105.457 54.9605 107.722 53.7878 109.826C52.1702 112.721 50.4139 115.546 48.7444 118.412C48.0338 119.631 47.3636 120.879 46.6877 122.122C45.954 123.48 45.4514 124.849 45.4226 126.473C45.3937 128.108 44.8333 129.726 44.6311 131.367C44.1112 135.631 43.5392 139.895 43.2157 144.177C42.9326 147.973 42.9673 151.793 42.8402 155.6C42.7362 158.853 42.6091 162.112 42.4878 165.365C42.4762 165.666 42.4069 165.961 42.3491 166.325C41.3786 166.359 40.9338 165.938 40.9511 165.042C41.0089 162.089 41.0724 159.142 41.1533 156.19C41.1706 155.577 41.2515 154.965 41.2977 154.352C41.7888 148.17 42.2336 141.987 42.7824 135.81C43.0308 133.065 43.493 130.338 43.857 127.605C43.8627 127.542 43.8858 127.478 43.8801 127.42C43.2446 124.115 45.2088 121.671 46.7166 119.111C48.3111 116.413 50.0847 113.818 51.7196 111.143C52.9096 109.196 53.9033 107.145 54.4059 104.903C54.5677 104.192 54.6601 103.447 54.6717 102.719C54.689 101.424 54.2846 101.124 53.1118 101.759C51.8813 102.424 50.7144 103.25 49.6283 104.14C48.2071 105.313 46.9361 106.671 45.515 107.844C44.4809 108.699 43.3717 109.525 42.1701 110.103C40.3561 110.97 38.7327 110.935 36.9707 109.404C33.0943 106.029 30.0497 102.112 27.9065 97.472C26.6702 94.7909 24.7637 92.6356 22.6031 90.6884C22.1525 90.2839 21.6037 89.9546 21.0548 89.7061C19.9399 89.1918 19.2639 89.6021 19.2466 90.8617C19.2293 91.7053 19.3159 92.601 19.5817 93.3983C20.1767 95.2069 20.8931 96.975 21.5806 98.7489C22.7417 101.742 25.2894 103.597 27.4443 105.769C27.7043 106.029 28.2415 105.995 28.6055 106.18C28.8366 106.295 29.137 106.567 29.1427 106.775C29.1543 107.012 28.929 107.353 28.7037 107.491C27.9931 107.936 27.2594 107.855 26.6875 107.249C25.2143 105.689 23.643 104.192 22.3489 102.493C20.5118 100.084 18.6342 97.7262 16.1039 96.0274C15.1045 95.3571 13.9375 94.8602 12.7763 94.5366C11.6035 94.2073 11.1183 94.6291 11.1529 95.8136C11.1818 96.7728 11.3782 97.7551 11.6844 98.6623C12.0137 99.6388 12.5105 100.575 13.0247 101.47C13.2904 101.933 13.7006 102.372 14.1512 102.649C16.8665 104.331 19.599 105.983 22.3489 107.595C22.8053 107.861 23.3888 107.942 23.926 108.023C24.4806 108.11 24.9428 108.312 24.8793 108.913C24.7984 109.71 24.082 109.693 23.5968 109.519C22.2796 109.051 20.8757 108.641 19.7319 107.873C16.7798 105.879 13.9664 103.683 11.0663 101.615C10.1188 100.939 9.10784 100.338 8.05642 99.841C7.11475 99.3961 6.43883 99.7832 6.40995 100.823C6.38684 101.586 6.57748 102.418 6.901 103.117C7.6578 104.764 8.82477 106.133 10.2633 107.22C12.031 108.549 13.8335 109.831 15.6879 111.033C17.2304 112.039 18.5823 113.125 18.8942 115.072C18.9058 115.13 18.9058 115.194 18.9289 115.251C19.0906 115.737 19.2582 116.222 19.4257 116.707C18.7787 116.788 18.0854 117.054 17.4846 116.916C15.4222 116.453 13.5562 115.529 11.8635 114.246C10.4423 113.165 9.03274 112.068 7.54225 111.097C6.62948 110.502 5.60693 109.987 4.56128 109.693C2.56819 109.132 1.41855 110.305 1.93849 112.322C2.13491 113.079 2.49887 113.847 2.98992 114.448C3.87959 115.535 4.79814 116.661 5.91312 117.488C8.03331 119.053 10.3037 120.429 12.5163 121.867C13.2904 122.37 14.0704 122.861 14.8676 123.323C16.8376 124.473 18.3685 125.941 18.9347 128.281C19.16 129.217 19.6972 130.09 20.1767 130.951C20.7602 131.997 20.8353 133.048 20.4251 134.146C20.0612 135.123 19.6395 136.082 19.2871 137.064C18.1432 140.242 16.9878 143.414 15.8959 146.61C14.0935 151.897 12.3546 157.212 10.5694 162.505C10.3441 163.176 9.96285 163.8 9.65089 164.441C9.4718 164.406 9.29271 164.372 9.10784 164.337L9.12517 164.349Z" fill="black"/>
<path d="M95.2556 98.8589C93.0083 99.4829 92.6617 101.401 93.5629 105.013C94.4642 108.624 101.015 119.972 101.35 122.232C101.691 124.491 102.933 133.863 102.477 139.393C102.026 144.928 101.686 156.953 101.686 156.953L134.309 154.41L124.095 125.051L130.756 119.972C130.756 119.972 139.901 117.262 141.368 113.651C142.836 110.04 142.951 106.989 141.986 105.521C141.022 104.053 138.202 102.811 138.202 102.811C138.202 102.811 139.213 96.9058 138.087 94.063C136.966 91.2143 134.528 91.353 134.528 91.353C134.528 91.353 132.778 86.8345 131.31 86.4416C129.843 86.0487 128.601 86.4416 128.601 86.4416C128.601 86.4416 127.584 85.4131 125.383 85.9909C123.182 86.5687 120.53 89.8276 120.08 93.2714C119.629 96.7152 115.62 103.435 112.356 105.804C109.438 107.925 107.151 109.982 105.117 108.289C103.084 106.596 98.2886 98.0152 95.2383 98.8589H95.2556Z" fill="white"/>
<path d="M134.973 90.8502C136.464 90.3995 137.307 91.324 137.977 92.5201C139.375 94.9989 139.369 97.6916 139.109 100.413C139.075 100.777 138.959 101.135 138.913 101.499C138.844 102.025 138.977 102.355 139.56 102.615C143.436 104.36 144.008 107.41 143.136 110.825C142.437 113.564 140.825 115.679 138.532 117.297C136.654 118.626 134.574 119.533 132.385 120.18C131.409 120.469 130.663 121.006 129.912 121.683C128.508 122.954 126.972 124.075 125.273 125.438C125.406 125.935 125.568 126.698 125.822 127.432C128.214 134.343 130.577 141.259 133.038 148.147C134.47 152.151 135.539 156.23 136.244 160.414C136.55 162.228 136.851 164.042 137.151 165.862C137.191 166.094 137.278 166.365 137.197 166.562C137.122 166.752 136.885 166.931 136.677 167.007C136.556 167.053 136.29 166.926 136.215 166.799C136.059 166.55 135.92 166.25 135.897 165.961C135.389 160.223 133.656 154.768 131.9 149.343C129.444 141.744 126.827 134.192 124.28 126.623C124.199 126.392 124.129 126.155 124.02 125.935C123.251 124.381 123.303 124.468 124.794 123.578C126.261 122.7 127.601 121.602 129.005 120.619C129.976 119.938 130.848 119.233 132.113 118.886C134.338 118.273 136.492 117.314 138.405 115.887C140.819 114.09 141.842 111.629 142.085 108.757C142.252 106.769 141.166 105.377 139.635 104.296C139.075 103.897 138.52 104.024 138.37 104.747C138.087 106.099 137.486 107.376 137.734 108.861C138.035 110.623 137.48 111.409 135.955 112.27C135.435 112.565 135.002 113.021 134.54 113.42C133.315 114.494 131.877 114.905 130.27 114.766C129.745 114.72 129.202 114.518 129.323 113.911C129.375 113.639 129.947 113.252 130.259 113.275C133.246 113.472 134.557 111.548 135.464 109.184C136.677 106.018 137.423 102.742 137.723 99.3557C137.85 97.9458 138.006 96.5475 137.688 95.1492C137.342 93.6295 136.92 92.1503 135.06 91.5378C135.06 91.9365 135.037 92.2601 135.06 92.5721C135.418 97.2004 134.39 101.482 131.83 105.371C130.796 106.948 129.346 108.087 127.723 109.005C127.405 109.184 127.058 109.346 126.706 109.392C126.533 109.415 126.227 109.207 126.151 109.034C126.076 108.872 126.18 108.583 126.296 108.399C126.377 108.26 126.59 108.196 126.752 108.115C130.299 106.307 132.188 103.25 133.182 99.5406C133.87 96.9635 134.251 94.346 133.621 91.7112C133.338 90.5324 132.864 89.3826 132.362 88.2789C132.148 87.8109 131.68 87.3775 131.218 87.1291C130.767 86.8864 130.138 86.7362 129.664 86.8575C128.942 87.0424 129.231 87.782 129.265 88.2905C129.716 95.207 126.804 100.812 122.443 105.856C122.125 106.226 121.726 106.526 121.351 106.844C121.281 106.902 121.131 106.85 120.871 106.85C121.085 105.897 121.697 105.249 122.263 104.556C124.713 101.58 126.735 98.3618 127.532 94.5367C127.867 92.9246 127.937 91.2547 128.098 89.6079C128.133 89.2439 128.11 88.8567 128.017 88.5101C127.313 85.8348 127.018 86.141 125.129 87.1695C123.101 88.2789 121.876 89.9026 121.362 92.1388C121.102 93.2713 120.756 94.3922 120.386 95.4959C118.861 100.09 116.001 103.695 112.107 106.515C111.316 107.087 110.611 107.803 109.762 108.266C108.167 109.127 106.405 109.583 104.632 109.144C103.967 108.976 103.361 108.208 102.928 107.578C101.709 105.81 100.617 103.949 99.4151 102.164C98.9067 101.407 98.329 100.65 97.6415 100.061C96.076 98.7085 94.8108 99.1361 94.2157 101.106C93.794 102.511 93.7478 103.88 94.3717 105.244C95.6254 107.977 96.8848 110.716 98.121 113.46C99.3573 116.205 100.634 118.938 101.743 121.735C102.234 122.971 102.552 124.34 102.604 125.664C102.829 131.315 103.055 136.972 103.032 142.623C103.014 146.916 102.616 151.209 102.425 155.508C102.333 157.6 102.356 159.691 102.257 161.783C102.234 162.28 101.917 163.181 101.766 163.176C100.836 163.135 101.108 162.309 101.119 161.766C101.218 157.218 101.402 152.677 101.472 148.129C101.558 142.345 101.599 136.561 101.576 130.777C101.564 128.57 101.53 126.322 101.119 124.167C100.767 122.33 100.074 120.481 99.1551 118.845C96.7288 114.541 95.0534 109.912 93.1412 105.388C92.3382 103.499 92.5808 101.644 93.4301 99.8584C94.3082 98.0094 96.0124 97.5009 97.7051 98.6565C98.5486 99.2343 99.2996 100.02 99.9293 100.835C101.316 102.638 102.604 104.51 103.915 106.37C105.123 108.075 106.4 108.612 108.139 107.566C110.426 106.191 112.737 104.816 114.597 102.788C117.122 100.038 118.739 96.8711 119.612 93.277C119.797 92.5028 120.045 91.74 120.224 90.9658C120.912 87.9553 123.061 86.3317 125.707 85.1934C126.146 85.0027 126.827 84.7369 127.099 84.9276C128.318 85.7828 129.681 85.361 130.941 85.6152C131.692 85.7654 132.489 86.4241 132.945 87.0771C133.743 88.2154 134.291 89.527 134.985 90.8502H134.973Z" fill="black"/>
<path d="M56.815 115.852C55.8444 117.343 57.8895 120.481 59.1027 122.064C60.3159 123.647 63.4182 131.494 63.8168 133.47C64.2096 135.446 61.7312 150.123 61.7312 150.123L79.9637 146.396L80.5818 139.959V136.573L82.7829 131.211C82.7829 131.211 87.809 125.906 89.9523 123.364C92.0956 120.822 92.5462 118.112 91.5872 117.551C90.6282 116.985 86.9597 119.585 86.9597 119.585C86.9597 119.585 89.3283 114.165 88.4271 112.813C87.5259 111.455 86.6189 111.854 86.6189 111.854C86.6189 111.854 85.2671 109.936 84.3601 109.762C83.4588 109.595 82.0434 110.38 81.3675 112.305C80.6916 114.223 76.7401 119.192 76.7401 119.192C76.7401 119.192 79.2242 112.588 79.282 111.178C79.3398 109.768 78.5483 107.734 78.0399 107.959C77.5316 108.185 76.405 109.259 75.3883 111.236C74.3715 113.212 69.5187 122.694 68.2767 123.26C67.0346 123.826 65.9601 123.035 65.2264 121.96C64.4927 120.885 61.3904 116.482 59.6919 116.031C57.9993 115.581 57.9415 115.182 57.098 115.806L56.815 115.864V115.852Z" fill="white"/>
<path d="M78.2941 116.216C79.022 114.968 79.7153 113.691 80.501 112.478C81.096 111.559 81.7199 110.629 82.4883 109.866C83.8112 108.549 85.1284 108.699 86.1683 110.207C86.4976 110.687 86.7633 110.97 87.4104 111.056C88.7044 111.236 88.9297 111.692 89.0857 113.044C89.259 114.575 88.6524 115.922 88.2711 117.326C88.2422 117.366 88.2191 117.401 88.1903 117.441C88.2076 117.395 88.2307 117.349 88.248 117.303C88.8026 117.054 89.3457 116.777 89.9118 116.557C91.2174 116.049 92.3382 116.54 92.5462 117.915C92.6791 118.776 92.6213 119.839 92.2227 120.585C91.2694 122.359 90.2007 124.109 88.9182 125.658C87.4392 127.443 85.6772 128.998 84.0365 130.656C83.8632 130.829 83.6033 130.98 83.5397 131.188C82.8349 133.643 81.1711 135.77 81.252 138.503C81.356 142.068 81.1711 145.645 81.3329 149.204C81.5466 153.925 81.9741 158.634 82.2919 163.349C82.3439 164.146 82.3612 164.949 82.2919 165.747C82.263 166.036 81.9279 166.296 81.7373 166.567C81.4946 166.313 81.1596 166.105 81.044 165.805C80.888 165.417 80.8996 164.961 80.8592 164.533C80.0966 155.647 79.9002 146.742 80.1139 137.827C80.1428 136.7 80.293 135.648 80.836 134.637C81.2693 133.828 81.6564 132.967 81.8875 132.089C82.2225 130.818 83.0371 129.997 83.9845 129.171C86.5842 126.894 88.872 124.323 90.5877 121.307C91.0037 120.579 91.2117 119.712 91.4023 118.88C91.4716 118.585 91.3214 118.077 91.0961 117.915C90.8824 117.765 90.3509 117.823 90.1082 118.002C88.9124 118.863 87.7396 119.758 86.6131 120.712C84.7413 122.301 82.9158 123.942 81.0613 125.548C80.8303 125.745 80.5645 125.924 80.2872 126.033C80.1601 126.085 79.8713 125.987 79.8077 125.877C79.7095 125.698 79.6517 125.398 79.7442 125.236C79.8886 124.982 80.1601 124.797 80.3797 124.583C81.2289 123.78 82.0434 122.936 82.9331 122.185C85.1862 120.29 86.3474 117.724 87.4277 115.095C87.5663 114.754 87.7396 114.385 87.7165 114.038C87.6934 113.587 87.497 113.154 87.3699 112.709C86.9944 112.853 86.5091 112.894 86.2607 113.16C85.6021 113.87 85.0013 114.65 84.4467 115.454C83.2624 117.176 82.2052 118.99 80.9342 120.637C80.3219 121.428 79.3629 121.966 78.5194 122.555C78.3808 122.653 77.9706 122.468 77.7742 122.307C77.6933 122.237 77.7569 121.798 77.8897 121.683C80.8765 119.094 82.3323 115.361 84.828 112.409C85.5097 111.605 84.9031 111.074 84.7298 110.398C83.5166 110.363 82.806 111.051 82.2572 111.877C81.7142 112.692 81.1942 113.553 80.8649 114.466C80.0504 116.719 78.3923 118.389 77.0405 120.267C76.6881 120.758 76.1682 120.723 75.7291 120.452C75.2207 120.14 75.55 119.764 75.7118 119.348C76.6477 116.95 77.5604 114.546 78.4212 112.12C78.843 110.924 78.7505 109.964 78.2364 108.624C76.8499 109.415 75.9313 110.542 75.2612 111.952C74.152 114.281 73.0774 116.632 71.7718 118.851C70.7262 120.637 69.3859 122.255 68.138 123.919C67.6874 124.52 66.9479 124.589 66.3471 124.069C65.7983 123.589 65.3419 123 64.8971 122.411C63.863 121.035 62.904 119.602 61.8295 118.262C60.8993 117.095 59.6515 116.476 58.109 116.621C57.3869 116.69 57.1096 117.048 57.3522 117.736C57.5544 118.302 57.8722 118.857 58.2303 119.342C60.0848 121.856 61.246 124.652 62.0259 127.674C62.4476 129.315 63.1466 130.945 64.0363 132.384C65.0531 134.03 65.2553 135.712 64.926 137.497C64.2443 141.172 63.5048 144.841 62.7307 148.499C61.6677 153.486 60.5758 158.461 59.4377 163.43C59.1258 164.782 58.6174 166.094 57.8664 167.376C57.8548 167.139 57.7971 166.897 57.8375 166.671C59.1604 159.986 60.5296 153.306 61.8006 146.61C62.4534 143.183 62.9444 139.722 63.4701 136.272C63.6492 135.094 63.3373 134.03 62.8058 132.915C61.9854 131.211 61.402 129.391 60.83 127.576C59.9404 124.745 58.9005 122.006 56.942 119.695C56.4799 119.152 56.1564 118.447 55.9311 117.759C55.5093 116.488 56.0119 115.61 57.2944 115.217C58.577 114.824 59.7844 115.176 60.7954 115.899C61.7832 116.603 62.6845 117.476 63.4701 118.401C64.3425 119.429 65.0415 120.602 65.8214 121.706C66.168 122.197 66.5436 122.671 66.9595 123.237C69.8018 120.226 71.8238 116.892 73.4125 113.264C73.9786 111.975 74.5795 110.669 75.3883 109.537C75.9313 108.78 76.8152 108.19 77.6586 107.746C78.5483 107.283 79.2416 107.566 79.5997 108.491C79.877 109.202 80.0619 110.063 79.9348 110.791C79.7326 111.987 79.2416 113.137 78.8661 114.304C78.6639 114.939 78.4617 115.581 78.2537 116.216C78.1381 116.465 78.0226 116.719 77.9128 116.968C77.884 116.996 77.8551 117.02 77.8204 117.048C77.8435 117.014 77.8608 116.979 77.884 116.944C78.011 116.707 78.1381 116.471 78.2652 116.234L78.2941 116.216Z" fill="black"/>
<path d="M124.551 22.4713V17.3923C124.551 15.0752 123.985 13.2724 124.834 12.7639C125.684 12.2555 126.469 12.6484 126.978 13.44C127.486 14.2316 127.827 15.3988 127.827 15.3988C127.827 15.3988 133.529 11.1229 134.655 10.73C135.782 10.3371 136.406 9.77084 136.406 10.73C136.406 11.6892 134.823 13.3822 134.823 13.3822C134.823 13.3822 137.249 12.3652 137.873 13.2146C138.491 14.064 138.382 14.9076 138.382 14.9076C138.382 14.9076 140.242 15.3006 139.907 16.0344C139.566 16.7682 136.914 18.4728 136.914 18.4728C136.914 18.4728 141.16 19.1315 141.374 20.0964C141.588 21.0614 140.357 21.6219 138.832 21.8472C137.307 22.0726 133.563 22.5233 132.98 23.0317C132.396 23.5402 129.687 25.291 129.687 25.291L124.551 22.4655V22.4713Z" fill="white"/>
<path d="M141.282 19.0332C140.421 18.6287 139.462 18.4323 138.878 18.2531C139.219 17.7909 139.676 17.2131 140.092 16.6064C140.479 16.0401 140.6 15.3872 139.936 14.9942C139.265 14.6013 139.04 14.1449 139.04 13.3764C139.04 12.7696 138.52 12.4172 137.879 12.4461C137.469 12.4634 137.064 12.5559 136.625 12.6194C136.666 12.4172 136.66 12.2958 136.712 12.1976C137.03 11.5793 137.336 10.9726 136.752 10.337C136.157 9.68988 135.487 9.78233 134.725 10.0192C133.159 10.5104 131.836 11.3598 130.663 12.475C129.959 13.1452 129.271 13.8386 128.543 14.5493C128.145 13.8848 127.85 13.2666 127.445 12.7408C126.764 11.8625 125.822 11.5505 125.031 11.8451C124.072 12.2034 123.765 12.9834 123.823 13.9022C123.939 15.9823 124.101 18.0567 124.28 20.131C124.297 20.3275 124.545 20.5066 124.69 20.6915C124.909 20.524 125.296 20.3737 125.32 20.183C125.452 19.1025 125.603 18.0047 125.545 16.9242C125.481 15.7339 125.158 14.5551 125.556 13.2261C126.735 13.9426 127.012 14.9307 127.064 16.0748C127.076 16.3579 127.278 16.7855 127.497 16.8722C127.775 16.9762 128.191 16.8606 128.491 16.7219C128.676 16.6352 128.728 16.2943 128.901 16.1325C130.426 14.7169 131.934 13.2723 133.523 11.926C134.072 11.458 134.788 11.0766 135.944 11.2962C134.245 12.8737 132.749 14.2604 131.189 15.7107C131.94 16.2423 132.483 16.0285 133.038 15.7512C134.078 15.2254 135.117 14.688 136.18 14.2142C136.637 14.012 137.157 13.9542 137.648 13.8328C137.706 13.9773 137.763 14.1275 137.821 14.272C136.059 15.7107 133.702 16.121 131.443 17.5193C134.395 17.866 136.4 15.7916 139.346 16.0112C138.485 16.5543 137.954 16.9068 137.405 17.2304C136.723 17.6349 135.92 17.9064 135.372 18.438C134.863 18.9292 134.372 19.0736 133.743 19.0679C133.251 19.0621 132.743 18.9927 132.269 19.0852C130.848 19.3683 129.404 19.663 128.497 21.304C128.924 21.3271 129.057 21.3791 129.15 21.3329C132.292 19.819 135.73 20.1195 139.057 19.7323C139.294 19.7035 139.56 19.7266 139.791 19.7959C140.092 19.8884 140.369 20.0559 140.975 20.3391C140.022 20.68 139.416 20.9689 138.774 21.1191C136.96 21.5409 135.094 21.7431 133.338 22.3787C131.588 23.0143 130.039 24.1238 128.584 25.2678C128.283 25.5047 127.971 25.7648 127.838 26.123C127.705 26.4813 127.838 26.9666 128.197 27.088C128.641 27.2324 129.04 26.7933 129.335 26.4235C129.855 25.7705 130.484 25.2043 131.189 24.7536C131.894 24.3029 132.784 24.1006 133.396 23.517C133.523 23.4997 133.65 23.4766 133.766 23.4535C135.868 23.0201 137.96 22.5405 140.034 21.9974C140.6 21.8472 141.16 21.4774 141.594 21.0729C142.431 20.2986 142.333 19.5243 141.293 19.039L141.282 19.0332Z" fill="black"/>
<path d="M64.2212 22.558C63.9265 23.1069 63.7301 23.6269 63.4008 24.0429C62.9906 24.563 62.5169 25.0599 61.9912 25.4586C61.4828 25.8457 60.8762 25.9151 60.2639 25.551C59.5879 25.1523 59.3858 24.5514 59.4435 23.8291C59.5475 22.4366 60.3967 21.6277 61.6041 21.0961C62.8289 20.5587 63.0138 20.3334 62.7307 19.0506C61.8526 15.0926 59.6053 12.1572 55.9368 10.3891C55.3591 10.1118 54.6254 10.1753 53.9784 10.0193C53.7184 9.95576 53.2794 9.68996 53.3025 9.60329C53.3718 9.29127 53.5567 8.82323 53.782 8.77123C54.3481 8.63833 54.9894 8.57477 55.5498 8.70767C58.2072 9.34327 60.0501 11.1518 61.6504 13.2204C63.1928 15.2081 64.0016 17.5194 64.2616 20.0098C64.3309 20.6858 64.5793 21.0787 65.1108 21.5063C65.8619 22.113 66.5667 22.8411 67.0808 23.6558C69.1895 26.9898 69.3685 30.711 69.0624 34.5072C69.0624 34.5708 69.0508 34.6343 69.0277 34.6863C68.8082 35.1428 68.8775 35.9113 68.0629 35.7842C67.3639 35.6744 67.5488 35.0446 67.5488 34.5881C67.5314 32.8778 67.7394 31.1385 67.5025 29.4629C67.2657 27.7872 66.6706 26.1462 66.1045 24.5399C65.8041 23.6847 65.1686 22.9855 64.2327 22.5464L64.2212 22.558ZM62.7134 22.321C61.0033 22.8006 60.9571 22.8526 60.9225 24.3261C62.0836 24.1527 62.4014 23.3322 62.7134 22.321Z" fill="#29A6FF"/>
<path d="M117.942 63.6638C118.295 64.178 118.595 64.5016 118.768 64.883C119.121 65.6515 118.901 66.5355 118.306 67.0787C117.457 67.853 116.29 67.5583 115.99 66.4546C115.851 65.9404 115.868 65.3799 115.799 64.6634C115.256 64.7674 114.776 64.7848 114.355 64.9523C111.963 65.8999 110.212 67.5294 109.196 69.9216C108.994 70.3954 108.728 70.8461 108.485 71.3256C107.538 70.8172 107.728 70.17 107.988 69.6326C109.508 66.4835 111.507 63.7794 115.273 63.2651C116.342 63.1206 116.839 62.6179 117.405 61.8494C120.617 57.51 124.834 54.5863 130.034 53.1013C130.6 52.9395 131.414 52.5524 131.617 53.3498C131.83 54.1876 130.906 54.1587 130.351 54.28C128.52 54.673 126.862 55.4183 125.348 56.5277C123.118 58.163 120.808 59.7 119.132 61.965C118.734 62.5082 118.358 63.0686 117.936 63.6696L117.942 63.6638Z" fill="#29A6FF"/>
<path d="M78.3461 22.4597C79.386 19.6746 79.1607 17.0051 78.4039 14.3934C77.9995 13.0008 77.2369 11.7123 76.6823 10.3544C76.5668 10.0713 76.6534 9.70729 76.6477 9.37793C76.9538 9.48771 77.3813 9.49927 77.5547 9.71306C78.8718 11.383 79.6171 13.3302 80.137 15.3641C80.8072 17.9874 80.7089 20.6049 79.6806 23.1242C79.4149 23.7829 79.542 24.3029 79.7962 24.875C80.5414 26.5449 80.7032 28.3072 80.5472 30.0985C80.501 30.6243 80.2757 31.1501 80.0504 31.6355C79.981 31.7857 79.6171 31.907 79.4322 31.8608C79.2473 31.8146 79.0451 31.5603 78.9989 31.3581C78.9354 31.0692 78.9296 30.7225 79.022 30.4509C79.6286 28.7406 78.8776 27.2209 78.5021 25.4701C77.9533 25.7822 77.5547 26.0306 77.1387 26.2502C76.0122 26.8338 74.643 26.7991 74.0191 26.1866C73.4009 25.5799 73.2854 24.5976 73.7187 23.6153C74.2097 22.4944 75.007 22.0148 76.3877 22.1072C76.9827 22.1477 77.5662 22.3153 78.3461 22.4597ZM77.3467 24.0834C76.4975 23.5056 75.8793 23.4016 75.3363 23.9563C75.1341 24.1643 75.1687 24.6034 75.0994 24.9385C75.4114 24.9906 75.7869 25.1812 76.018 25.0714C76.457 24.8692 76.821 24.4879 77.3409 24.0834H77.3467Z" fill="#29A6FF"/>
<path d="M116.198 77.6067C113.384 76.1506 110.675 76.191 107.936 77.3813C107.52 77.5605 107.052 78.121 106.706 77.4854C106.602 77.2947 107.041 76.6128 107.387 76.4048C108.006 76.035 108.716 75.7403 109.421 75.6074C111.998 75.1105 114.557 74.9776 116.897 76.4915C117.376 76.8035 117.78 76.8151 118.26 76.5551C120.744 75.2145 123.436 75.099 126.157 75.307C128.231 75.463 129.924 76.3817 131.062 78.173C131.582 78.9935 131.536 79.1668 130.877 80.0277C130.773 79.9642 130.611 79.9237 130.577 79.8313C129.612 77.1502 127.278 76.7515 124.921 76.532C123.061 76.3586 121.27 76.8209 119.525 77.4911C118.63 77.8378 118.081 78.3174 118.196 79.3806C118.289 80.2531 117.798 80.9118 117.081 81.3683C116.463 81.7612 115.787 81.819 115.192 81.3394C114.632 80.8829 114.661 80.2069 114.921 79.6464C115.221 78.9877 115.695 78.4099 116.203 77.6125L116.198 77.6067ZM116.486 79.6984C116.469 79.7504 116.44 79.8024 116.434 79.8602C116.434 79.8717 116.509 79.8949 116.544 79.9122C116.561 79.8602 116.59 79.8082 116.596 79.7504C116.596 79.7331 116.527 79.7157 116.486 79.6984Z" fill="#29A6FF"/>
<path d="M100.443 36.5642C100.091 36.4082 99.6462 36.333 99.4209 36.0672C99.3169 35.9459 99.548 35.3161 99.7906 35.1601C100.651 34.5996 101.535 34.016 102.494 33.6809C103.707 33.2533 104.672 34.1662 104.557 35.4432C104.424 36.8531 102.454 38.3207 101.073 38.026C100.183 37.8354 100.53 37.0784 100.42 36.5353C101.634 36.4544 102.475 35.9286 102.945 34.9578C101.94 35.5992 101.189 36.0846 100.443 36.5642Z" fill="black"/>
<path d="M134.69 25.4008C133.777 26.3079 132.749 27.1169 131.929 28.0992C129.317 31.1963 126.85 34.4147 124.205 37.4772C120.912 41.2907 117.544 45.035 114.095 48.7099C111.911 51.0385 109.548 53.1996 107.243 55.4126C106.625 56.002 105.961 56.5682 105.233 57.0247C103.309 58.2323 100.929 58.007 99.2476 56.5336C97.8726 55.3375 97.6473 53.7543 98.0633 52.1537C98.7103 49.6633 99.5249 47.2076 100.981 45.0408C104.926 39.1586 109.329 33.6347 114.441 28.7232C116.342 26.8973 118.439 25.2737 120.449 23.5691C121.709 22.4944 122.962 21.4138 124.239 20.3564C125.088 19.663 125.972 19.0043 126.839 18.3398H128.688C129.785 19.3915 130.854 20.4778 131.986 21.4889C132.807 22.217 133.731 22.841 134.598 23.5171C135.533 24.2567 135.551 24.5572 134.696 25.4123L134.69 25.4008Z" fill="#4361EE"/>
<path d="M138.226 164.863V166.342C137.642 167.278 136.793 167.584 135.712 167.492C132.778 167.243 129.843 167.007 126.902 166.81C125.556 166.723 124.199 166.718 122.847 166.723C119.034 166.723 115.221 166.868 111.408 166.747C108.352 166.66 105.29 166.354 102.246 165.995C100.155 165.747 99.8137 165.198 99.8022 163.089C99.7849 160.818 99.7386 158.542 99.7155 156.271C99.6982 154.676 99.7964 154.451 101.362 154.15C103.159 153.803 104.99 153.607 106.81 153.37C112.633 152.596 118.479 153.179 124.314 153.099C127.567 153.052 130.825 153.278 134.078 153.33C135.181 153.347 135.828 153.879 136.082 154.878C136.596 156.895 137.07 158.923 137.515 160.957C137.798 162.251 137.989 163.569 138.226 164.869V164.863Z" fill="#E76100"/>
<path d="M80.5183 168.284C78.739 168.284 76.9538 168.284 75.1687 168.284C75.1687 168.208 75.1687 168.133 75.1572 168.064C70.5644 168.347 65.9658 168.648 61.3731 168.913C59.9577 168.994 58.5481 169.017 57.1327 169C56.1506 168.989 55.9253 168.746 56.1044 167.752C56.295 166.671 56.4394 165.504 56.9536 164.568C58.0917 162.505 58.265 160.223 58.6405 158.016C59.38 153.665 59.9461 149.285 60.5354 144.911C60.6394 144.148 60.9976 143.83 61.7081 143.773C66.0467 143.397 70.3853 143.021 74.7239 142.652C76.1913 142.53 77.6587 142.415 79.126 142.357C79.5998 142.34 80.1139 142.438 80.5414 142.629C81.1076 142.889 81.3964 143.305 81.4195 144.067C81.4831 146.639 81.7084 149.198 81.8759 151.764C81.9279 152.625 82.0203 153.48 82.0261 154.341C82.0434 156.86 82.003 159.385 82.055 161.905C82.0781 163.314 82.2168 164.718 82.3612 166.123C82.5692 168.093 82.4132 168.295 80.5125 168.289L80.5183 168.284Z" fill="#E76100"/>
<path d="M43.2908 166.972C41.5808 166.77 39.865 166.654 38.155 166.486C34.4981 166.14 30.8412 165.787 27.1785 165.435C26.8146 165.4 26.4449 165.36 26.0751 165.354C21.0375 165.227 15.9999 165.117 10.9681 164.967C9.68555 164.926 8.40304 164.736 7.12053 164.603C6.38107 164.528 6.01711 164.077 6.02866 163.366C6.04022 162.817 6.08066 162.251 6.23664 161.737C7.11475 158.836 8.47237 156.155 10.0784 153.59C10.8583 152.341 12.1408 152.058 13.458 152.105C18.0623 152.255 22.6609 152.497 27.2594 152.659C32.1122 152.833 36.9649 152.983 41.8119 153.075C44.5444 153.127 44.5444 153.075 44.5098 155.878C44.5098 155.999 44.5098 156.126 44.5098 156.247C44.5329 156.247 44.5618 156.247 44.5849 156.259C44.452 157.415 44.2614 158.57 44.192 159.732C44.0765 161.639 44.1054 163.522 44.7004 165.383C45.151 166.793 44.7466 167.134 43.3024 166.966L43.2908 166.972Z" fill="#E76100"/>
<path d="M64.2963 56.5162C66.3645 56.1926 68.2305 57.0016 70.0213 58.2092C72.4131 59.8213 74.8857 61.3179 77.2658 62.9473C78.3692 63.7043 79.3744 64.6172 80.3334 65.5533C80.8823 66.0849 81.2751 66.6511 82.1879 66.3911C82.4247 66.3218 83.0487 66.6916 83.0429 66.836C83.0256 67.2001 82.8349 67.6565 82.5518 67.8761C81.7142 68.5406 80.7898 68.4944 80.1139 67.593C76.977 63.4154 72.3668 61.2543 68.086 58.6368C66.9075 57.9145 65.5614 57.5852 64.1981 57.7643C62.2627 58.0185 60.3505 58.4404 58.421 58.7524C58.1264 58.7986 57.8028 58.6368 57.4909 58.5675C57.6237 58.2612 57.6757 57.8279 57.9068 57.6719C59.224 56.7762 60.8011 56.7473 62.309 56.522C62.9098 56.4296 63.5337 56.5047 64.2963 56.5047V56.5162Z" fill="white"/>
</g>
<defs>
<clipPath id="clip0_404_3266">
<rect width="143" height="169" fill="white" transform="translate(0.5)"/>
</clipPath>
</defs>
</svg>
