<svg width="156" height="169" viewBox="0 0 156 169" fill="none" xmlns="http://www.w3.org/2000/svg">
<path d="M65.8122 24.3955C65.5395 23.5664 65.2557 22.726 65.111 21.8691C64.4766 18.0348 63.0409 14.6013 60.3086 11.7687C59.9079 11.3513 59.5406 10.9061 59.3013 10.639C59.5573 9.93785 59.9802 9.3591 59.8912 8.88608C59.7409 8.12925 58.9229 8.47984 58.3775 8.38524C58.2718 8.36854 58.1715 8.29063 57.999 8.20716C57.9156 7.49485 57.8822 6.73245 57.7152 6.00345C57.654 5.73077 57.2422 5.2967 57.0697 5.33566C56.7358 5.408 56.2906 5.69738 56.1849 5.99788C55.94 6.71019 55.8733 7.48372 55.7063 8.36298C50.6534 4.61778 44.966 3.66062 38.9837 3.87208C38.0432 3.90547 37.1027 4.11694 36.1623 4.15589C30.013 4.41188 24.6485 6.62672 19.9963 10.6112C18.6106 11.8021 17.2471 13.0208 15.8614 14.2395C15.4663 12.0803 14.9654 11.3346 13.3294 10.4943C10.7027 9.14763 8.1318 9.4537 5.75557 11.0008C3.3237 12.5868 1.93241 15.0019 1.09767 17.7287C0.875069 18.4522 0.635821 19.2535 0.72486 19.9825C1.12553 23.3215 2.29971 26.3043 5.14895 28.3578C5.69431 28.7473 5.85575 29.0701 5.76114 29.7991C5.28256 33.4886 4.92085 37.1893 4.51461 40.89C4.31427 42.7097 4.11944 44.5294 3.89684 46.3492C3.65755 48.3414 3.2848 50.3225 3.16237 52.3203C2.95647 55.7873 2.96192 59.2653 2.77271 62.7379C2.56125 66.6333 2.40554 70.5455 1.91026 74.4131C1.41498 78.2584 1.86571 81.9647 2.85627 85.632C3.46841 87.8969 4.68715 89.8724 6.49018 91.425C6.92981 91.8035 7.50297 92.3099 7.98711 92.282C9.31157 92.2041 9.96815 93.0166 10.686 93.8569C11.8324 95.1981 13.2069 96.1831 15.0044 96.4502C15.9393 96.5893 16.8742 96.7173 17.8092 96.8342C19.8404 97.0957 21.3874 96.2944 22.5059 94.6249C22.8621 94.0906 23.1571 93.5119 23.6079 92.7384C24.2868 93.3449 24.7987 93.8291 25.3441 94.2743C25.8894 94.725 26.4293 95.2092 27.0414 95.5487C28.7165 96.4724 30.3136 96.1107 31.3877 94.5247C31.844 93.8514 32.111 93.0444 32.4338 92.2876C32.6286 91.8369 32.7844 91.4195 33.4077 91.464C34.3092 91.5197 34.6987 90.9075 34.8212 90.1618C35.0215 88.9431 35.1273 87.7077 35.2664 86.4778C35.6671 82.9497 36.0009 79.4215 35.9509 75.86C35.9286 74.2072 36.1345 72.5544 36.1845 70.9016C36.2235 69.6606 36.2402 68.4141 36.14 67.1787C36.0955 66.6166 35.9676 66.1992 36.5241 65.793C36.7467 65.6316 36.7021 65.0974 36.7745 64.7301C36.396 64.7078 35.9675 64.5632 35.6503 64.6911C32.7844 65.8431 29.7738 65.7707 26.919 65.1308C21.1593 63.8341 16.9466 60.139 13.5409 55.4701C12.2665 53.7227 12.1553 51.7527 12.7396 49.7104C12.9177 49.0871 13.0512 48.4416 13.0901 47.796C13.2571 45.0803 13.3461 42.3591 13.5298 39.6434C13.6633 37.7013 13.8804 35.7591 14.103 33.8225C14.3534 31.6522 14.6372 29.4819 14.9377 27.3171C15.2994 24.7572 15.6946 22.1974 16.1008 19.4483C17.186 19.81 18.1041 20.1217 19.078 20.4444C18.9388 20.7004 18.8832 20.8674 18.7719 20.9954C16.1564 23.9949 15.3829 27.5063 16.3512 31.2682C17.8259 37.0112 21.4543 40.2222 27.2084 40.0608C30.4694 39.9718 33.5413 38.2689 35.7005 35.7702C36.1401 36.0819 36.6576 36.2433 37.1473 36.5048C37.7705 36.8443 38.3549 37.2282 38.8836 37.7068C39.9799 38.7085 40.7589 39.9384 41.1985 41.3519C41.627 42.7375 43.8475 42.1087 43.3634 40.7564C42.7401 39.0201 41.7439 37.462 40.3248 36.2711C39.4344 35.5198 38.0822 34.5348 36.7912 34.3289C38.0155 32.4424 38.7556 30.261 38.7723 28.0294C38.7723 27.5564 38.7499 27.0778 38.7945 26.6104C38.9002 25.5085 39.0394 25.297 40.1691 25.1468C42.7401 24.8129 45.2609 24.3121 47.8319 23.0878C46.8859 26.3933 46.3461 29.5153 46.4964 32.7262C46.6466 35.9427 46.8692 39.1481 47.9654 42.437C49.5848 40.7453 51.0762 39.3151 52.423 37.7569C56.2349 33.3606 60.2195 29.1647 65.1946 26.0483C65.8401 25.6421 66.0348 25.1412 65.7955 24.4067L65.8122 24.3955ZM30.8479 82.8773C30.8924 82.9497 30.8756 83.0554 30.8756 83.15C30.7921 83.0999 30.6864 83.061 30.6419 82.9831C30.5807 82.8718 30.5752 82.7326 30.5473 82.5991C30.6475 82.6881 30.7755 82.7605 30.8423 82.8718L30.8479 82.8773ZM27.3864 92.4657C28.21 92.9443 29.0337 93.4173 29.9574 93.9515C28.8166 94.6082 28.1877 94.1852 27.3864 92.4657ZM24.9044 66.9895C25.1938 67.1787 25.4109 67.2566 25.5278 67.4124C25.9451 67.98 25.4943 68.1692 24.9044 68.4976V66.9895ZM4.92641 87.3849C4.44782 85.8045 4.00815 84.4244 3.6353 83.022C3.58522 82.8272 3.8524 82.5434 3.97483 82.2986C4.20299 82.421 4.45895 82.51 4.64259 82.6826C4.80954 82.8328 4.85958 83.1055 5.0154 83.2724C6.13395 84.4912 6.21746 85.7488 4.92084 87.3849H4.92641ZM7.89255 69.5215C7.00959 69.1876 6.79804 68.3343 7.25808 66.9616C8.42115 67.7018 8.5993 68.5198 7.89255 69.5215ZM9.45062 64.5353C8.75686 64.105 8.75686 63.7024 9.45062 63.3277V64.5353ZM15.6779 85.0866C14.8153 85.7933 13.8415 86.3721 12.8954 86.9675C12.7619 87.051 12.389 86.9675 12.2999 86.8395C12.2053 86.7116 12.2386 86.3498 12.3555 86.2274C13.3405 85.2146 14.3645 84.2407 15.3718 83.2557C16.3846 84.2352 16.4625 84.4466 15.6834 85.0866H15.6779ZM17.3195 76.294C17.1414 76.1104 16.9578 75.9379 16.7964 75.7431C16.7742 75.7153 16.8909 75.5761 16.941 75.4871C17.1469 75.654 17.3473 75.821 17.5476 75.9824C17.4363 76.1326 17.3751 76.2105 17.3139 76.294H17.3195ZM20.7753 69.1375C21.3485 68.709 22.0219 69.1153 21.9161 69.8387C21.6768 71.4525 21.5043 73.1387 19.6623 74.146C19.1949 73.7731 18.7163 73.4336 18.2878 73.0441C17.5866 72.3986 17.5031 72.0424 18.1208 71.4191C18.9389 70.59 19.846 69.8331 20.7753 69.1375ZM16.813 64.7802C17.1692 65.0751 17.4363 65.2922 17.7035 65.5148C18.1598 65.8932 18.1319 66.3217 17.7757 66.7279C17.0579 67.546 16.3178 68.3417 15.3328 69.4325C15.4163 67.4569 15.7779 66.049 16.8186 64.7802H16.813ZM13.2348 60.6288C14.7707 61.6082 14.7707 61.7974 13.0845 63.1831C13.1402 62.237 13.1847 61.4635 13.2348 60.6288ZM12.4891 81.5473C12.2164 81.8367 11.8937 82.0815 11.5876 82.3487C11.493 82.2986 11.3928 82.2485 11.2982 82.204C11.5097 81.5362 11.7211 80.874 11.9493 80.1505C13.079 80.9073 13.0846 80.9129 12.4836 81.5473H12.4891ZM13.5409 16.6269C13.4741 16.7215 13.3239 16.7994 13.3184 16.8884C13.1458 19.376 11.3706 21.2513 10.764 23.5775C10.4357 24.8352 9.90699 26.0372 9.62874 27.3004C9.4284 28.1908 8.91642 28.3132 8.22637 28.1908C7.01321 27.9793 5.9336 27.4284 5.28807 26.3766C3.95249 24.2008 2.834 21.9303 2.84513 19.2702C2.85626 16.3876 4.1362 14.1282 6.33435 12.4142C7.08005 11.8355 8.13736 11.6574 8.95541 11.3346C10.2966 11.6964 11.4874 11.8633 12.5392 12.3419C14.2365 13.1154 14.6316 15.0798 13.5465 16.6158L13.5409 16.6269ZM29.6513 38.28C26.919 39.1259 24.6373 38.1965 22.4281 36.8943C17.1247 33.7669 15.7057 27.2837 19.3007 22.6148C21.3485 19.9547 24.1699 18.7805 27.6035 18.7916C30.1021 18.6915 32.3559 19.6542 34.4372 21.1011C35.9898 22.1807 36.7133 23.7611 36.9526 25.5976C37.0472 26.2987 37.1307 26.9999 37.242 27.6955C37.9543 32.2476 33.4633 37.1114 29.6569 38.2856L29.6513 38.28ZM56.836 14.8127C56.0625 14.2507 55.4838 13.8277 54.905 13.4104C55.9234 13.3158 56.7303 13.466 56.836 14.8127ZM46.5354 8.79148C45.9677 8.51323 45.4334 8.16264 44.9047 7.81205C44.838 7.76753 44.8603 7.43363 44.9493 7.36129C45.1107 7.22217 45.3667 7.07191 45.5504 7.1053C46.6689 7.30564 47.4813 7.979 48.266 8.78035C47.5648 9.38136 47.0306 9.03633 46.5354 8.79148ZM48.1157 30.5837C48.1881 29.0144 47.4479 27.2448 49.1063 26.0594C49.1842 27.6677 48.6499 29.1257 48.1157 30.5837ZM51.8999 30.1163C51.9444 29.3594 51.8109 28.547 52.5065 27.7679C52.6122 28.7529 52.3117 29.4485 51.8999 30.1163ZM54.1147 22.2809C53.0685 22.1863 52.6512 21.5352 52.8238 20.2441C53.4415 20.5001 54.0591 20.6948 54.5934 21.0176C54.8048 21.1456 54.9885 21.6298 54.905 21.8412C54.8104 22.0694 54.3763 22.3087 54.1147 22.2809ZM55.033 32.537L54.8048 32.4257C55.1609 31.4852 55.5171 30.5448 55.9567 29.3873C56.5744 29.7323 56.964 29.9493 57.5038 30.2498C56.6134 31.0734 55.8232 31.8024 55.0274 32.537H55.033ZM58.4721 23.9002C58.3163 23.839 58.1438 23.7333 58.0547 23.5997C57.9768 23.4718 57.9434 23.2547 57.999 23.1212C58.0491 22.9987 58.2718 22.8262 58.3608 22.854C59.9023 23.3048 61.4438 23.7667 62.3508 25.3638C61.0542 24.8797 59.7632 24.4011 58.4721 23.9058V23.9002Z" fill="#86B4EC"/>
<path d="M33.9085 52.0921C31.6158 51.9864 29.9296 50.9123 28.5995 49.215C28.4437 49.0203 28.5717 48.6029 28.5717 48.2913C28.8277 48.3636 29.1559 48.358 29.3229 48.5194C30.8588 49.9886 32.6507 50.6786 34.7821 50.4449C35.0103 50.4171 35.2718 50.4059 35.4777 50.4894C35.6669 50.5618 35.9063 50.751 35.9396 50.9235C35.9786 51.1015 35.8451 51.4466 35.7004 51.5078C35.1216 51.7471 34.5095 51.9029 33.9085 52.0921Z" fill="black"/>
<path d="M32.6286 34.7406C32.2057 34.479 31.7827 34.3399 31.5991 34.0505C31.4599 33.8335 31.5489 33.3716 31.6881 33.0989C32.1165 32.2586 32.7677 32.0249 33.7193 32.2864C34.5819 32.5202 34.7989 33.0099 34.209 33.6109C33.786 34.045 33.2074 34.3343 32.6286 34.7406Z" fill="black"/>
<path d="M12.1107 22.5089C11.799 22.9262 11.6543 23.2768 11.4039 23.3993C11.237 23.4772 10.7973 23.2935 10.6805 23.0987C9.94032 21.88 9.32274 20.6057 9.27265 19.1421C9.25596 18.7247 9.27264 18.2127 9.818 18.2183C10.074 18.2183 10.4468 18.5299 10.5636 18.7915C11.1201 20.0102 11.6043 21.2679 12.1163 22.5089H12.1107Z" fill="black"/>
<path d="M138.351 129.995C138.596 134.664 134.828 139.228 130.148 139.856C128.623 140.062 127.188 139.79 125.891 138.426C124.9 140.018 124.055 141.437 123.148 142.817C121.584 145.188 120.003 147.553 118.384 149.879C117.238 151.532 115.78 152.072 113.643 151.793C110.882 151.437 108.389 150.391 105.824 149.539C102.346 148.388 98.9625 146.968 95.5345 145.677C94.761 145.382 93.9706 145.138 93.1804 144.876C89.1347 143.546 85.0501 142.283 81.2826 140.274C79.7968 139.484 78.528 138.27 77.2091 137.18C76.4856 136.584 76.1406 135.699 76.3632 134.776C76.8529 132.711 77.3537 130.641 78.016 128.632C78.3721 127.564 78.8953 127.586 79.7467 128.393C79.9693 128.604 80.3311 128.777 80.6316 128.793C83.0523 128.933 85.4785 129.122 87.8993 129.111C89.2349 129.1 90.6039 128.849 91.9061 128.515C96.6029 127.324 101.227 125.866 106.041 125.165C106.737 125.065 107.415 124.82 108.078 124.581C108.317 124.497 108.684 124.241 108.684 124.063C108.684 123.028 109.458 122.845 110.176 122.561C115.273 120.524 119.903 117.669 124.288 114.397C124.528 114.219 124.761 114.041 124.962 113.829C125.246 113.529 125.49 113.206 125.719 112.933C125.429 112.538 124.94 112.165 124.995 111.893C125.118 111.225 126.064 110.73 126.615 110.891C126.893 110.969 127.165 111.103 127.427 111.242C129.414 112.293 131.423 113.317 133.382 114.425C135.251 115.477 135.63 116.807 134.623 118.754C133.732 120.491 132.741 122.171 131.745 123.974C132.569 124.152 133.365 124.247 134.105 124.486C136.77 125.332 138.206 127.219 138.351 129.984V129.995Z" fill="#E76100"/>
<path d="M128.907 97.3905C127.26 100.468 125.696 103.601 123.882 106.578C121.934 109.772 119.152 112.154 115.785 113.829C113.932 114.753 112.107 115.721 110.248 116.645C109.141 117.196 108.033 117.597 106.72 117.647C105.585 117.686 104.416 118.192 103.359 118.693C98.6786 120.919 93.7147 121.437 88.6339 121.203C87.8882 121.164 87.0591 120.991 86.4469 120.607C85.5343 120.029 84.6494 120.034 83.7312 120.29C82.3678 120.663 81.06 120.546 79.7133 120.201C74.499 118.86 69.4739 116.968 64.51 114.92C63.5863 114.542 62.7515 113.952 61.8667 113.468C61.2712 113.134 60.7536 112.232 59.9355 113.195C59.8799 113.267 59.3235 113.089 59.2122 112.9C59.062 112.655 58.9951 112.215 59.1175 111.971C60.0023 110.168 60.8649 108.337 61.8833 106.606C65.3224 100.768 69.2513 95.2981 74.2264 90.6403C74.9609 89.9502 75.6566 89.2157 76.3411 88.4811C76.9254 87.8578 77.5431 87.6297 78.4056 87.9357C79.2905 88.2418 80.2253 88.4421 81.1547 88.598C82.0673 88.7538 82.7963 89.16 83.4696 89.7944C84.6438 90.8963 84.7662 91.0632 83.9983 92.5157C82.9187 94.5524 81.739 96.5391 80.4813 98.7651C86.8476 100.351 93.097 100.869 99.7693 100.479C96.9757 98.7929 94.2991 97.5964 91.4832 96.7172C90.8099 96.5057 90.0976 96.4111 89.4131 96.2386C87.905 95.8602 87.6712 95.3315 88.4225 93.9737C89.4965 91.9981 90.6039 90.0393 91.6779 88.0637C91.9339 87.5963 92.1286 87.1066 92.3457 86.6335C92.2344 86.5278 92.1676 86.3998 92.0786 86.3942C87.9883 85.8322 84.2821 84.0292 80.4145 82.7492C79.2793 82.3764 79.0344 81.5138 79.7245 80.5177C80.0305 80.0836 80.4146 79.6996 80.7874 79.3212C84.0262 76.0268 87.2594 72.7324 90.5093 69.4435C91.4721 68.4696 91.9394 68.3528 93.1915 69.0094C94.4437 69.6716 95.629 70.4674 96.8477 71.1964C99.2295 72.6155 101.611 74.0234 104.121 75.5148C104.21 75.3033 104.36 75.0195 104.461 74.7135C105.479 71.6861 107.51 69.6883 110.565 68.7757C114.166 67.7017 117.616 68.2248 120.821 70.0779C124.266 72.059 125.229 75.231 124.439 79.0986C123.782 82.3207 121.918 84.9307 119.831 87.3904C119.375 87.9246 118.913 88.4477 118.367 89.0765C118.818 89.4494 119.141 89.7833 119.519 90.0281C122.441 91.9425 125.374 93.8401 128.295 95.7489C129.33 96.4167 129.397 96.4946 128.913 97.4017L128.907 97.3905Z" fill="#FFCF33"/>
<path d="M139.102 58.4416C138.941 58.4416 141.334 75.0807 141.334 75.0807C141.334 75.0807 145.791 71.3856 147.372 69.8052C148.952 68.2247 151.612 63.7672 151.612 63.7672L139.108 58.436L139.102 58.4416Z" fill="white"/>
<path d="M142.959 67.0673C142.803 64.4518 142.174 61.9364 141.156 59.5157C140.555 58.1022 139.943 56.6887 139.364 55.2641C136.899 49.1427 133.248 43.7948 128.696 39.0479C127.716 38.0295 126.57 37.1669 125.496 36.2376C122.407 33.5609 119.375 30.8229 115.757 28.8418C115.29 28.5914 114.895 28.2185 114.455 27.918C112.875 26.8329 111.133 26.1206 109.269 25.6976C107.944 25.3971 106.597 25.169 105.306 24.785C102.134 23.8389 99.0013 22.776 95.8237 21.8523C91.2494 20.5334 86.5526 20.0604 81.8113 19.9825C80.5759 19.9658 79.3349 20.2273 78.0995 20.2217C75.484 20.2217 72.9186 20.4499 70.3476 20.9285C59.2846 22.9931 49.9632 28.1017 42.7177 36.7384C37.5312 42.9155 33.9418 49.9273 32.5784 57.9631C31.7047 63.0828 30.7976 68.1914 30.0185 73.3278C29.4898 76.8671 29.5177 80.4064 30.7475 83.8455C31.5823 86.1828 32.4505 88.5145 33.2017 90.874C34.1144 93.7567 35.0437 96.6337 36.6854 99.1992C38.021 101.292 39.2953 103.434 40.7978 105.404C43.0627 108.365 45.5002 111.192 47.8708 114.069C48.1268 114.386 48.4218 114.681 48.7278 114.953C49.6127 115.727 50.5087 116.495 51.4157 117.246C52.2839 117.959 53.0964 118.782 54.0646 119.316C58.1048 121.548 62.1449 123.785 66.2796 125.827C68.7115 127.029 71.2713 128.042 73.8646 128.832C77.2592 129.862 80.754 130.519 84.3489 129.99C84.8776 129.912 85.4173 129.912 85.946 129.923C89.502 129.995 93.0357 129.784 96.5528 129.205C101.355 128.415 106.024 127.202 110.465 125.143C114.466 123.29 118.039 120.747 121.723 118.381C123.877 116.996 125.774 115.31 127.438 113.351C131.367 108.726 134.595 103.612 137.65 98.4034C141.829 91.2692 142.981 83.3336 143.409 75.8654C143.248 72.5042 143.142 69.783 142.975 67.0673H142.959ZM131.601 85.6375C130.232 89.7277 129.013 93.9014 127.31 97.8525C123.331 107.101 116.804 113.79 107.032 116.968C102.685 118.381 98.2779 119.439 93.6702 119.572C91.4887 119.639 89.3128 120.123 87.137 120.101C83.5476 120.057 79.9192 120.201 76.3911 119.277C70.4477 117.725 64.9051 115.276 59.6017 112.188C57.2422 110.813 54.8548 109.533 52.7903 107.725C51.2766 106.4 49.7072 105.137 48.2715 103.729C47.5202 103 46.8803 102.093 46.4184 101.147C45.1163 98.498 43.7361 95.8491 42.7455 93.0722C41.844 90.529 41.3933 87.8245 40.8034 85.17C39.9297 81.2745 40.6142 77.4069 41.0816 73.5393C41.7772 67.8408 42.9291 62.2258 44.2146 56.6442C46.4573 46.8777 51.8386 39.4207 60.6924 34.5959C64.2373 32.6649 67.8768 30.9008 71.8613 30.1051C75.8012 29.3148 79.7746 28.647 83.9594 28.9364C87.2928 28.6582 90.6595 29.4039 94.0708 29.7322C98.4337 30.1496 102.496 31.4629 106.475 33.2158C108.579 34.1452 110.794 34.7963 112.786 36.0261C115.813 37.9015 118.289 40.3167 120.393 43.1381C122.023 45.3251 123.537 47.5901 125.19 49.7604C128.468 54.0454 130.332 58.9314 131.356 64.1513C131.779 66.2826 131.907 68.4808 132.079 70.6567C132.28 73.2499 132.369 75.8543 132.536 78.4476C132.697 80.9017 132.385 83.3113 131.606 85.6263L131.601 85.6375Z" fill="white"/>
<path d="M146.715 70.651L142.352 63.0994C142.352 63.0994 136.186 64.0343 134.645 61.1071C133.103 58.18 133.777 55.9985 133.777 55.9985C133.777 55.9985 132.046 54.841 131.167 53.3774C130.287 51.9139 131.167 50.1275 131.167 50.1275C131.167 50.1275 125.184 50.4559 123.226 45.236C121.267 40.0161 131.272 30.6113 131.272 30.6113C131.272 30.6113 123.031 27.3002 116.92 31.1511C110.805 35.0021 107.126 40.1107 104.416 40.6115C101.706 41.1123 100.014 39.3093 99.4688 37.8903C98.9234 36.4768 101.099 29.5707 105.123 26.3096C109.146 23.0486 118.128 18.1515 126.948 18.5354C135.769 18.9139 142.085 22.1304 144.923 25.1688C147.761 28.2073 152.319 39.6321 153.515 44.0896C154.712 48.5471 155.419 54.4181 153.949 58.8255C152.48 63.2274 146.721 70.6565 146.721 70.6565L146.715 70.651Z" fill="white"/>
<path d="M130.543 50.9679C129.386 50.723 128.434 50.6228 127.549 50.3223C124.889 49.4097 123.264 47.462 122.374 44.852C121.962 43.65 122.335 42.5092 122.713 41.3962C123.882 37.907 125.98 34.9798 128.356 32.2252C128.701 31.8245 129.074 31.4517 129.53 30.962C127.466 30.1161 125.412 30.105 123.37 30.2886C122.085 30.4055 120.794 30.6781 119.541 31.0176C117.755 31.4962 116.091 32.2753 114.667 33.4884C112.368 35.4473 110.081 37.4228 107.766 39.3594C107.087 39.927 106.369 40.4668 105.612 40.9176C102.897 42.5426 99.1516 40.3444 98.673 37.8346C98.4504 36.6604 98.7343 35.5864 99.1294 34.5402C101.155 29.2034 104.499 25.0019 109.63 22.2807C113.615 20.1716 117.928 19.22 122.268 18.3073C126.091 17.5004 129.909 17.5171 133.704 18.3908C136.114 18.9473 138.485 19.6039 140.727 20.7837C143.799 22.4031 146.047 24.7515 147.555 27.7844C149.264 31.2291 150.727 34.7906 152.397 38.2576C153.61 40.784 154.662 43.355 154.984 46.1431C155.942 54.4292 154.857 62.2591 149.236 68.848C147.756 70.5842 145.808 71.9254 144.077 73.4446C143.782 73.7061 143.387 73.8453 143.198 73.4279C143.098 73.2109 143.254 72.7378 143.454 72.5542C144.2 71.8808 145.034 71.3077 145.791 70.6399C150.716 66.3048 153.037 60.751 153.782 54.3124C154.205 50.6395 152.942 47.3173 152.375 43.8503C151.534 38.7417 149.186 34.2119 146.988 29.6264C146.426 28.4577 145.713 27.3503 144.951 26.3041C144.472 25.653 143.843 25.0242 143.142 24.6291C140.927 23.377 138.663 22.2139 136.392 21.0675C135.084 20.4053 133.799 19.7375 132.296 19.4593C129.809 18.9974 127.321 19.0308 124.862 19.2533C121.623 19.5427 118.445 20.2328 115.418 21.5461C111.517 23.2323 107.961 25.4694 104.811 28.2685C102.624 30.2163 101.222 32.8206 100.254 35.592C99.6914 37.2002 100.075 38.3856 101.25 39.2426C102.73 40.3277 104.054 40.4223 105.484 39.3205C107.688 37.6176 109.797 35.8034 111.957 34.0449C113.838 32.509 115.718 30.9731 118.061 30.1383C121.217 29.0142 124.517 28.6692 127.817 28.4856C128.907 28.4243 130.042 29.1088 131.183 29.4594C132.463 28.7304 133.827 27.9124 135.235 27.1667C136.637 26.421 138.19 26.3987 139.731 26.4321C140.165 26.4432 140.633 26.6102 140.516 27.15C140.466 27.3893 140.07 27.6508 139.787 27.7176C135.407 28.7638 131.896 31.1846 129.063 34.5903C127.243 36.7773 125.652 39.148 124.661 41.8525C123.276 45.6422 125.813 49.265 129.864 49.3819C130.666 49.4041 131.172 49.2483 131.501 48.4136C133.192 44.1007 136.119 40.7173 139.742 37.9237C140.955 36.9888 142.308 36.2264 143.604 35.4028C144.055 35.1134 144.5 35.041 144.828 35.8368C144.4 36.1318 143.927 36.4545 143.46 36.7829C140.143 39.1034 136.976 41.6299 134.817 45.1136C133.643 47.0112 132.736 49.0925 131.923 51.1793C131.183 53.0825 131.779 54.0286 133.882 54.9913C135.185 53.5277 136.359 51.9473 137.794 50.6507C140.432 48.2744 143.226 46.0707 145.958 43.8002C146.142 43.65 146.331 43.5053 146.543 43.3996C146.954 43.1937 147.416 42.8264 147.767 43.4385C148.067 43.9672 147.706 44.3066 147.31 44.6238C145.062 46.4547 142.753 48.2243 140.599 50.1609C139.063 51.5355 137.711 53.1215 136.325 54.6574C135.507 55.5645 135.19 56.7276 135.045 57.9129C134.856 59.4544 135.357 60.4727 136.854 60.9847C139.347 61.8417 141.846 62.0476 144.055 60.1667C145.034 59.3319 145.669 58.269 145.852 56.9891C145.997 56.0041 145.574 55.4921 144.595 55.52C144.016 55.5367 143.415 55.6813 142.881 55.9039C142.653 55.9985 142.441 56.4604 142.458 56.7387C142.502 57.4399 142.725 58.1299 142.797 58.8311C142.875 59.5434 142.291 59.983 141.668 59.6547C141.278 59.4488 140.838 59.0815 140.705 58.6864C139.998 56.6163 140.343 54.5962 141.289 52.6763C141.545 52.1643 142.224 52.1866 142.347 52.7486C142.552 53.7002 143.154 53.5333 143.799 53.5889C145.112 53.7002 146.236 53.3663 147.221 52.4704C147.989 51.7803 148.885 51.2906 149.965 51.5021C150.254 51.5577 150.655 51.8582 150.694 52.1031C150.733 52.3313 150.432 52.7375 150.176 52.8822C149.308 53.3775 148.39 53.7837 147.511 54.2178C148.312 57.8461 146.682 60.3559 143.882 62.2424C141.067 64.14 138.078 64.1233 135.14 62.5206C133.443 61.5969 132.797 60.0109 133.109 58.1522C133.298 57.0114 133.025 56.2991 132.068 55.6424C130.438 54.5238 129.787 52.9657 130.543 50.9456V50.9679Z" fill="black"/>
<path d="M9.34481 155.989C8.64919 157.425 9.99592 158.237 11.4484 159.395C12.9008 160.552 18.0484 164.181 18.0484 164.181L30.23 161.281C30.23 161.281 33.5633 164.325 36.9746 163.53C40.3803 162.734 42.1222 161.871 42.5562 159.768C42.9903 157.659 42.918 154.687 42.918 154.687C42.918 154.687 45.6003 154.309 46.3237 151.743C47.0472 149.178 46.3237 146.785 46.3237 146.785C46.3237 146.785 50.3138 144.464 50.8202 142.144C51.3266 139.823 50.3861 136.634 50.3861 136.634C50.3861 136.634 52.7569 135.254 54.3484 131.559C55.94 127.864 53.4302 119.784 47.7762 117.28C42.1223 114.77 34.1755 116.245 30.8866 117.28C27.5977 118.315 22.0439 121.119 20.0127 128.371C17.9815 135.622 15.3716 145.989 14.5035 147.725C13.6354 149.467 9.87905 154.915 9.35595 155.989H9.34481Z" fill="white"/>
<path d="M55.9622 119.962C54.5153 118.565 53.1242 117.09 51.5548 115.844C50.1302 114.709 48.5386 113.768 46.9471 112.867C45.8619 112.254 45.2609 112.505 44.5374 113.523C44.3649 113.763 44.2146 114.024 44.0866 114.286C43.8195 114.842 43.4078 115.015 42.7901 114.942C41.193 114.764 39.6292 114.97 38.0376 115.193C35.2663 115.582 32.6508 116.384 30.1299 117.469C28.3435 117.536 26.2232 119.122 24.9099 120.012C23.6411 120.874 22.0217 122.071 21.6878 123.657C19.9404 126.206 18.6995 129.027 17.8592 131.977C16.8575 135.488 15.9504 139.055 15.3717 142.656C14.7929 146.256 13.2013 149.228 10.8975 151.927C10.4745 152.422 10.0628 152.928 9.68435 153.452C7.84793 156 8.0593 157.803 10.4188 159.924C10.8974 160.358 11.4261 160.764 11.8156 161.27C12.7283 162.472 13.819 163.446 15.1769 164.103C15.7667 164.387 16.0394 164.776 16.1117 165.45C16.262 166.952 17.1803 167.893 18.5548 168.443C18.9332 168.594 19.2782 168.811 19.6399 169H22.8398C26.1231 167.837 27.7481 164.993 29.4231 162.216C30.3914 162.712 31.4042 162.929 31.9051 163.557C32.6842 164.537 33.658 164.721 34.6987 164.759C39.4289 164.943 43.0906 162.289 43.4857 156.852C43.5358 156.117 43.5747 155.533 44.2982 155.049C46.7634 153.396 47.4813 150.908 47.3087 148.098C47.2753 147.569 47.3923 147.302 47.7874 146.924C48.9282 145.828 50.0913 144.703 50.9928 143.418C52.1725 141.737 52.5175 139.845 51.4769 137.892C51.3767 137.708 51.3934 137.464 51.3544 137.23C51.616 137.068 51.8107 136.94 52.0111 136.824C55.7062 134.625 57.0029 130.246 55.1219 126.384C54.7658 125.655 54.482 124.892 54.1982 124.225C54.9161 123.412 55.5839 122.733 56.1459 121.976C56.7469 121.164 56.6857 120.641 55.9678 119.945L55.9622 119.962ZM52.0166 134.219C51.4657 134.815 50.8647 135.371 50.375 135.855C48.7 134.381 47.1251 132.989 45.4667 131.531C46.1735 130.513 45.9231 129.361 45.439 128.276C44.966 127.218 43.9754 126.812 42.9014 126.534C41.6604 126.211 40.4527 126.195 39.234 126.595C38.2991 126.901 37.4032 126.89 36.5128 126.384C34.6263 125.315 32.5506 124.803 30.4193 124.714C28.85 124.653 27.264 124.909 25.6891 125.059C25.4999 125.076 25.3329 125.31 25.0657 125.504C25.3273 125.699 25.4943 125.911 25.6947 125.955C28.3436 126.54 31.0147 126.935 33.7304 127.146C37.0805 127.408 39.9018 129.01 42.5563 130.997C45.2553 133.012 47.3255 135.555 49.1898 138.315C50.0134 139.534 50.0802 140.713 49.4903 141.993C48.9727 143.117 47.8653 144.453 46.6577 145.399C46.5464 145.299 46.3794 145.21 46.307 145.076C44.4929 141.554 41.5657 139.2 38.1099 137.48C35.1994 136.033 32.1722 134.803 29.2339 133.412C27.9039 132.783 26.6685 131.96 25.3607 131.27C25.0936 131.131 24.7263 131.186 24.4091 131.153C24.3813 131.537 24.2143 131.982 24.3534 132.288C24.5092 132.628 24.9044 132.906 25.2606 133.084C26.368 133.64 27.4976 134.169 28.644 134.642C30.9423 135.594 33.2852 136.423 35.5501 137.441C40.08 139.478 43.174 142.995 45.2665 147.402C46.4351 149.862 45.4947 152.444 43.0906 153.98C42.3783 153.068 41.6604 152.149 40.9425 151.231C39.4678 149.35 37.4645 148.248 35.2942 147.369C31.4544 145.822 27.6256 144.242 23.7969 142.678C23.63 142.611 23.4687 142.472 23.3073 142.478C23.1014 142.483 22.812 142.55 22.7174 142.695C22.6283 142.828 22.6672 143.195 22.7896 143.29C23.207 143.613 23.6579 143.908 24.1364 144.125C27.1081 145.46 30.0742 146.79 33.0682 148.076C35.706 149.211 38.0989 150.708 40.169 152.706C41.9164 154.386 42.4339 156.434 41.7772 158.71C41.0315 161.281 39.2118 162.762 36.613 163.274C35.9285 163.407 35.283 163.374 34.593 162.945C33.7582 162.422 32.7343 162.216 31.8161 161.821C30.1299 161.098 30.0797 160.914 31.0425 159.417C31.3318 158.972 31.6435 158.543 31.9941 158.043C32.7787 158.382 32.9234 159.083 33.1293 159.74C33.2684 160.18 33.4967 160.508 34.0142 160.346C34.4816 160.196 34.7264 159.801 34.4927 159.373C33.5578 157.67 32.5839 155.978 31.56 154.325C31.4375 154.13 30.7142 154.019 30.6418 154.125C30.4081 154.464 30.3524 154.921 30.1966 155.427C28.3435 155.082 26.4793 154.626 24.7152 153.763C24.0864 153.452 23.3963 153.229 22.7062 153.073C22.0941 152.928 21.4207 152.806 20.7418 153.479C21.1313 153.841 21.4819 154.164 21.9549 154.603C19.4674 156.624 17.5809 159.128 16.5235 162.35C15.9837 162.105 15.5163 161.994 15.1713 161.721C13.6521 160.508 12.1217 159.295 10.6859 157.987C9.65085 157.047 9.62871 156.201 10.3855 154.999C10.7027 154.503 11.0533 154.019 11.4484 153.58C14.3199 150.369 16.0339 146.662 16.8686 142.411C17.7089 138.131 18.8664 133.908 20.0462 129.7C20.6194 127.658 21.4318 125.705 22.5058 123.885C23.6745 122.817 24.5593 121.592 25.995 120.713C27.0023 120.095 28.1431 119.639 29.2227 119.116C31.5099 118.331 33.7582 117.335 36.1122 116.979C43.5859 115.844 50.0523 118.559 53.3634 126.005C54.6879 128.983 54.276 131.787 52.0166 134.23V134.219Z" fill="black"/>
<path d="M52.768 76.8282C53.0796 76.0269 53.6139 76.1437 54.137 76.2884C55.7285 76.728 57.3146 77.1732 58.9006 77.624C61.4493 78.353 64.0036 79.0542 66.6915 79.0597C66.8083 79.0597 66.9251 79.0653 67.0476 79.082C67.5874 79.1432 68.2162 79.1933 68.1884 79.9056C68.155 80.6903 67.4371 80.5678 66.9586 80.5177C65.2668 80.3341 63.5472 80.2228 61.9056 79.811C59.1732 79.121 56.4854 78.2306 53.7864 77.4014C53.4191 77.2901 53.1019 77.023 52.768 76.8338V76.8282Z" fill="#FFCF33"/>
<path d="M61.8165 61.6137C62.1838 61.9309 62.4955 62.1201 62.6902 62.3872C63.4248 63.3834 64.1537 64.3851 64.8215 65.4257C66.4854 67.9967 68.1327 70.5844 69.7577 73.1776C70.0136 73.5839 70.5756 74.1125 69.9579 74.5577C69.3959 74.9695 68.9786 74.3685 68.6502 73.9901C68.1494 73.4169 67.6931 72.7881 67.2924 72.1426C65.4282 69.1375 63.5916 66.1157 61.7497 63.094C61.5994 62.8436 61.388 62.582 61.3768 62.3149C61.3657 62.1146 61.6217 61.8975 61.8165 61.6082V61.6137Z" fill="#FFCF33"/>
<path d="M76.1574 58.2412C76.2019 60.4115 76.3243 62.5818 76.43 64.7521C76.4523 65.2196 76.2186 66.0933 76.0461 66.11C75.2113 66.1879 75.3004 65.3699 75.2058 64.8579C74.6382 61.6469 74.46 58.4137 74.677 55.1582C74.6993 54.8132 74.7773 54.4348 74.9498 54.1398C75.1279 53.8282 75.4506 53.3774 75.7066 53.3774C76.2185 53.383 76.1908 53.8616 76.1741 54.3179C76.1295 55.6257 76.1295 56.9334 76.1574 58.2468V58.2412Z" fill="#FFCF33"/>
<path d="M71.3159 11.8076C71.1211 11.6796 70.8874 11.6017 70.8596 11.4848C70.8206 11.2901 70.8484 10.9729 70.9764 10.8727C71.5885 10.4164 72.2173 9.96004 72.8907 9.60945C75.7733 8.12361 78.6727 6.67117 81.5665 5.21316C82.0951 4.94604 82.7574 4.55093 83.1191 5.21316C83.5086 5.9199 82.7852 6.21484 82.2565 6.47639C79.0456 8.09022 75.829 9.70962 72.6125 11.3123C72.1951 11.5182 71.7389 11.6462 71.3159 11.8076Z" fill="#E76100"/>
<path d="M68.1549 9.64281C67.9824 9.28108 67.7487 9.0251 67.7877 8.8192C67.8489 8.49087 68.0493 8.15697 68.2663 7.88985C70.292 5.42459 72.3343 2.97046 74.3822 0.527457C74.5658 0.310425 74.8328 0.126782 75.0944 0.0321787C75.278 -0.0346005 75.5953 0.00435402 75.7289 0.132347C75.8568 0.249211 75.9013 0.571976 75.8346 0.750054C75.7121 1.07282 75.5174 1.39002 75.2948 1.65714C73.1801 4.12796 71.0543 6.58766 68.923 9.04179C68.7449 9.2477 68.4832 9.38682 68.1438 9.64281H68.1549Z" fill="#E76100"/>
<path d="M82.3511 15.7864C81.8836 16.5711 81.1714 16.6824 80.4646 16.7213C78.1663 16.8493 75.8624 16.9384 73.5641 17.0385C73.3303 17.0497 73.0912 17.0441 72.8519 17.033C72.2676 16.9996 71.4995 17.0719 71.4939 16.265C71.4884 15.3746 72.3121 15.6195 72.8519 15.5972C75.3283 15.4804 77.8046 15.3691 80.281 15.3023C80.9488 15.2856 81.7111 15.0018 82.3455 15.7864H82.3511Z" fill="#E76100"/>
</svg>
