<svg width="170" height="169" viewBox="0 0 170 169" fill="none" xmlns="http://www.w3.org/2000/svg">
<g clip-path="url(#clip0_404_3243)">
<path d="M109.661 9.50131C109.661 9.50131 87.4404 13.2003 83.9083 19.5968C80.3762 25.9867 77.3382 28.3036 77.3783 36.7098C77.4183 45.1161 75.0747 53.2686 75.9961 58.7638C76.9176 64.2589 78.4933 71.7905 82.3392 75.0956C85.671 77.96 87.5272 78.5275 90.9859 78.3205C94.4445 78.1135 97.2088 78.0801 97.2088 78.0801C97.2088 78.0801 98.9381 97.5301 98.4774 97.5501C98.0167 97.5701 83.9016 98.8054 81.7583 99.7134C79.615 100.621 77.2648 101.055 77.2648 101.055L67.463 121.18C67.463 121.18 114.335 126.742 118.682 126.281C123.028 125.82 134.059 122.135 134.059 122.135L133.164 93.998L139.908 63.3575C139.908 63.3575 147.359 60.9404 146.318 55.0314C145.283 49.1223 139.14 44.4417 139.14 44.4417L115.303 20.9723L109.655 9.49463L109.661 9.50131Z" fill="white"/>
<path d="M137.417 118.122C136.636 120.96 135.761 123.777 134.867 126.581C133.391 131.182 132.163 135.836 131.388 140.61C130.5 146.045 129.592 151.473 128.717 156.908C128.524 158.083 128.41 159.265 128.277 160.447C128.043 162.55 127.369 163.445 125.312 163.712C122.461 164.086 119.583 164.273 116.719 164.507C114.909 164.647 113.087 164.814 111.277 164.8C107.892 164.78 104.493 164.433 101.121 164.593C96.4944 164.82 91.8272 164.58 87.2535 165.521C87.0732 165.555 86.8796 165.555 86.6926 165.555C81.9921 165.688 77.2848 165.955 72.5776 165.909C67.5632 165.862 62.5555 165.501 57.5478 165.348C56.366 165.314 55.7049 164.687 55.1374 163.819C54.0157 162.116 53.7887 160.207 53.8421 158.23C53.8554 157.916 53.8421 157.603 53.8421 157.289C53.6885 153.316 55.064 149.63 56.0588 145.898C57.4677 140.63 59.2504 135.468 60.5858 130.18C61.9479 124.785 64.1913 119.771 66.6151 114.81C67.1826 113.648 67.8503 113.455 69.0054 114.029C74.2067 116.599 79.6351 118.502 85.4307 119.097C90.3583 119.597 95.2925 119.991 100.24 120.312C103.485 120.526 106.764 120.706 110.015 120.599C117.834 120.325 125.432 118.776 132.77 116.052C133.692 115.711 134.58 115.184 135.368 114.596C136.463 113.782 137.431 113.995 137.618 115.324C137.738 116.232 137.671 117.227 137.424 118.108L137.417 118.122Z" fill="#4361EE"/>
<path d="M167.203 164.68C163.791 165.127 160.353 165.428 156.934 165.788C156.073 165.882 155.218 165.995 154.363 166.102H147.954C147.533 166.009 147.126 165.862 146.705 165.828C141.45 165.454 136.189 165.067 130.934 164.747C128.804 164.62 126.667 164.673 124.531 164.633C122.187 164.586 121.853 164.306 121.907 162.036C121.994 158.083 122.007 154.124 122.307 150.184C122.601 146.325 123.235 142.479 123.669 138.633C123.99 135.829 124.19 133.011 124.517 130.214C125.078 125.426 125.619 120.639 126.314 115.872C127.148 110.103 128.136 104.36 129.051 98.6183C129.091 98.3646 129.051 98.0574 129.185 97.8905C129.358 97.6835 129.685 97.4632 129.926 97.4832C129.979 97.4832 130.039 97.5099 130.099 97.5366C130.66 96.7154 131.435 96.041 132.39 95.6137C133.631 95.0595 135.842 94.5454 136.863 95.7339C139.828 96.0744 142.812 96.2814 145.71 97.1093C148.274 97.8371 150.758 98.7652 152.841 100.414C155.786 102.758 158.61 105.249 161.034 108.173C163.731 111.438 165.354 115.137 166.175 119.31C166.903 123.002 167.63 126.688 168.078 130.421C168.131 130.855 168.225 131.289 168.245 131.729C168.418 135.615 168.592 139.508 168.725 143.394C168.879 147.721 168.966 152.054 169.146 156.381C169.22 158.003 169.467 159.619 169.64 161.235C169.807 162.81 168.746 164.473 167.203 164.673V164.68Z" fill="#E76100"/>
<path d="M83.4409 99.9471C83.688 100.568 83.4944 101.363 83.4944 102.077C83.4944 102.13 83.4343 102.191 83.3875 102.231C80.9304 104.808 79.9489 108.186 78.6402 111.351C74.9612 120.278 71.3957 129.252 69.4327 138.76C68.8719 141.451 68.5247 144.182 68.0706 146.899C67.3896 150.972 66.6952 155.032 66.0275 159.111C65.7871 160.587 65.5935 162.076 65.4266 163.572C65.3665 164.099 65.2663 164.647 65.954 165.021C66.6217 165.374 66.2745 166.015 65.8272 166.189C64.7388 166.623 63.6104 167.017 62.4553 167.191C61.3469 167.357 60.2052 167.224 59.0701 167.224C59.0701 167.177 59.0568 167.137 59.0568 167.09C57.1271 167.251 55.1908 167.585 53.2679 167.544C50.083 167.471 46.898 167.164 43.7131 166.964C42.4646 166.883 41.2093 166.743 39.9607 166.777C37.2632 166.857 34.5791 167.037 31.8883 167.164C31.3274 167.191 30.7332 167.257 30.2124 167.11C29.7116 166.964 29.1775 166.696 29.331 165.922C30.3392 160.954 30.7532 155.866 32.5493 151.072C36.5087 140.489 41.4964 130.474 48.6207 121.62C52.747 116.479 57.6813 112.246 63.31 108.821C68.0372 105.943 72.8914 103.332 77.9525 101.102C79.1543 100.568 80.3963 100.127 81.6382 99.6867C82.2725 99.4597 83.1071 99.0858 83.4409 99.9471Z" fill="#E76100"/>
<path d="M111.785 120.379C111.224 121.554 110.583 122.702 110.115 123.911C108.74 127.483 107.458 131.088 106.089 134.661C105.562 136.036 105.268 137.418 105.401 138.887C105.441 139.321 105.421 139.768 105.395 140.202C105.281 141.985 104.607 142.573 102.824 142.226C101.662 141.999 100.541 141.558 99.4122 141.177C98.5976 140.904 98.3038 140.242 98.197 139.435C98.1302 138.967 98.1235 138.286 97.8231 138.079C96.5344 137.184 96.6679 135.889 96.8282 134.681C97.0352 133.071 97.4358 131.476 97.8297 129.9C99.4589 123.397 102.163 117.361 105.662 111.632C107.591 108.48 109.087 105.068 110.883 101.83C113.107 97.8239 115.277 93.7777 117.76 89.9318C119.797 86.7802 120.892 83.3817 121.54 79.7828C122.982 71.7838 123.269 63.7114 123.069 55.6056C123.015 53.5358 123.135 51.4459 122.942 49.3894C122.655 46.2779 122.221 43.1732 121.74 40.0817C121.633 39.3806 121.086 38.753 120.732 38.092C119.483 35.7751 117.934 33.565 117.066 31.1146C116.125 28.4572 113.661 27.6226 111.411 27.7427C107.892 27.9297 104.667 29.0648 101.722 31.0011C101.235 31.3216 100.834 31.4284 100.387 30.9877C99.9129 30.527 100.053 30.0062 100.427 29.6524C101.008 29.0982 101.649 28.5774 102.35 28.1901C104.547 26.9949 106.964 26.5876 109.421 26.4474C111.217 26.3406 113.02 26.4274 114.856 26.4274C114.529 25.8398 114.182 25.1187 113.748 24.451C111.671 21.2327 109.501 18.1079 106.55 15.5707C104.346 13.6811 101.963 13.1937 99.2319 13.9215C94.518 15.1767 90.4117 17.4669 86.9397 20.9122C85.5108 22.3277 84.0285 23.6832 82.5329 25.0252C81.6782 25.7931 81.0506 26.6744 80.7702 27.8896C81.0973 27.9097 81.3444 27.9564 81.5781 27.9297C84.9766 27.5024 87.4938 29.1449 89.764 31.3817C89.8107 31.4284 89.8575 31.4685 89.8975 31.5152C90.5385 32.2297 90.652 32.8039 90.1713 33.131C89.5036 33.5784 88.9895 33.2579 88.5488 32.7237C88.3084 32.43 88.0681 32.1428 87.8277 31.8557C85.9381 29.5255 83.4075 29.1983 80.6633 29.5923C79.9823 29.6924 79.5483 30.093 79.3079 30.7474C78.6736 32.47 78.2863 34.2461 78.4332 36.0756C78.4866 36.7299 78.3531 37.224 78.1461 37.8316C77.7789 38.94 77.6253 40.1552 77.5786 41.3303C77.3849 46.4716 77.1045 51.6195 77.1646 56.7607C77.218 61.034 78.2196 65.2071 79.4081 69.3067C80.0824 71.6369 81.5781 73.3863 83.688 74.5948C87.5673 76.8049 91.6736 78.2271 96.2139 78.1069C97.97 78.0602 99.7327 78.1336 101.489 78.0668C103.959 77.98 106.303 77.5394 108.393 75.997C109.528 75.1624 110.957 74.7284 112.225 74.0607C112.893 73.7135 113.501 73.2594 114.128 72.8455C114.863 72.3581 115.671 72.1711 116.425 72.6452C117.159 73.0992 117.119 73.9405 117.053 74.695C117.013 75.1891 116.912 75.7032 116.705 76.1439C115.537 78.5743 114.355 81.0047 113.113 83.395C112.713 84.1696 112.158 84.8773 111.604 85.5517C108.232 89.6447 103.792 89.5445 100.04 86.9538C99.6325 86.6734 99.272 86.3129 98.7378 85.8588C98.6977 86.2461 98.6377 86.5065 98.6577 86.7602C98.8981 89.8783 99.1317 93.0031 99.4055 96.1213C99.4589 96.7356 99.706 97.3365 99.7727 97.9508C99.8729 98.9323 99.5123 99.2995 98.5041 99.3529C94.124 99.5866 89.7907 100.194 85.464 100.922C84.2488 101.122 82.9936 101.136 81.765 101.076C81.4245 101.062 80.857 100.501 80.8302 100.147C80.7635 99.4264 80.8636 98.6251 81.124 97.9441C81.7917 96.188 82.5462 94.4587 83.3408 92.7561C85.3305 88.4962 87.594 84.3498 88.8693 79.7828C88.916 79.6025 88.9628 79.4289 89.0496 79.0951C88.1014 78.7813 87.1733 78.4741 86.2452 78.1536C84.0285 77.3991 81.8852 76.4377 80.2694 74.7017C79.3947 73.7602 78.5801 72.6251 78.1461 71.43C77.218 68.8393 76.3901 66.1886 75.8092 63.5044C74.7609 58.6436 74.574 53.7227 75.0146 48.735C75.3952 44.4151 75.896 40.1285 76.557 35.8485C76.7773 34.4397 76.6371 32.9775 76.6505 31.5419C76.6638 29.8794 77.0177 28.3103 77.8256 26.848C79.2478 24.2507 80.7768 21.7335 82.9535 19.677C83.3608 19.2897 83.8082 18.9092 84.1153 18.4418C85.8847 15.7576 88.4687 14.1752 91.2997 12.8665C93.3495 11.9184 95.3125 10.7833 97.3624 9.8352C99.3654 8.91378 101.462 8.25944 103.699 8.17932C106.637 8.07249 109.581 8.0391 112.506 7.81209C116.091 7.53833 119.43 8.6467 122.835 9.4279C123.296 9.53474 123.73 9.75507 124.184 9.922C126.48 5.42842 130.42 3.23171 135.161 2.2502C138.699 1.51573 142.218 1.48903 145.73 2.6241C148.862 3.63232 151.299 5.40171 153.095 8.15261C153.776 9.19421 154.637 10.1223 155.398 11.1105C158.737 15.4639 160.272 20.298 159.011 25.7463C158.022 30.0196 154.357 33.0509 149.95 33.2646C147.78 33.3647 145.59 33.0843 143.286 32.9708C143.386 33.5049 143.453 34.2261 143.654 34.9138C144.642 38.3858 144.535 41.8578 143.674 45.3165C143.427 46.3113 143.573 46.999 144.321 47.8337C146.218 49.9502 147.166 52.5342 147.246 55.3986C147.333 58.2831 146.004 60.4464 143.727 62.1023C143.527 62.2492 143.293 62.3627 143.086 62.4962C142.879 62.6298 142.679 62.7833 142.485 62.9169C143.113 66.2687 143.941 69.5604 144.295 72.8989C144.822 77.8932 145.85 82.7807 146.939 87.6616C147.62 90.7129 148.548 93.7109 149.349 96.7355C149.669 97.9441 149.957 99.1593 150.217 100.381C150.431 101.383 149.923 101.99 148.915 101.917C148.361 101.877 147.82 101.656 147.279 101.51C145.77 101.102 144.248 100.728 142.759 100.261C140.649 99.6 138.526 100.021 136.402 100.047C135.595 100.054 135.488 100.648 135.408 101.176C135.187 102.598 135.04 104.04 134.873 105.469C134.506 108.58 134.119 111.685 133.798 114.803C133.478 117.921 133.211 121.04 132.964 124.164C132.69 127.603 132.463 131.042 132.189 134.48C132.143 135.101 132.002 135.722 131.815 136.323C131.361 137.785 130.507 138.92 128.931 139.268C126.607 139.782 124.277 140.236 121.947 140.71C120.104 141.09 118.248 141.398 116.432 141.858C113.828 142.519 111.217 142.212 108.686 142.232C108.54 141.985 108.406 141.858 108.433 141.785C109.254 139.328 108.96 136.717 109.441 134.213C110.235 130.1 110.937 125.967 111.664 121.841C111.751 121.347 111.751 120.839 111.791 120.339C111.831 120.185 111.871 120.031 111.911 119.871C111.878 120.031 111.851 120.198 111.818 120.359L111.785 120.379ZM129.125 137.305C129.125 137.305 129.178 137.365 129.211 137.398C129.178 137.378 129.138 137.351 129.105 137.325C129.084 137.278 129.078 137.218 129.044 137.178C129.031 137.158 128.978 137.158 128.938 137.151C128.998 137.198 129.064 137.251 129.125 137.298V137.305ZM122.715 111.298C122.842 111.425 122.968 111.552 123.089 111.685C123.189 111.886 123.282 112.086 123.382 112.286C123.436 112.259 123.483 112.233 123.536 112.199C123.382 112.032 123.229 111.865 123.082 111.699C122.955 111.572 122.822 111.452 122.695 111.325L122.554 111.218C122.608 111.245 122.661 111.271 122.715 111.298ZM130.987 6.09611C131.021 6.04937 131.054 6.00931 131.088 5.96257C131.061 6.01599 131.034 6.0694 131.007 6.11614L130.901 6.19627L130.981 6.08944L130.987 6.09611ZM124.958 43.8342C124.945 43.7874 124.938 43.734 124.911 43.6873C124.898 43.6606 124.851 43.6606 124.818 43.6472C124.871 43.7006 124.931 43.754 124.985 43.8075C125.065 43.941 125.138 44.0745 125.219 44.2014C125.132 44.0745 125.045 43.9544 124.958 43.8275V43.8342ZM145.697 18.5419C145.73 18.3817 145.763 18.2214 145.804 18.0679C145.777 18.2348 145.75 18.4084 145.723 18.5753C145.683 18.6154 145.643 18.6554 145.603 18.6955C145.637 18.6488 145.663 18.5953 145.697 18.5486V18.5419ZM138.926 64.1654C138.986 64.3057 139.04 64.4459 139.1 64.5928C139.113 64.5394 139.16 64.4659 139.14 64.4392C139.073 64.3457 138.986 64.2723 138.906 64.1922C138.826 64.1054 138.759 64.0119 138.673 63.9451C138.646 63.9251 138.566 63.9718 138.512 63.9918C138.653 64.0519 138.793 64.112 138.933 64.1721L138.926 64.1654ZM129.478 15.1834C129.458 15.1367 129.445 15.0833 129.412 15.0499C129.392 15.0299 129.345 15.0365 129.312 15.0299C129.378 15.0766 129.445 15.1167 129.505 15.1634C129.518 15.2769 129.498 15.4171 129.559 15.4906C129.652 15.5974 129.799 15.6508 129.926 15.7309C129.879 15.5974 129.859 15.4505 129.779 15.3437C129.719 15.2635 129.585 15.2435 129.478 15.1968V15.1834ZM109.888 109.789C109.935 109.816 109.975 109.842 110.022 109.869C109.968 109.849 109.915 109.829 109.862 109.816C109.862 109.702 109.895 109.555 109.842 109.475C109.768 109.362 109.628 109.282 109.514 109.195C109.534 109.335 109.528 109.495 109.595 109.615C109.641 109.702 109.788 109.736 109.888 109.789ZM133.251 31.395C133.211 31.3616 133.177 31.3283 133.137 31.2949C133.184 31.3216 133.231 31.3483 133.278 31.375C133.438 31.5686 133.591 31.7623 133.752 31.9626C133.792 31.9225 133.832 31.8758 133.865 31.8357C133.658 31.6888 133.458 31.5486 133.251 31.4017V31.395ZM152.12 24.5779C152.16 24.6046 152.193 24.6313 152.233 24.6647C152.187 24.6446 152.14 24.6246 152.093 24.6046C152 24.4043 151.9 24.1973 151.806 23.997C151.726 24.0704 151.646 24.1372 151.566 24.2106C151.753 24.3375 151.933 24.4577 152.12 24.5846V24.5779ZM113.641 120.345C113.781 119.965 113.921 119.584 114.068 119.203C113.968 119.177 113.861 119.143 113.761 119.117L113.667 120.365C113.567 120.619 113.467 120.873 113.36 121.126C113.427 121.146 113.501 121.166 113.574 121.187C113.594 120.906 113.621 120.626 113.641 120.345ZM127.596 46.8455C127.582 46.7987 127.582 46.752 127.555 46.7119C127.542 46.6919 127.495 46.6852 127.462 46.6786C127.509 46.7253 127.562 46.7787 127.609 46.8254C127.749 47.0324 127.896 47.2461 128.036 47.4531C128.076 47.413 128.123 47.3663 128.163 47.3262C127.969 47.166 127.782 47.0057 127.589 46.8455H127.596ZM118.555 99.6133C118.595 99.64 118.642 99.66 118.682 99.6868C118.628 99.6734 118.582 99.6534 118.528 99.64C118.515 99.1125 118.655 98.4983 117.874 98.3848C117.8 98.3714 117.7 98.5316 117.614 98.6118C117.927 98.9456 118.241 99.2795 118.555 99.6133ZM122.321 32.5234L122.267 32.4567L122.341 32.5101C122.574 33.3848 122.928 34.186 123.669 35.0073C123.93 33.5984 122.928 33.1778 122.327 32.5234H122.321ZM134.206 54.317C134.98 54.317 135.595 54.2769 136.209 54.3236C137.451 54.4238 138.693 54.5707 139.935 54.6975C140.395 54.7443 140.829 54.8244 140.843 55.412C140.856 56.0997 140.375 56.2132 139.841 56.2533C139.527 56.2733 139.213 56.26 138.9 56.2933C137.484 56.4336 136.062 56.5871 134.526 56.7474C134.586 57.6821 134.72 58.5435 134.673 59.3914C134.626 60.3129 134.413 61.2209 134.266 62.1891C134.633 62.336 134.907 62.5229 135.201 62.5496C137.083 62.7099 138.966 62.6631 140.756 61.9754C143.019 61.1074 144.815 59.6118 145.53 57.2615C146.384 54.4572 144.802 50.638 142.318 48.9754C141.677 48.5481 140.969 48.2209 140.202 48.5614C138.432 49.3426 136.669 50.1506 134.927 50.9852C134.319 51.279 134.039 51.8465 134.086 52.5409C134.119 53.035 134.159 53.5291 134.219 54.317H134.206ZM148.227 30.8141C152.601 31.0412 156.914 27.5358 156.794 23.4829C155.338 27.5558 152.454 29.9328 148.227 30.8141ZM116.011 110.243C116.038 111.498 116.766 111.892 117.794 112.486C117.5 111.285 116.932 110.75 116.011 110.243ZM141.637 98.0042C141.183 96.789 140.823 96.8023 139.634 98.0042H141.637ZM143.52 4.11974C144.041 5.19473 144.228 5.38836 144.688 5.2615C144.829 5.22143 144.929 5.01445 145.042 4.88759C144.642 4.5938 144.248 4.30002 143.847 4.01291C143.82 3.99288 143.74 4.04629 143.527 4.11974H143.52ZM126.654 124.398C126.022 125.555 125.92 126.397 126.347 126.922C126.454 126.054 126.554 125.226 126.654 124.398ZM139.247 3.23171C139.908 3.61229 140.295 3.87937 140.729 4.05297C140.869 4.10638 141.116 3.88605 141.31 3.79257C141.21 3.60561 141.123 3.27844 141.003 3.25841C140.529 3.19164 140.048 3.23171 139.247 3.23171ZM119.416 138.807C119.663 138.907 119.824 138.994 119.844 138.974C120.218 138.533 120.571 138.079 120.925 137.632C120.838 137.558 120.758 137.492 120.672 137.418C120.264 137.865 119.857 138.32 119.416 138.814V138.807ZM154.25 20.9857C154.377 20.9857 154.51 20.979 154.637 20.9723C154.537 20.5183 155.312 20.0709 154.51 19.6169C154.43 19.5702 154.19 19.6369 154.19 19.6436C154.196 20.091 154.223 20.5383 154.25 20.9857ZM122.174 24.8116C121.466 25.1254 121.272 25.5727 121.713 26.5008C121.92 25.733 122.047 25.2723 122.174 24.8116ZM128.196 34.4531C128.156 34.6 128.116 34.7402 128.07 34.8871C128.47 35.0473 128.871 35.2076 129.271 35.3678C129.245 34.9138 129.078 34.6734 128.851 34.5465C128.671 34.4464 128.417 34.4798 128.196 34.4531ZM128.684 14.6693C128.043 14.0817 127.589 13.8814 126.968 14.6693H128.684ZM126.12 21.0257C126.756 20.999 127.11 20.6741 127.182 20.0509C126.794 20.4048 126.507 20.6719 126.12 21.0257ZM137.05 12.0653C137.124 11.9318 137.197 11.7982 137.27 11.6647C136.897 11.4777 136.523 11.2908 136.149 11.1038C136.102 11.1906 136.055 11.2707 136.008 11.3575C136.356 11.5912 136.703 11.8249 137.05 12.0653ZM141.791 41.6775L141.65 41.6508V43.0797C141.697 43.0797 141.744 43.0797 141.791 43.0797V41.6775ZM136.563 17.941C136.483 18.0612 136.402 18.1747 136.322 18.2949C136.583 18.4685 136.843 18.6488 137.11 18.8224C137.164 18.7222 137.284 18.5553 137.257 18.5352C137.037 18.3216 136.796 18.1346 136.563 17.941ZM143.787 17.6539C144.054 17.4402 144.234 17.3534 144.221 17.2933C144.181 17.0463 144.094 16.8126 144.021 16.5722C143.954 16.8727 143.887 17.1798 143.787 17.6539ZM116.779 137.305C116.886 137.365 116.993 137.425 117.099 137.485C117.18 137.191 117.26 136.891 117.346 136.597C117.286 136.577 117.226 136.557 117.166 136.543C117.039 136.797 116.906 137.058 116.779 137.311V137.305ZM119.743 120.038C119.677 120.258 119.597 120.465 119.57 120.679C119.57 120.726 119.757 120.799 119.857 120.859C119.957 120.646 120.057 120.432 120.151 120.225C120.051 120.178 119.944 120.132 119.737 120.045L119.743 120.038ZM141.136 23.0689C141.09 22.9086 141.043 22.7484 140.996 22.5882C140.896 22.6416 140.722 22.695 140.722 22.7484C140.722 22.8886 140.803 23.0355 140.849 23.1757C140.936 23.1423 141.023 23.109 141.143 23.0689H141.136ZM123.563 80.2435C123.669 79.9497 123.756 79.8296 123.743 79.7227C123.723 79.5892 123.623 79.469 123.563 79.3421V80.2435ZM89.2766 97.904C89.3233 97.8039 89.3701 97.7104 89.4235 97.6102C89.3233 97.5702 89.2031 97.4834 89.123 97.5101C89.0496 97.5368 89.0229 97.6837 88.9761 97.7772C89.0763 97.8172 89.1764 97.8573 89.2833 97.8973L89.2766 97.904ZM130.553 108.647C130.48 108.647 130.4 108.634 130.326 108.634C130.306 108.901 130.286 109.175 130.266 109.442C130.346 109.442 130.427 109.455 130.507 109.455C130.52 109.188 130.54 108.914 130.553 108.647ZM135.681 33.8321C135.835 33.752 136.015 33.7053 136.022 33.6452C136.035 33.4849 135.968 33.318 135.935 33.1577C135.808 33.2178 135.601 33.2579 135.581 33.338C135.548 33.4849 135.635 33.6585 135.675 33.8321H135.681ZM130.126 41.1434C130.046 41.1033 129.973 41.0499 129.886 41.0365C129.859 41.0365 129.779 41.1367 129.786 41.1701C129.812 41.2502 129.879 41.3236 129.932 41.3971C129.999 41.317 130.059 41.2302 130.126 41.15V41.1434ZM128.564 39.8347C128.657 39.7679 128.777 39.7212 128.831 39.6344C128.864 39.581 128.797 39.4674 128.784 39.3806C128.684 39.4274 128.55 39.4541 128.504 39.5342C128.464 39.601 128.537 39.7279 128.564 39.8347ZM137.644 86.9071C137.517 86.8003 137.397 86.7001 137.277 86.6C137.244 86.6467 137.177 86.7068 137.184 86.7335C137.244 86.867 137.317 86.9872 137.391 87.1141C137.464 87.054 137.537 87.0006 137.644 86.9071ZM132.95 88.0489C132.91 88.129 132.85 88.2024 132.83 88.2825C132.824 88.3093 132.924 88.4027 132.944 88.3894C133.024 88.356 133.091 88.2959 133.164 88.2425C133.091 88.1757 133.024 88.1089 132.95 88.0422V88.0489ZM117.947 20.2445C117.867 20.1577 117.787 20.0643 117.714 19.9775C117.68 20.0242 117.62 20.1043 117.627 20.1177C117.694 20.1978 117.78 20.2713 117.867 20.3313C117.867 20.3313 117.934 20.2579 117.954 20.2445H117.947ZM132.309 99.0925C132.249 99.1927 132.156 99.2928 132.149 99.3996C132.143 99.5065 132.223 99.6133 132.269 99.7201C132.329 99.62 132.43 99.5265 132.436 99.4197C132.443 99.3128 132.356 99.1993 132.309 99.0925ZM104.774 11.8316C104.68 11.8783 104.58 11.9318 104.487 11.9785C104.587 12.0252 104.687 12.1054 104.787 12.1054C104.881 12.1054 104.981 12.0186 105.074 11.9718C104.974 11.9251 104.874 11.8783 104.78 11.8316H104.774ZM140.989 83.2281C140.963 83.2682 140.923 83.3016 140.916 83.3416C140.909 83.3884 140.936 83.4351 140.949 83.4818C140.976 83.4418 141.016 83.4084 141.023 83.3683C141.03 83.3216 141.003 83.2748 140.989 83.2281ZM138.058 35.1007C138.025 35.0473 137.992 35.0006 137.958 34.9472C137.918 34.9872 137.838 35.054 137.845 35.074C137.885 35.1475 137.951 35.2009 138.005 35.261L138.052 35.0941L138.058 35.1007ZM135.494 5.23479L135.655 5.18805L135.501 5.14131V5.23479H135.494ZM87.8811 93.2635C87.8744 93.2168 87.8677 93.1767 87.8611 93.13C87.8344 93.1434 87.7809 93.1567 87.7809 93.1701C87.7809 93.2168 87.7943 93.2635 87.801 93.3036C87.8277 93.2903 87.8544 93.2769 87.8811 93.2635ZM129.064 11.1172C129.018 11.1439 128.978 11.1639 128.931 11.1906C128.958 11.2307 129.004 11.2974 129.018 11.2974C129.084 11.2641 129.145 11.2173 129.211 11.1773C129.165 11.1572 129.118 11.1372 129.064 11.1172ZM121.012 97.5568C120.999 97.6503 120.992 97.7371 120.979 97.8306C121.005 97.7905 121.059 97.7504 121.059 97.7104C121.059 97.6636 121.025 97.6102 121.005 97.5635L121.012 97.5568ZM111.744 106.517C111.704 106.544 111.658 106.564 111.618 106.591C111.644 106.624 111.684 106.698 111.698 106.691C111.765 106.664 111.825 106.617 111.885 106.577L111.751 106.517H111.744ZM104.714 81.3385C104.667 81.3118 104.62 81.2651 104.573 81.2651C104.52 81.2651 104.467 81.2918 104.413 81.3118C104.46 81.3385 104.507 81.3853 104.553 81.392C104.607 81.392 104.66 81.3586 104.714 81.3452V81.3385ZM114.956 115.905C114.956 115.905 115.043 115.865 115.05 115.832C115.063 115.785 115.05 115.731 115.036 115.685C114.983 115.711 114.923 115.731 114.889 115.778C114.876 115.792 114.929 115.858 114.949 115.905H114.956ZM113.107 122.328C113.12 122.282 113.133 122.235 113.14 122.188C113.14 122.175 113.1 122.155 113.073 122.141C113.06 122.188 113.046 122.235 113.046 122.275C113.046 122.288 113.087 122.308 113.107 122.322V122.328ZM130.834 130.487C130.78 130.481 130.794 130.628 130.794 130.628L130.834 130.487ZM129.338 134.507C129.305 134.52 129.251 134.52 129.238 134.547C129.218 134.594 129.225 134.647 129.218 134.694C129.271 134.681 129.325 134.667 129.378 134.654C129.365 134.607 129.352 134.56 129.338 134.507ZM113.621 12.0052C113.667 11.9985 113.714 11.9852 113.761 11.9785C113.721 11.9518 113.687 11.9184 113.647 11.9117C113.607 11.9117 113.561 11.9318 113.514 11.9384C113.554 11.9585 113.587 11.9852 113.627 12.0052H113.621ZM110.723 11.5979C110.676 11.5846 110.629 11.5712 110.589 11.5578C110.623 11.6046 110.649 11.6513 110.683 11.6981C110.696 11.6647 110.71 11.6313 110.73 11.5979H110.723Z" fill="#1D1529"/>
<path d="M80.6299 2.67739C78.4666 8.37282 75.9494 13.9147 72.8513 19.1761C72.2837 20.1443 71.6027 21.0657 70.8482 21.8936C69.5529 23.3158 68.3377 23.022 67.5632 21.246C66.7152 19.2963 65.8205 17.3667 64.9057 15.4504C64.7255 15.0765 64.3649 14.776 64.0511 14.3954C60.6792 16.5654 57.3942 18.7421 54.4563 21.4062C46.8513 28.2968 40.0742 35.9486 33.8313 44.0878C32.8765 45.3297 31.9016 46.5582 30.8867 47.7601C29.9119 48.9152 29.4044 48.9886 28.1826 48.0739C26.9273 47.1458 25.7655 46.1042 24.37 44.9558C23.502 45.9974 22.6874 46.9255 21.9396 47.907C20.9915 49.1489 20.2303 50.5444 19.1754 51.6795C16.0172 55.0647 13.5 58.8572 11.5503 63.0436C10.4887 65.3138 9.89443 65.4807 7.67101 64.3055C5.92165 63.3774 4.41266 62.1823 3.26423 60.5531C3.12401 60.3528 3.0105 60.1191 2.8369 59.9388C1.74189 58.8104 1.66844 58.757 2.60321 57.5685C4.76654 54.7976 6.92319 52.0133 9.22673 49.3626C12.8056 45.2429 16.4779 41.19 20.1702 37.1771C22.594 34.5397 23.2483 34.5865 25.8056 37.0837C26.6535 37.9183 27.5683 38.6928 28.4029 39.5408C29.0172 40.1684 29.4779 40.0215 29.9386 39.4139C31.274 37.6712 32.596 35.9152 33.9581 34.1925C39.3798 27.3153 45.5493 21.1592 52.2329 15.5171C54.9638 13.2136 57.8148 11.0636 60.6859 8.78679C60.312 8.39285 59.8913 7.93882 59.4573 7.49147C59.0634 7.08417 58.6294 6.71694 58.2689 6.28294C57.0136 4.76727 57.3608 3.55875 59.2437 3.09804C60.5791 2.76419 61.9545 2.59059 63.3166 2.38361C68.3243 1.62244 73.3387 0.887973 78.3464 0.106771C80.8035 -0.273815 81.4912 0.420587 80.6366 2.68407L80.6299 2.67739Z" fill="#068611"/>
<path d="M57.1806 28.1966C57.8482 28.4236 58.4291 28.457 58.7697 28.7575C60.8796 30.6137 62.9361 32.5233 65.0059 34.4262C65.2329 34.6332 65.4266 34.8936 65.6002 35.154C66.2545 36.1422 66.2545 36.4026 65.4333 37.2773C63.8976 38.9265 62.3485 40.5623 60.7794 42.1781C59.8447 43.1329 59.3038 43.1863 58.1487 42.3718C57.2807 41.7575 56.4795 41.0497 55.6782 40.3486C54.4564 39.2737 53.2545 38.1786 52.0527 37.0769C50.764 35.8951 50.7373 35.3743 51.8056 34.0924C53.2478 32.363 54.6433 30.6003 56.0989 28.8843C56.3793 28.5505 56.8601 28.3902 57.1806 28.1899V28.1966ZM53.7019 35.4344C55.5981 37.2305 57.4877 39.0133 59.3773 40.796C60.933 39.1668 62.3552 37.6845 63.951 36.022C62.0147 34.4329 60.1585 32.8638 58.2422 31.3615C57.5144 30.7873 56.9936 30.9075 56.4795 31.6019C55.5514 32.8504 54.6567 34.1191 53.7019 35.4344Z" fill="#0060D6"/>
<path d="M49.7358 57.0612C49.5622 59.2445 49.3886 61.4279 49.1949 63.6046C49.1549 64.0386 49.028 64.4726 48.8878 64.8799C48.6074 65.7078 48.1133 66.0216 47.3187 65.6878C45.1287 64.7597 42.932 63.8383 40.8154 62.7633C39.2129 61.9554 39.0794 61.2409 40.141 59.8054C41.0758 58.5501 42.1107 57.375 43.1656 56.2132C44.5545 54.6775 45.97 53.1685 47.4322 51.6996C48.1734 50.9451 48.4004 51.1387 48.9011 51.9733C49.8626 53.5958 49.6356 55.3185 49.7424 57.0545L49.7358 57.0612Z" fill="#29A6FF"/>
<path d="M91.5334 65.6876C89.4903 65.6409 87.9345 64.8664 86.6058 63.6512C85.5575 62.6964 85.5242 61.3944 85.8447 60.1525C86.0383 59.3779 86.8128 59.0374 87.594 58.9239C90.0111 58.5901 92.4281 58.2095 94.8518 57.9758C95.7599 57.889 96.7414 58.0292 97.6161 58.303C99.4255 58.8772 99.9931 60.6132 98.9715 62.2156C98.7044 62.6296 98.3639 63.0235 97.9767 63.3307C96.0403 64.8731 93.7568 65.4673 91.5334 65.6876ZM91.4399 63.7046C92.8888 63.344 94.3578 63.0636 95.7666 62.5895C96.3742 62.3826 96.9284 61.8618 97.3824 61.361C97.8832 60.8135 97.6562 60.3261 96.9217 60.1258C96.7414 60.079 96.5478 60.0456 96.3608 60.0523C93.7368 60.1792 91.1128 60.306 88.4887 60.4462C87.9746 60.473 87.4605 60.5731 87.3403 61.2007C87.2268 61.815 87.4471 62.2824 87.9813 62.643C89.0162 63.3574 90.1646 63.5644 91.4466 63.7046H91.4399Z" fill="#1D1529"/>
<path d="M83.8482 47.9873C84.0085 47.5867 84.2088 46.6986 84.6829 45.9975C85.631 44.6087 86.7126 43.3067 87.7743 41.9914C88.5622 41.0165 89.4769 40.1419 90.1847 39.1203C90.632 38.4793 90.7388 37.6113 91.1261 36.9236C91.3464 36.5363 91.7804 36.1624 92.2011 36.0289C92.6418 35.8953 93.3762 36.7834 93.216 37.3576C92.9489 38.299 92.6351 39.3139 92.0475 40.0684C90.7522 41.751 89.2566 43.28 87.8878 44.9025C87.2869 45.617 86.6993 46.3714 86.2586 47.186C85.5241 48.5548 85.6577 48.9688 86.7193 50.1706C87.0799 50.5779 87.4471 51.0386 87.6274 51.5394C87.821 52.0869 87.2735 52.5409 86.7527 52.3607C85.5909 51.9667 83.8683 49.6298 83.8482 47.9806V47.9873Z" fill="#1D1529"/>
<path d="M105.435 39.581C105.682 40.1886 105.936 40.6359 106.036 41.1167C106.143 41.6575 106.196 42.2451 106.109 42.7859C105.982 43.5805 105.415 44.0946 104.66 44.375C103.872 44.6621 103.332 44.1747 102.837 43.7006C101.716 42.619 101.823 40.5424 103.031 39.2939C105.094 37.1572 109.067 36.7032 111.531 38.4058C112.045 38.7597 112.452 39.4207 112.659 40.0216C112.773 40.3488 112.399 40.883 112.145 41.2502C112.098 41.317 111.431 41.1167 111.244 40.883C110.489 39.9549 109.441 39.5476 108.373 39.187C107.391 38.8532 106.41 38.8532 105.428 39.5943L105.435 39.581Z" fill="#1D1529"/>
<path d="M83.2473 38.7597C83.3675 40.1284 83.5478 41.1567 83.5277 42.1849C83.5077 43.3935 82.7332 44.3082 81.8652 44.3816C81.084 44.4484 79.9222 43.527 79.7018 42.5655C78.9741 39.3673 81.2709 36.9502 83.8416 37.3174C84.8164 37.4577 85.7912 37.7514 86.7126 38.1187C87.2001 38.3123 87.6073 38.7797 87.9746 39.1937C88.3351 39.6076 88.3552 40.095 87.9212 40.5357C87.5272 40.9363 87.1533 40.7894 86.7393 40.5691C85.5976 39.9615 84.4425 39.3739 83.2473 38.7597Z" fill="#1D1529"/>
<path d="M22.2602 18.829C21.9864 19.0827 21.6726 19.303 21.3387 19.4766C20.0634 20.151 18.7548 20.5449 17.4394 19.6302C16.6048 19.0493 16.124 16.8659 16.498 15.7909C16.992 14.3955 18.4543 13.3472 20.2437 13.3071C21.4055 13.4006 22.7008 13.8279 23.4486 15.15C24.0095 16.1382 23.4353 17.754 22.2535 18.8356L22.2602 18.829Z" fill="#0060D6"/>
<path d="M56.4327 136.016C56.179 136.897 55.9253 137.859 55.6315 138.813C54.4296 142.706 53.0876 146.565 52.0527 150.505C51.1446 153.95 50.557 157.482 50.6438 161.088C50.6772 162.383 50.8708 163.572 51.4784 164.707C51.5986 164.927 51.7121 165.154 51.8123 165.381C52.273 166.416 52.1929 166.99 51.5519 167.364C50.7907 167.805 49.9828 167.464 49.4353 166.456C48.6007 164.907 48.4137 163.224 48.6207 161.528C49.6089 153.549 51.5118 145.757 53.6885 138.039C54.1225 136.497 54.0958 135.121 53.2679 133.706C52.7671 132.851 52.4666 131.863 52.1795 130.908C52.0393 130.447 52.0259 129.893 52.1461 129.432C52.3398 128.658 53.4348 128.417 53.7419 129.099C54.7501 131.309 56.0588 133.412 56.4327 136.023V136.016Z" fill="white"/>
<path d="M16.765 85.5248C16.765 85.5248 14.1744 74.2275 15.9638 69.9609C17.7532 65.6943 19.7096 62.456 21.6793 63.1037C23.6423 63.7514 24.1497 66.6759 24.3834 70.021C24.6171 73.3661 23.7491 75.0955 24.9576 78.7277C26.1662 82.36 26.7204 86.2793 26.7204 86.2793C26.7204 86.2793 29.972 87.1407 31.7014 90.8931C33.4307 94.6389 33.0902 97.4365 33.0902 97.4365C33.0902 97.4365 37.6372 99.4262 39.4266 95.794C41.216 92.1617 41.029 86.286 43.3726 84.7837C45.7096 83.2881 47.272 81.4987 49.1682 82.0729C51.0712 82.6471 52.687 84.55 52.1061 87.9553C51.5319 91.3538 49.5088 99.7734 49.7091 102.484C49.916 105.195 48.7609 111.652 47.292 115.224C45.8231 118.796 44.8416 119.203 44.2674 123.296C43.6931 127.389 43.0588 143.013 42.6515 149.123C42.2509 155.232 41.4764 167.771 40.7486 167.852C40.0208 167.938 2.65 168.659 2.5899 167.852C2.52981 167.044 8.12509 147.293 9.16001 142.038C10.1949 136.784 14.6952 122.775 14.6952 122.775C14.6952 122.775 8.3521 118.622 4.89345 111.077C1.43479 103.533 -0.354626 100.935 1.66849 97.7036C3.6916 94.4719 6.04856 91.5808 7.31718 91.4473C8.58579 91.3071 11.35 91.1335 11.35 91.1335L12.7322 91.4473L13.5868 89.2305C13.5868 89.2305 14.0008 88.4827 14.6952 87.1006C15.3896 85.7185 16.765 85.5449 16.765 85.5449V85.5248Z" fill="white"/>
<path d="M14.9155 94.7992C13.2663 96.0144 11.4369 95.8742 9.72088 95.1731C8.91965 94.8459 8.38549 93.8577 7.5442 92.983C6.54933 93.811 5.26736 94.6389 4.29253 95.7473C2.33618 97.964 1.36803 100.481 2.27609 103.539C3.28431 106.938 4.49951 110.183 6.85647 112.927C8.65257 115.017 10.2283 117.294 12.0311 119.377C12.8323 120.305 13.5601 121.514 15.1693 121.433C15.4564 121.42 15.7502 122.408 16.1107 122.882C16.5581 123.477 16.518 123.864 15.8303 124.224C15.6033 124.345 15.4096 124.672 15.3562 124.939C13.273 134.787 9.25349 144.048 6.7029 153.757C5.47435 158.424 4.20573 163.078 2.95714 167.738C2.9104 167.918 2.95046 168.172 2.83696 168.279C2.63665 168.459 2.35622 168.639 2.10249 168.653C1.9556 168.659 1.65514 168.339 1.66181 168.172C1.6952 167.364 1.70855 166.536 1.90886 165.762C3.65822 158.898 5.35416 152.021 7.25709 145.197C8.46562 140.857 10.008 136.603 11.3968 132.31C12.2314 129.746 13.046 127.182 13.914 124.632C14.2478 123.657 14.0943 122.949 13.1662 122.402C12.5719 122.054 12.0712 121.554 11.4969 121.173C8.42555 119.143 6.16875 116.473 4.71985 113.067C3.73834 110.764 2.50311 108.567 1.49489 106.27C0.626889 104.3 0.139472 102.171 0.426581 100.041C0.773781 97.4165 2.00234 95.1664 4.02545 93.397C6.06859 91.6143 8.34543 90.3657 11.123 90.2989C11.9844 90.2789 12.4851 89.9851 12.7322 89.077C13.1795 87.4345 14.1477 86.1459 15.897 85.4782C14.4815 82.1264 14.3747 78.6877 14.5082 75.2424C14.6218 72.3446 15.1492 69.5136 16.498 66.8963C17.386 65.1736 18.668 63.8182 20.3305 62.8433C21.6459 62.0688 22.5072 62.2424 23.422 63.4576C24.2299 64.5326 24.7039 65.7612 24.7707 67.1099C24.8909 69.6805 25.0177 72.2445 25.0778 74.8151C25.158 78.2537 26.2329 81.472 27.3013 84.6769C27.6551 85.7386 28.3495 86.5598 29.3845 87.2209C31.3675 88.4828 33.1169 90.0719 33.611 92.529C33.8513 93.7442 33.8313 95.0062 33.9315 96.3082C34.6993 96.3082 35.5339 96.1412 36.2684 96.3415C37.6505 96.7221 38.2781 96.0144 39.0326 95.0462C40.1677 93.584 40.6685 91.9147 40.802 90.1721C41.0958 86.3796 43.1256 83.8023 46.1903 81.8259C47.6526 80.8844 49.1682 80.9312 50.6973 81.4587C51.7722 81.8326 52.4199 82.6805 52.6603 83.8156C53.2078 86.3729 53.328 88.9235 52.3999 91.4206C51.2781 94.452 50.7707 97.5501 50.764 100.802C50.764 107.632 48.988 114.069 45.743 120.085C45.0953 121.287 44.8082 122.508 44.6813 123.844C44.0737 130.287 44.0003 136.744 43.9135 143.207C43.8801 145.511 43.386 147.814 43.1323 150.118C42.8986 152.234 42.6916 154.351 42.4846 156.467C42.2509 158.898 41.9972 161.328 41.8102 163.759C41.7502 164.56 41.8637 165.381 41.9037 166.196C41.9371 166.823 42.1107 167.471 41.9772 168.059C41.8904 168.439 41.3963 168.933 41.0224 168.993C40.3814 169.1 39.9874 168.573 40.0075 167.925C40.0342 166.984 40.1343 166.049 40.2211 165.107C40.5617 161.301 41.0357 157.502 41.2227 153.69C41.4898 148.115 41.5432 142.526 41.6834 136.944C41.8036 132.11 42.0773 127.289 43.1857 122.562C43.4261 121.534 43.8667 120.552 44.2874 119.571C45.2956 117.207 46.5242 114.917 47.3054 112.486C47.953 110.483 48.2468 108.333 48.4271 106.223C48.8344 101.603 48.8077 96.9224 50.4302 92.5023C51.0845 90.7129 51.6521 88.9435 51.4384 87.0139C51.3716 86.3929 51.2781 85.7653 51.0778 85.1844C50.4769 83.4617 48.9145 82.8274 47.3521 83.7756C45.1955 85.0842 43.5129 86.7601 43.1723 89.471C42.8986 91.6543 42.4178 93.811 40.8621 95.5336C40.575 97.904 38.198 98.1109 36.8359 99.3662C36.6623 99.5265 36.1482 99.3662 35.8077 99.2928C35.0265 99.1192 34.2586 98.8454 33.4641 98.7319C33.177 98.6918 32.7496 98.9122 32.5493 99.1459C31.4209 100.515 30.0121 101.343 28.2494 101.63C27.8688 101.69 27.4281 101.95 27.1877 102.257C25.9191 103.886 24.3167 104.988 22.4204 105.462C24.3968 106.884 26.4199 108.24 28.3228 109.735C30.5396 111.478 31.7615 113.842 32.1687 116.626C32.2155 116.933 32.2288 117.254 32.1821 117.561C32.0753 118.275 31.5745 118.809 30.9268 118.696C30.5396 118.629 30.1056 117.975 29.9854 117.507C29.8185 116.86 29.9253 116.139 29.9053 115.444C29.8719 114.136 29.4112 113.001 28.5165 112.032C27.1343 110.537 25.5519 109.382 23.5889 108.694C19.5627 107.285 15.5899 105.749 11.5771 104.307C10.3418 103.86 9.57399 103.232 9.50722 101.763C9.44045 100.187 9.8878 99.0791 11.3968 98.4782C13.1328 97.7905 14.2879 96.5552 14.8621 94.7725L14.8888 94.7992H14.9155ZM25.3983 85.0508C24.6171 81.6923 23.689 78.247 23.0614 74.7483C22.7075 72.7987 22.8611 70.7622 22.7676 68.7591C22.7008 67.3169 22.5272 65.9081 21.479 64.6595C21.085 64.9132 20.7044 65.1135 20.3773 65.3739C18.5144 66.8829 17.7599 69.0195 17.2792 71.2363C16.5314 74.6949 16.7517 78.207 17.0188 81.699C17.0989 82.7206 17.2725 83.7355 17.3727 84.5167C20.2638 84.7103 22.8678 84.8839 25.3917 85.0508H25.3983ZM14.7553 99.2393C14.4615 102.398 15.3362 103.392 18.1205 103.432C18.8082 103.439 19.5026 103.372 20.1903 103.412C22.7476 103.566 24.4769 102.297 25.7455 100.228C27.0475 98.1043 26.8072 96.2013 24.7907 94.7858C23.215 93.6775 21.4589 92.7961 19.7229 91.9414C18.3809 91.2804 16.9387 91.2203 15.4898 91.9949C16.1641 92.7694 17.2591 93.4371 16.7984 94.6723C16.4379 95.6471 15.8436 96.5419 15.3095 97.5568C15.8436 97.717 16.311 97.8439 16.765 98.0041C17.4127 98.2311 18.0871 98.4114 18.6747 98.7452C18.9017 98.8788 18.9217 99.3729 19.0419 99.7001C18.7214 99.8069 18.4076 100.001 18.0871 100.001C17.7933 100.001 17.5129 99.7535 17.2124 99.6934C16.4379 99.5264 15.6567 99.4063 14.7486 99.2393H14.7553ZM28.8837 99.206C31.0871 98.2779 31.8616 96.3883 31.668 94.4386C31.3608 91.3005 29.8318 88.7566 26.6937 87.4813C23.8626 86.3328 20.9315 86.4129 17.9869 86.6934C17.5062 86.7401 17.0388 87.0072 16.5714 87.1741C15.0224 87.7283 14.4615 88.9101 14.348 90.5593C14.7419 90.4926 14.989 90.4792 15.2093 90.3991C17.4261 89.5978 19.5159 89.9717 21.5324 91.0534C23.2951 92.0082 25.0578 92.9764 26.8138 93.9379C27.7553 94.4587 28.2894 95.2999 28.4964 96.3148C28.6834 97.2162 28.7435 98.1377 28.8837 99.1993V99.206ZM13.5935 103.332C13.3398 101.97 13.1128 100.782 12.8791 99.5264C11.8976 99.9337 10.8893 100.214 10.9828 101.396C11.0963 102.818 12.3249 103.012 13.5935 103.332ZM9.82103 93.17C10.3619 94.1181 11.2966 93.9379 12.1379 93.9512C12.8657 93.9579 13.6736 94.0781 14.0342 93.17C12.3382 91.641 11.5103 91.641 9.82103 93.17Z" fill="#1D1529"/>
<path d="M134.573 138.573C134.032 143.294 133.471 148.014 132.95 152.735C132.63 155.593 132.309 158.457 132.102 161.328C132.036 162.29 132.336 163.278 132.403 164.259C132.423 164.586 132.323 165.04 132.096 165.221C131.855 165.414 131.355 165.488 131.068 165.368C130.253 165.027 129.812 164.339 129.792 163.445C129.766 162.503 129.672 161.548 129.792 160.62C130.513 155.232 130.941 149.797 132.156 144.475C132.697 142.112 132.81 139.648 133.124 137.224C133.191 136.704 132.984 135.896 133.825 135.962C134.686 136.029 134.573 136.784 134.473 137.431C134.419 137.805 134.406 138.179 134.373 138.553C134.439 138.56 134.506 138.566 134.566 138.573H134.573Z" fill="white"/>
</g>
<defs>
<clipPath id="clip0_404_3243">
<rect width="169.307" height="169" fill="white" transform="translate(0.346436)"/>
</clipPath>
</defs>
</svg>
