<?xml version="1.0" encoding="UTF-8"?>
<svg xmlns="http://www.w3.org/2000/svg" xmlns:xlink="http://www.w3.org/1999/xlink" width="2835" height="2835" viewBox="0 0 2835 2835">

<path fill-rule="nonzero" fill="rgb(0%, 0%, 0%)" fill-opacity="1" d="M 554.675781 2206.605469 L 564.113281 2227.222656 C 550.402344 2233.515625 536.265625 2238.683594 521.753906 2242.671875 L 515.738281 2220.835938 C 529.078125 2217.125 542.089844 2212.382812 554.675781 2206.605469 Z M 937.390625 1537.261719 L 935.371094 1540.550781 L 954.578125 1552.519531 L 956.644531 1549.238281 C 970.6875 1526.601562 985.199219 1503.210938 1000.789062 1481.371094 L 982.429688 1468.179688 C 966.367188 1490.628906 951.621094 1514.339844 937.390625 1537.261719 Z M 763.101562 1866.90625 L 785.550781 1869.539062 C 788.746094 1842.53125 790.671875 1814.261719 791.425781 1783.070312 L 768.789062 1782.511719 C 768.082031 1812.988281 766.203125 1840.605469 763.101562 1866.90625 Z M 864.640625 1641.480469 C 854.921875 1652.609375 844.398438 1662.941406 833.128906 1672.429688 L 847.6875 1689.808594 C 859.851562 1679.558594 871.171875 1668.429688 881.644531 1656.460938 C 890.09375 1646.738281 898.410156 1636.398438 906.957031 1624.761719 L 888.734375 1611.28125 C 880.5625 1622.410156 872.671875 1632.269531 864.640625 1641.480469 Z M 623.429688 2161.894531 L 638.222656 2179.035156 C 659.734375 2160.390625 679.601562 2138.503906 697.355469 2113.851562 L 678.992188 2100.605469 C 662.269531 2123.757812 643.578125 2144.378906 623.429688 2161.894531 Z M 742.675781 1969.292969 C 736.710938 1989.535156 729.335938 2009.261719 720.601562 2028.515625 L 741.21875 2037.90625 C 750.378906 2017.710938 758.078125 1997 764.371094 1975.679688 C 766.34375 1969.011719 768.222656 1962.105469 769.960938 1955.199219 L 748.027344 1949.613281 C 746.382812 1956.238281 744.554688 1962.859375 742.675781 1969.292969 Z M 763.480469 1714.179688 C 744.457031 1721.269531 725.628906 1724.839844 707.402344 1724.839844 C 699.980469 1724.839844 692.65625 1724.230469 685.328125 1723.011719 L 681.617188 1745.410156 C 690.164062 1746.820312 698.714844 1747.53125 707.355469 1747.53125 C 728.253906 1747.53125 749.8125 1743.488281 771.324219 1735.449219 Z M 768.269531 1697.511719 L 790.90625 1696.800781 C 790.011719 1668.53125 788.605469 1640.070312 787.101562 1611 L 764.515625 1612.171875 C 765.96875 1641.148438 767.378906 1669.46875 768.269531 1697.511719 Z M 578.253906 1620.160156 L 556.082031 1624.808594 C 562.238281 1654.210938 578.0625 1682.378906 600.652344 1704.171875 L 616.339844 1687.828125 C 596.988281 1669.140625 583.464844 1645.140625 578.253906 1620.160156 Z M 1410.699219 1258.058594 L 1391.539062 1246.039062 C 1376.179688 1270.601562 1362.28125 1296.050781 1349.878906 1322.261719 L 1370.308594 1331.980469 C 1382.339844 1306.53125 1395.808594 1281.921875 1410.75 1258.058594 Z M 627.609375 1488.140625 C 630.007812 1486.308594 632.542969 1484.519531 635.125 1482.921875 L 622.960938 1463.761719 C 619.910156 1465.730469 616.855469 1467.851562 613.945312 1470.058594 C 592.667969 1486.171875 575.855469 1508.328125 565.148438 1534.160156 L 586.046875 1542.851562 C 595.203125 1520.730469 609.527344 1501.851562 627.609375 1488.140625 Z M 751.3125 1530.828125 L 772.777344 1523.640625 C 760.707031 1487.25 741.171875 1463.109375 714.777344 1451.980469 L 705.992188 1472.871094 C 726.09375 1481.371094 741.359375 1500.859375 751.3125 1530.828125 Z M 1393.28125 1775.050781 C 1376.179688 1775.050781 1357.210938 1760.25 1342.601562 1735.5 L 1323.160156 1747.058594 C 1342.179688 1779.269531 1367.730469 1797.679688 1393.28125 1797.679688 C 1396.140625 1797.679688 1399.011719 1797.449219 1401.820312 1797.019531 L 1398.25 1774.621094 C 1396.609375 1774.859375 1394.96875 1775 1393.28125 1775.050781 Z M 1474.429688 1466.390625 L 1452.78125 1473.011719 C 1459.171875 1494.339844 1463.070312 1516.078125 1464.378906 1538.300781 C 1464.710938 1543.550781 1464.898438 1548.910156 1464.988281 1554.308594 L 1487.578125 1553.941406 C 1487.488281 1548.210938 1487.25 1542.46875 1486.929688 1536.890625 C 1485.519531 1512.890625 1481.339844 1489.410156 1474.429688 1466.390625 Z M 1441.089844 1714.699219 C 1440.621094 1716.429688 1440.148438 1718.171875 1439.679688 1719.960938 L 1461.46875 1725.96875 C 1461.988281 1724.179688 1462.460938 1722.351562 1462.96875 1720.378906 C 1470.910156 1689.621094 1476.449219 1664.441406 1480.351562 1641.289062 L 1458.039062 1637.488281 C 1454.238281 1659.980469 1448.839844 1684.539062 1441.039062 1714.648438 Z M 1039.210938 1401.628906 L 1054.898438 1417.96875 C 1075.558594 1397.960938 1097.539062 1380.921875 1120.269531 1367.25 L 1108.671875 1347.761719 C 1084.480469 1362.320312 1061.101562 1380.449219 1039.210938 1401.628906 Z M 1694.371094 941.519531 L 1707.710938 959.828125 C 1728.929688 944.289062 1751.671875 928.179688 1777.210938 910.609375 L 1764.390625 891.921875 C 1738.648438 909.628906 1715.738281 925.828125 1694.320312 941.519531 Z M 1560.378906 1049.578125 L 1575.550781 1066.441406 C 1595.511719 1048.359375 1617.25 1029.859375 1640.171875 1011.488281 L 1626.03125 993.789062 C 1602.738281 1012.429688 1580.671875 1031.21875 1560.378906 1049.578125 Z M 1441.648438 1175.121094 L 1459.359375 1189.210938 C 1476.359375 1167.789062 1495 1146.378906 1514.871094 1125.46875 L 1498.480469 1109.839844 C 1478.191406 1131.210938 1459.03125 1153.140625 1441.648438 1175.121094 Z M 1414.691406 1365.230469 C 1399.761719 1350.910156 1383.039062 1339.121094 1364.539062 1329.910156 L 1354.441406 1350.199219 C 1370.871094 1358.371094 1385.71875 1368.800781 1399.011719 1381.53125 C 1405.160156 1387.488281 1410.941406 1393.878906 1416.191406 1400.691406 L 1434.039062 1386.738281 C 1428.078125 1379.089844 1421.640625 1371.949219 1414.691406 1365.230469 Z M 1311.320312 1574.929688 L 1288.730469 1574.789062 C 1288.730469 1576.148438 1288.730469 1577.558594 1288.730469 1578.921875 C 1288.691406 1606.859375 1291.078125 1634.570312 1295.871094 1662.089844 L 1318.128906 1658.148438 C 1313.578125 1631.941406 1311.320312 1605.550781 1311.320312 1578.96875 C 1311.320312 1577.609375 1311.320312 1576.289062 1311.320312 1574.980469 Z M 1190.058594 1313.238281 L 1195.691406 1335.21875 C 1215.328125 1330.191406 1235.289062 1327.660156 1255.578125 1327.710938 C 1262.621094 1327.710938 1269.710938 1327.988281 1276.621094 1328.601562 L 1278.589844 1306.011719 C 1270.980469 1305.351562 1263.230469 1305.019531 1255.578125 1305.019531 C 1233.359375 1305.019531 1211.570312 1307.75 1190.058594 1313.238281 Z M 1317.710938 1403.128906 C 1308.691406 1430.839844 1301.699219 1459.019531 1296.71875 1487.71875 L 1318.980469 1491.609375 C 1323.820312 1463.949219 1330.578125 1436.808594 1339.269531 1410.128906 Z M 1835.539062 843.828125 L 1848.089844 862.710938 C 1860.109375 854.679688 1872.039062 846.789062 1884.148438 838.75 L 1871.710938 819.828125 C 1859.539062 827.910156 1847.609375 835.800781 1835.539062 843.828125 Z M 2317.21875 633.570312 C 2317.121094 633.660156 2317.078125 633.761719 2316.980469 633.851562 C 2316.929688 633.890625 2316.929688 633.941406 2316.878906 633.941406 L 2007.109375 975.371094 C 2004.851562 977.871094 2002.179688 978.570312 1998.980469 977.539062 C 1995.789062 976.5 1994 974.289062 1993.679688 970.960938 L 1979.910156 839.648438 L 1942.671875 885.339844 C 1940.320312 888.261719 1937.410156 889.058594 1933.890625 887.691406 C 1930.410156 886.378906 1928.71875 883.800781 1928.910156 880.078125 L 1936.75 721.441406 L 1845.589844 605.289062 C 1843.53125 602.621094 1843.25 599.839844 1844.800781 596.839844 C 1846.390625 593.878906 1848.828125 592.46875 1852.171875 592.710938 L 2311.628906 620.890625 L 2311.769531 620.890625 C 2311.859375 620.929688 2312 620.929688 2312.101562 620.929688 L 2312.46875 620.980469 L 2312.75 621.070312 L 2313.128906 621.121094 L 2313.410156 621.21875 C 2313.550781 621.261719 2313.648438 621.308594 2313.789062 621.359375 L 2314.070312 621.449219 L 2314.398438 621.589844 L 2314.679688 621.730469 L 2315.011719 621.921875 L 2315.289062 622.109375 L 2315.570312 622.25 L 2315.851562 622.480469 L 2316.140625 622.671875 C 2316.230469 622.761719 2316.320312 622.859375 2316.371094 622.910156 L 2316.648438 623.140625 C 2316.699219 623.230469 2316.789062 623.328125 2316.839844 623.371094 C 2316.929688 623.46875 2317.03125 623.558594 2317.121094 623.660156 L 2317.171875 623.75 L 2317.308594 623.890625 L 2317.539062 624.21875 C 2317.589844 624.308594 2317.640625 624.410156 2317.691406 624.5 C 2317.78125 624.601562 2317.828125 624.691406 2317.921875 624.789062 L 2318.058594 625.109375 C 2318.109375 625.210938 2318.160156 625.300781 2318.199219 625.390625 C 2318.25 625.53125 2318.300781 625.628906 2318.339844 625.71875 C 2318.390625 625.820312 2318.441406 625.960938 2318.480469 626.050781 C 2318.480469 626.140625 2318.53125 626.289062 2318.578125 626.378906 L 2318.671875 626.710938 C 2318.671875 626.800781 2318.71875 626.949219 2318.769531 627.039062 C 2318.769531 627.179688 2318.808594 627.269531 2318.808594 627.371094 C 2318.808594 627.460938 2318.859375 627.648438 2318.859375 627.738281 C 2318.859375 627.878906 2318.859375 627.878906 2318.910156 627.980469 L 2318.910156 628.070312 C 2318.910156 628.210938 2318.910156 628.308594 2318.910156 628.449219 C 2318.910156 628.539062 2318.910156 628.679688 2318.910156 628.78125 C 2318.910156 628.921875 2318.910156 629.011719 2318.910156 629.109375 C 2318.910156 629.199219 2318.910156 629.339844 2318.910156 629.480469 C 2318.910156 629.621094 2318.910156 629.671875 2318.859375 629.761719 C 2318.808594 629.859375 2318.808594 630.039062 2318.808594 630.140625 C 2318.769531 630.28125 2318.769531 630.328125 2318.71875 630.421875 L 2318.621094 630.800781 C 2318.621094 630.941406 2318.578125 631.03125 2318.53125 631.121094 L 2318.441406 631.449219 C 2318.390625 631.550781 2318.339844 631.691406 2318.300781 631.78125 C 2318.25 631.878906 2318.199219 631.96875 2318.160156 632.058594 C 2318.109375 632.160156 2318.058594 632.300781 2317.96875 632.390625 C 2317.921875 632.488281 2317.871094 632.578125 2317.828125 632.671875 L 2317.640625 632.960938 C 2317.589844 633.050781 2317.5 633.140625 2317.449219 633.238281 C 2317.359375 633.328125 2317.308594 633.46875 2317.21875 633.570312 Z M 1868.46875 609.28125 L 1947.648438 710.171875 L 2259.78125 633.328125 Z M 2261.421875 648.96875 L 1952.109375 725.101562 L 1945.578125 857.210938 L 1979.628906 815.371094 L 1979.679688 815.371094 C 1979.820312 815.179688 1979.960938 815.039062 1980.101562 814.898438 C 1980.148438 814.800781 1980.199219 814.761719 1980.238281 814.710938 C 1980.378906 814.621094 1980.519531 814.480469 1980.671875 814.378906 L 1980.808594 814.238281 C 1980.949219 814.101562 1981.128906 814.011719 1981.28125 813.871094 L 1981.75 813.578125 Z M 2271.101562 661.28125 L 1993.910156 824.429688 L 2007.289062 952.078125 Z M 2271.101562 661.28125 "/>
</svg>
